<svg width="54" height="18" viewBox="0 0 54 18" fill="none" xmlns="http://www.w3.org/2000/svg">
	<path d="M0.501465 3.7082C0.501465 2.19173 1.73442 0.963013 3.25612 0.963013C4.77781 0.963013 6.01077 2.19173 6.01077 3.7082C6.01077 5.22467 4.77781 6.45339 3.25612 6.45339C1.73442 6.45339 0.501465 5.22467 0.501465 3.7082ZM53.876 17.0918H44.3346V16.0623H53.876V17.0918ZM31.4214 4.22295H3.25612V3.19345H31.4214V4.22295ZM37.3615 10.1426C37.3615 6.87342 34.7024 4.22295 31.4214 4.22295V3.19345C35.2727 3.19345 38.3946 6.30462 38.3946 10.1426H37.3615ZM44.3346 17.0918C40.4834 17.0918 37.3615 13.9806 37.3615 10.1426H38.3946C38.3946 13.4118 41.0542 16.0623 44.3346 16.0623V17.0918Z" fill="white" />
</svg>
