<svg width="45" height="98" viewBox="0 0 45 98" fill="none" xmlns="http://www.w3.org/2000/svg">
	<path d="M0.501465 94.9869C0.501465 96.5034 1.73442 97.7321 3.25612 97.7321C4.77781 97.7321 6.01077 96.5034 6.01077 94.9869C6.01077 93.4704 4.77781 92.2417 3.25612 92.2417C1.73442 92.2417 0.501465 93.4704 0.501465 94.9869ZM31.0025 13.8014V66.8211H32.0356V13.8014H31.0025ZM31.0025 66.8211C31.0025 82.0923 18.58 94.4721 3.25612 94.4721V95.5017C19.1507 95.5017 32.0356 82.6611 32.0356 66.8211H31.0025ZM44.5784 0.272141C37.0805 0.272141 31.0025 6.32925 31.0025 13.8014H32.0356C32.0356 6.89806 37.6513 1.30165 44.5784 1.30165V0.272141Z" fill="white" />
</svg>
