<svg width="45" height="155" viewBox="0 0 45 155" fill="none" xmlns="http://www.w3.org/2000/svg">
	<path d="M38.7643 151.987C38.7643 153.503 39.9972 154.732 41.5189 154.732C43.0406 154.732 44.2736 153.503 44.2736 151.987C44.2736 150.47 43.0406 149.242 41.5189 149.242C39.9972 149.242 38.7643 150.47 38.7643 151.987ZM26.6491 27.0108V137.683H27.6821V27.0108H26.6491ZM26.6491 137.683C26.6491 145.867 33.3066 152.502 41.5189 152.502V151.472C33.8769 151.472 27.6821 145.299 27.6821 137.683H26.6491ZM0.713135 1.16394C15.037 1.16394 26.6491 12.736 26.6491 27.0108H27.6821C27.6821 12.1674 15.6078 0.13443 0.713135 0.13443V1.16394Z" fill="white" />
</svg>
