<svg width="43" height="49" viewBox="0 0 43 49" fill="none" xmlns="http://www.w3.org/2000/svg">
	<path d="M36.7646 45.7082C36.7646 47.2247 37.9975 48.4534 39.5192 48.4534C41.0409 48.4534 42.2739 47.2247 42.2739 45.7082C42.2739 44.1917 41.0409 42.963 39.5192 42.963C37.9975 42.963 36.7646 44.1917 36.7646 45.7082ZM17.6628 18.7794V24.4417H18.6959V18.7794H17.6628ZM17.6628 24.4417C17.6628 36.4715 27.4484 46.223 39.5192 46.223V45.1934C28.0187 45.1934 18.6959 35.9026 18.6959 24.4417H17.6628ZM0.779541 1.9541C10.1039 1.9541 17.6628 9.48701 17.6628 18.7794H18.6959C18.6959 8.91873 10.6747 0.924591 0.779541 0.924591V1.9541Z" fill="white" />
</svg>
