<svg width="54" height="36" viewBox="0 0 54 36" fill="none" xmlns="http://www.w3.org/2000/svg">
	<path d="M36.9518 4.21724C36.6632 2.59586 35.7042 1.48345 34.1382 0.982759C32.5728 0.482069 31.1394 0.822069 29.9622 1.97448C27.9784 3.91586 26.0251 5.88828 24.0669 7.85586C23.2694 8.65724 22.8661 9.63448 22.8647 10.7676C22.8613 13.5503 22.8613 16.3331 22.8675 19.1159C22.8675 19.389 22.8979 19.6669 22.9566 19.9338C23.4627 22.2235 25.7033 23.6235 27.9867 23.0862C29.8185 22.6552 31.1532 20.9724 31.1532 19.0945C31.1532 17.1676 31.1532 15.2414 31.1532 13.3145V13.1393C30.8826 13.4097 30.6478 13.6669 30.3889 13.8979C30.0871 14.1683 29.7688 14.4207 29.4491 14.6697C29.378 14.7248 29.349 14.771 29.349 14.8586C29.3511 16.2393 29.3518 17.6193 29.349 19C29.349 19.1648 29.34 19.3331 29.309 19.4952C29.077 20.6897 27.9977 21.4917 26.7728 21.3862C25.6004 21.2855 24.6697 20.2717 24.6669 19.0676C24.6607 16.3014 24.6634 13.5359 24.6669 10.7697C24.6669 10.1234 24.9044 9.56966 25.3629 9.11241C27.3142 7.16276 29.2648 5.21241 31.2181 3.26552C31.7263 2.75862 32.3477 2.52069 33.0631 2.58966C34.0304 2.68276 34.7182 3.19241 35.0586 4.09724C35.4017 5.00828 35.2236 5.86 34.5386 6.55241C32.586 8.52552 30.6181 10.4828 28.6489 12.4393C28.0999 12.9848 27.4233 13.1938 26.6548 13.0841C26.1445 13.0117 25.7109 12.7821 25.3456 12.4207C25.2773 12.3531 25.2075 12.2876 25.1212 12.2041C25.1212 12.9531 25.1198 13.6697 25.1247 14.3862C25.1247 14.4255 25.1633 14.4828 25.1999 14.5007C25.6881 14.74 26.2053 14.8807 26.748 14.9083C27.9991 14.971 29.0783 14.5648 29.9656 13.6814C31.9114 11.7448 33.8564 9.80759 35.7912 7.86069C36.7951 6.84966 37.2018 5.61793 36.9518 4.21724Z" fill="#0AC5B3" />
	<path d="M20.4142 2.70207C21.3084 2.40759 22.1204 2.6069 22.7943 3.26483C23.6388 4.08897 24.4666 4.93035 25.3014 5.76414C25.3346 5.79724 25.3698 5.82897 25.3974 5.85448C25.8234 5.42828 26.2425 5.00897 26.6886 4.56276C26.6513 4.53586 26.6078 4.51172 26.574 4.47793C25.7509 3.65724 24.9286 2.83517 24.1055 2.01379C22.447 0.357931 19.8432 0.358621 18.1861 2.01448C16.6325 3.5669 16.5883 6.17241 18.1205 7.74483C19.5021 9.16207 20.9162 10.549 22.3165 11.9483C22.3358 11.9676 22.3607 11.9807 22.3994 12.0083C22.3994 11.6428 22.3835 11.2972 22.4035 10.9538C22.4263 10.5497 22.4739 10.1469 22.525 9.74552C22.5368 9.65035 22.5202 9.59586 22.4553 9.53104C21.461 8.54138 20.4646 7.55379 19.478 6.55655C18.9373 6.00966 18.7101 5.33655 18.8296 4.57931C18.9774 3.6469 19.5139 2.99793 20.4135 2.70138L20.4142 2.70207Z" fill="#0AC5B3" />
	<path d="M7.85103 28.6559C7.88555 28.6048 7.90696 28.5455 7.9401 28.4793C7.89315 28.4717 7.87244 28.4655 7.85103 28.4655C7.19094 28.4655 6.53084 28.4634 5.87006 28.4683C5.82655 28.4683 5.76786 28.511 5.74232 28.5503C5.54277 28.8579 5.34874 29.169 5.15334 29.4793C4.89303 29.8924 4.63341 30.3055 4.35998 30.7393C4.32339 30.6828 4.29991 30.6469 4.27782 30.6103C3.86629 29.931 3.45546 29.251 3.04532 28.571C3.00872 28.5103 2.97903 28.4607 2.88927 28.4614C2.23815 28.4662 1.58634 28.4641 0.934531 28.4641C0.908983 28.4641 0.883436 28.4697 0.828888 28.4759C0.869626 28.551 0.899316 28.6159 0.937293 28.6752C1.73134 29.9083 2.52746 31.14 3.31944 32.3745C3.35879 32.4359 3.38296 32.5186 3.38296 32.5917C3.3871 33.3821 3.38572 34.1724 3.38572 34.9634C3.38572 35.0138 3.38572 35.0641 3.38572 35.1159H5.27556V34.969C5.27556 34.209 5.2797 33.449 5.2721 32.689C5.27072 32.5317 5.31215 32.4069 5.39984 32.2786C6.22013 31.0731 7.03489 29.8641 7.85034 28.6552L7.85103 28.6559Z" fill="#0AC5B3" />
	<path d="M11.0845 30.5C10.7227 30.371 10.3478 30.3179 9.9632 30.3028C9.73327 30.329 9.50127 30.3407 9.2748 30.3841C8.62092 30.5083 8.06094 30.7979 7.67358 31.3586C7.34975 31.8269 7.25101 32.3586 7.27587 32.9159C7.31592 33.7986 7.69361 34.4828 8.49249 34.9C9.1443 35.2407 9.84099 35.3035 10.5577 35.1862C11.0583 35.1041 11.5154 34.9138 11.8979 34.5731C12.4765 34.0572 12.6713 33.3903 12.6457 32.64C12.6112 31.6145 12.0491 30.8434 11.0845 30.5ZM9.4778 33.6786C9.11875 33.4828 8.98134 33.1462 8.99101 32.7552C9.00206 32.3421 9.16985 32.0014 9.56963 31.8366C9.93006 31.6876 10.2843 31.7248 10.5895 31.9848C10.8304 32.1903 10.9243 32.4669 10.9271 32.7779C10.9299 33.6703 10.0833 34.009 9.47711 33.6786H9.4778Z" fill="#0AC5B3" />
	<path d="M20.1864 30.4924C19.4648 30.2524 18.7336 30.2517 18.0093 30.4855C17.3879 30.6862 16.908 31.0648 16.6249 31.6655C16.4185 32.1041 16.3701 32.5724 16.4109 33.0476C16.4875 33.9276 16.9163 34.5766 17.7242 34.9531C18.376 35.2572 19.0616 35.3034 19.7618 35.1731C21.0081 34.9414 21.78 34.0248 21.7786 32.7841C21.7752 32.7276 21.771 32.671 21.7683 32.6145C21.7193 31.5828 21.1544 30.8152 20.1857 30.4931L20.1864 30.4924ZM18.7419 33.7421C18.3511 33.6048 18.0977 33.2041 18.1143 32.749C18.1336 32.2214 18.4864 31.809 18.9553 31.7662C19.5995 31.7069 20.0566 32.1297 20.0566 32.7841C20.0566 33.5172 19.4213 33.98 18.7426 33.7421H18.7419Z" fill="#0AC5B3" />
	<path d="M13.6683 35.1186H15.3821V28.4648H13.6683V35.1186Z" fill="#0AC5B3" />
	<path d="M27.8928 31.529H23.857V28.469H23.201V35.1124H23.8659V32.18H27.9018V35.1131H28.5591V28.4745H27.8921V31.529H27.8928Z" fill="#0AC5B3" />
	<path d="M40.1363 31.2793C40.128 31.2807 40.1191 31.2828 40.1108 31.2841C40.0673 31.2241 40.0258 31.1621 39.9796 31.1048C39.6033 30.6448 39.102 30.42 38.5234 30.3697C37.7521 30.3028 37.0568 30.5034 36.521 31.08C35.8457 31.8076 35.7407 32.68 36.0086 33.5993C36.28 34.531 37.0513 35.1248 38.0594 35.2055C38.8962 35.2731 39.5853 34.9876 40.0866 34.2966C40.1032 34.2738 40.1115 34.2462 40.1239 34.2207C40.1363 34.2297 40.1481 34.2386 40.1605 34.2476V35.1145H40.7356V30.4338H40.1363V31.2779V31.2793ZM40.1163 33.0166C40.0272 33.7579 39.6454 34.2986 38.9107 34.5303C37.7942 34.8821 36.7412 34.2393 36.5472 33.1C36.5293 32.9931 36.5265 32.8834 36.5189 32.7952C36.5189 31.8559 37.0837 31.1276 37.9606 30.9752C39.3865 30.7269 40.2599 31.8179 40.1163 33.0166Z" fill="#0AC5B3" />
	<path d="M33.4884 30.5117C33.0645 30.3497 32.6232 30.3041 32.1737 30.3545C31.4315 30.4379 30.8377 30.7745 30.4344 31.411C30.0844 31.9634 30.0022 32.5738 30.0947 33.211C30.1714 33.7414 30.3889 34.2048 30.7811 34.5772C31.7463 35.4938 33.4843 35.3621 34.355 34.5152C34.413 34.4586 34.4654 34.3972 34.5241 34.3338C34.3736 34.2014 34.2376 34.0807 34.0981 33.9579C33.6672 34.4055 33.1328 34.5772 32.5432 34.5986C31.718 34.629 31.0296 34.1669 30.8011 33.4379C30.7617 33.3131 30.7452 33.1814 30.7148 33.0366H30.9171C32.1724 33.0366 33.4277 33.0359 34.6829 33.0386C34.7858 33.0386 34.8362 33.0172 34.83 32.9034C34.8162 32.6641 34.8335 32.4214 34.7982 32.1855C34.6802 31.3841 34.2597 30.8069 33.4884 30.5124V30.5117ZM30.7258 32.4924C30.7714 32.0917 30.9019 31.7372 31.1726 31.4469C31.8382 30.7317 33.1252 30.7234 33.8033 31.4269C34.0864 31.7207 34.2031 32.0807 34.212 32.4924H30.7258Z" fill="#0AC5B3" />
	<path d="M53.1649 32.3972C53.1601 31.9469 53.0689 31.5117 52.8148 31.1276C52.4938 30.6428 52.0235 30.4172 51.4587 30.3697C50.7068 30.3062 50.0681 30.5179 49.6165 31.1586C49.6069 31.1724 49.609 31.1931 49.6048 31.211C49.5903 31.2021 49.5765 31.1924 49.562 31.1834V28.4724H48.9364V35.1152H49.5772C49.5772 35.0621 49.5772 35.0152 49.5772 34.9683C49.5772 34.1648 49.5772 33.3614 49.5772 32.5572C49.5772 32.2676 49.6483 31.9959 49.7878 31.7428C50.2352 30.931 51.4097 30.6938 52.0843 31.2834C52.395 31.5552 52.5096 31.9234 52.5165 32.3166C52.531 33.1986 52.5241 34.0807 52.5255 34.9628C52.5255 35.0131 52.5255 35.0641 52.5255 35.1138H53.1615C53.1642 35.0848 53.167 35.0641 53.167 35.0428C53.167 34.1607 53.1746 33.2786 53.1642 32.3966L53.1649 32.3972Z" fill="#0AC5B3" />
	<path d="M47.5058 34.4855C47.2841 34.5731 47.057 34.6255 46.8153 34.6028C46.5018 34.5731 46.2892 34.4131 46.2139 34.1083C46.1725 33.9407 46.1545 33.7634 46.1531 33.5903C46.1469 32.769 46.1504 31.9483 46.1504 31.1269C46.1504 31.08 46.1504 31.0338 46.1504 30.9717H47.6729V30.4276H46.1448V29.0345C45.9246 29.0579 45.7223 29.0793 45.5068 29.1021V30.4421H44.5561V30.971H45.5138V31.131C45.5138 31.9345 45.5124 32.7379 45.5151 33.5421C45.5151 33.7034 45.5248 33.8648 45.5414 34.0255C45.6021 34.6097 45.9253 35.0117 46.4404 35.1379C46.7145 35.2055 46.9948 35.2207 47.271 35.1538C47.4637 35.1076 47.6508 35.0393 47.8476 34.9786C47.7723 34.7779 47.7088 34.609 47.6418 34.4324C47.5859 34.4538 47.5458 34.4697 47.5065 34.4848L47.5058 34.4855Z" fill="#0AC5B3" />
	<path d="M42.5454 35.1166H43.1647V28.4752H42.5454V35.1166Z" fill="#0AC5B3" />
</svg>
