<svg width="200" height="29" viewBox="0 0 200 29" fill="none" xmlns="http://www.w3.org/2000/svg">
	<path d="M11.0024 27.84V14.8851L11.2659 16.704L0.611763 1.856H8.96941L17.1012 13.3632L12.6965 13.2518L20.0376 1.856H28.1694L17.9671 17.1123L18.5318 14.5882V27.84H11.0024ZM36.9062 28.2112C34.7728 28.2112 32.8654 27.7658 31.1839 26.8749C29.5022 25.984 28.1846 24.7715 27.2309 23.2371C26.2772 21.7028 25.8004 19.9334 25.8004 17.929C25.8004 15.9245 26.2772 14.1551 27.2309 12.6208C28.1846 11.0865 29.5022 9.87392 31.1839 8.98304C32.8654 8.09216 34.7728 7.64672 36.9062 7.64672C39.0395 7.64672 40.9345 8.09216 42.5909 8.98304C44.2725 9.87392 45.5901 11.0865 46.5439 12.6208C47.4975 14.1551 47.9745 15.9245 47.9745 17.929C47.9745 19.9334 47.4975 21.7028 46.5439 23.2371C45.5901 24.7715 44.2725 25.984 42.5909 26.8749C40.9345 27.7658 39.0395 28.2112 36.9062 28.2112ZM36.9062 22.3834C37.6592 22.3834 38.3368 22.1978 38.9392 21.8266C39.5666 21.4307 40.0434 20.8986 40.3698 20.2304C40.7211 19.5375 40.8968 18.7703 40.8968 17.929C40.8968 17.0381 40.7211 16.2586 40.3698 15.5904C40.0434 14.9222 39.5666 14.4026 38.9392 14.0314C38.3368 13.6355 37.6592 13.4374 36.9062 13.4374C36.1281 13.4374 35.438 13.6355 34.8356 14.0314C34.2333 14.4026 33.7564 14.9347 33.4051 15.6275C33.0536 16.2957 32.878 17.0628 32.878 17.929C32.878 18.7703 33.0536 19.5375 33.4051 20.2304C33.7564 20.8986 34.2333 21.4307 34.8356 21.8266C35.438 22.1978 36.1281 22.3834 36.9062 22.3834ZM51.8274 27.84V0.371201H58.8296V27.84H51.8274ZM73.4504 28.2112C71.3169 28.2112 69.4095 27.7658 67.728 26.8749C66.0464 25.984 64.7287 24.7715 63.7751 23.2371C62.8213 21.7028 62.3445 19.9334 62.3445 17.929C62.3445 15.9245 62.8213 14.1551 63.7751 12.6208C64.7287 11.0865 66.0464 9.87392 67.728 8.98304C69.4095 8.09216 71.3169 7.64672 73.4504 7.64672C75.5836 7.64672 77.4786 8.09216 79.1351 8.98304C80.8166 9.87392 82.1342 11.0865 83.088 12.6208C84.0417 14.1551 84.5186 15.9245 84.5186 17.929C84.5186 19.9334 84.0417 21.7028 83.088 23.2371C82.1342 24.7715 80.8166 25.984 79.1351 26.8749C77.4786 27.7658 75.5836 28.2112 73.4504 28.2112ZM73.4504 22.3834C74.2033 22.3834 74.8809 22.1978 75.4833 21.8266C76.1107 21.4307 76.5875 20.8986 76.9139 20.2304C77.2652 19.5375 77.4409 18.7703 77.4409 17.929C77.4409 17.0381 77.2652 16.2586 76.9139 15.5904C76.5875 14.9222 76.1107 14.4026 75.4833 14.0314C74.8809 13.6355 74.2033 13.4374 73.4504 13.4374C72.6722 13.4374 71.9821 13.6355 71.3798 14.0314C70.7774 14.4026 70.3005 14.9347 69.9492 15.6275C69.5978 16.2957 69.4221 17.0628 69.4221 17.929C69.4221 18.7703 69.5978 19.5375 69.9492 20.2304C70.3005 20.8986 70.7774 21.4307 71.3798 21.8266C71.9821 22.1978 72.6722 22.3834 73.4504 22.3834ZM107.195 27.84V1.856H110.132V27.84H107.195ZM89.5762 27.84V1.856H92.5127V27.84H89.5762ZM91.0068 16.2957V13.4746H108.437V16.2957H91.0068ZM125.414 28.2112C123.456 28.2112 121.713 27.7905 120.181 26.9491C118.675 26.1078 117.496 24.9322 116.643 23.4227C115.789 21.9132 115.363 20.1809 115.363 18.2259C115.363 16.7164 115.601 15.3553 116.078 14.1427C116.555 12.9053 117.22 11.8289 118.073 10.9133C118.952 9.99766 119.993 9.29238 121.198 8.79744C122.402 8.27776 123.708 8.01792 125.113 8.01792C126.444 8.01792 127.648 8.25302 128.727 8.7232C129.832 9.19338 130.773 9.84918 131.551 10.6906C132.354 11.5072 132.956 12.4847 133.358 13.623C133.76 14.7613 133.935 16.0111 133.885 17.3722L133.847 18.6714H117.471L117.057 16.3328H131.701L131.024 16.9638V16.073C130.974 15.1821 130.711 14.3283 130.233 13.5117C129.756 12.6703 129.079 11.9898 128.2 11.4701C127.347 10.9504 126.318 10.6906 125.113 10.6906C123.708 10.6906 122.491 10.9751 121.461 11.5443C120.433 12.0887 119.642 12.9053 119.089 13.9942C118.538 15.0831 118.261 16.4317 118.261 18.0403C118.261 19.5747 118.562 20.911 119.165 22.0493C119.767 23.1629 120.621 24.0291 121.725 24.6477C122.854 25.2663 124.209 25.5757 125.791 25.5757C126.72 25.5757 127.635 25.4272 128.539 25.1302C129.468 24.8086 130.485 24.1898 131.588 23.2742L133.056 25.2787C132.48 25.8479 131.789 26.3552 130.986 26.8006C130.184 27.2214 129.305 27.5677 128.351 27.84C127.398 28.0874 126.419 28.2112 125.414 28.2112ZM145.575 28.2112C143.868 28.2112 142.325 27.7782 140.945 26.912C139.565 26.0211 138.473 24.8209 137.669 23.3114C136.866 21.777 136.465 20.0448 136.465 18.1146C136.465 16.1596 136.879 14.4273 137.707 12.9178C138.535 11.4082 139.64 10.2204 141.02 9.35424C142.426 8.4881 143.994 8.05504 145.726 8.05504C146.755 8.05504 147.708 8.20352 148.587 8.50048C149.466 8.79744 150.244 9.21814 150.921 9.76256C151.624 10.2822 152.201 10.9009 152.653 11.6186C153.129 12.3114 153.456 13.0662 153.632 13.8829L152.804 13.4746L152.916 8.46336H155.74V27.84H152.879V23.0886L153.632 22.6061C153.456 23.3485 153.118 24.0662 152.615 24.759C152.113 25.4272 151.499 26.0211 150.771 26.5408C150.068 27.0605 149.265 27.4688 148.361 27.7658C147.482 28.0627 146.554 28.2112 145.575 28.2112ZM146.215 25.5386C147.52 25.5386 148.687 25.2292 149.716 24.6106C150.746 23.9671 151.548 23.0886 152.126 21.975C152.728 20.8367 153.029 19.5498 153.029 18.1146C153.029 16.6793 152.728 15.4048 152.126 14.2912C151.548 13.1776 150.746 12.2991 149.716 11.6557C148.687 11.0123 147.52 10.6906 146.215 10.6906C144.885 10.6906 143.706 11.0123 142.676 11.6557C141.673 12.2991 140.869 13.1776 140.267 14.2912C139.689 15.4048 139.401 16.6793 139.401 18.1146C139.401 19.5251 139.689 20.7996 140.267 21.9379C140.845 23.0515 141.647 23.93 142.676 24.5734C143.706 25.2169 144.885 25.5386 146.215 25.5386ZM161.316 27.84V0.371201H164.14V27.84H161.316ZM172.298 27.84V3.37792H175.121V27.84H172.298ZM167.855 11.136V8.46336H180.091V11.136H167.855ZM183.558 27.84V0.371201H186.381V12.695L185.816 13.2518C186.092 12.2372 186.607 11.3463 187.36 10.5792C188.113 9.7873 188.991 9.16864 189.995 8.7232C191.024 8.27776 192.066 8.05504 193.12 8.05504C194.626 8.05504 195.88 8.33962 196.885 8.9088C197.888 9.47798 198.628 10.3565 199.106 11.5443C199.607 12.7322 199.859 14.2417 199.859 16.073V27.84H196.998V16.2214C196.998 14.9347 196.821 13.8829 196.471 13.0662C196.144 12.2249 195.629 11.6061 194.927 11.2102C194.224 10.8143 193.346 10.6287 192.292 10.6534C191.464 10.6534 190.685 10.8019 189.958 11.0989C189.229 11.3711 188.602 11.7546 188.075 12.2496C187.548 12.7446 187.134 13.3137 186.833 13.9571C186.532 14.6006 186.381 15.2934 186.381 16.0358V27.84H184.988C184.812 27.84 184.612 27.84 184.386 27.84C184.16 27.84 183.884 27.84 183.558 27.84Z" fill="#0AC5B3" />
</svg>
