<svg width="22" height="16" viewBox="0 0 22 16" fill="none" xmlns="http://www.w3.org/2000/svg">
	<path d="M19.3089 13.708C21.1959 11.66 21.0059 9.03 20.9999 9V1C20.9999 0.734784 20.8946 0.48043 20.707 0.292893C20.5195 0.105357 20.2651 0 19.9999 0H13.9999C12.8969 0 11.9999 0.897 11.9999 2V9C11.9999 9.26522 12.1053 9.51957 12.2928 9.70711C12.4803 9.89464 12.7347 10 12.9999 10H16.0779C16.0568 10.4944 15.9091 10.9751 15.6489 11.396C15.1409 12.197 14.1839 12.744 12.8029 13.02L11.9999 13.18V16H12.9999C15.7829 16 17.9059 15.229 19.3089 13.708ZM8.30192 13.708C10.1899 11.66 9.99892 9.03 9.99292 9V1C9.99292 0.734784 9.88756 0.48043 9.70003 0.292893C9.51249 0.105357 9.25814 0 8.99292 0H2.99292C1.88992 0 0.99292 0.897 0.99292 2V9C0.99292 9.26522 1.09828 9.51957 1.28581 9.70711C1.47335 9.89464 1.7277 10 1.99292 10H5.07092C5.04979 10.4944 4.90208 10.9751 4.64192 11.396C4.13392 12.197 3.17692 12.744 1.79592 13.02L0.99292 13.18V16H1.99292C4.77592 16 6.89892 15.229 8.30192 13.708Z" fill="#0AC5B3" />
</svg>
