<svg width="15" height="16" viewBox="0 0 15 16" fill="none" xmlns="http://www.w3.org/2000/svg">
	<path d="M6.80544 0.97475C7.04544 0.34175 7.95368 0.34175 8.19443 0.97475L9.74694 5.27525C9.8011 5.41534 9.89647 5.53571 10.0205 5.62047C10.1445 5.70523 10.2912 5.7504 10.4414 5.75H14.2567C14.9617 5.75 15.2692 6.6275 14.7149 7.05725L11.9999 9.5C11.8783 9.59349 11.7894 9.72311 11.7461 9.87024C11.7027 10.0174 11.707 10.1745 11.7584 10.319L12.7499 14.5212C12.9914 15.1962 12.2099 15.776 11.6189 15.3605L7.93119 13.0205C7.8049 12.9317 7.65429 12.8841 7.49994 12.8841C7.34558 12.8841 7.19498 12.9317 7.06869 13.0205L3.38094 15.3605C2.79069 15.776 2.00844 15.1955 2.24994 14.5212L3.24144 10.319C3.29287 10.1745 3.2972 10.0174 3.25382 9.87024C3.21043 9.72311 3.12155 9.59349 2.99994 9.5L0.284935 7.05725C-0.270065 6.6275 0.0389353 5.75 0.742435 5.75H4.55769C4.7079 5.7505 4.85473 5.70538 4.97875 5.6206C5.10276 5.53583 5.19811 5.4154 5.25219 5.27525L6.80469 0.97475H6.80544Z" fill="#F2C94C" />
</svg>
