<svg width="20" height="20" viewBox="0 0 20 20" fill="none" xmlns="http://www.w3.org/2000/svg">
	<path fill-rule="evenodd" clip-rule="evenodd" d="M10.0002 -0.00012207C4.47746 -0.00012207 0.000183105 4.47715 0.000183105 9.99988C0.000183105 15.5226 4.47746 19.9999 10.0002 19.9999C15.5229 19.9999 20.0002 15.5226 20.0002 9.99988C20.0002 4.47715 15.5229 -0.00012207 10.0002 -0.00012207ZM14.3347 8.30897C14.4145 8.21774 14.4753 8.11146 14.5134 7.99639C14.5516 7.88133 14.5663 7.7598 14.5568 7.63896C14.5473 7.51811 14.5137 7.40039 14.458 7.29272C14.4023 7.18505 14.3256 7.08961 14.2325 7.01201C14.1394 6.9344 14.0317 6.87621 13.9157 6.84084C13.7998 6.80548 13.6779 6.79366 13.5574 6.80609C13.4368 6.81851 13.3199 6.85492 13.2136 6.91318C13.1073 6.97144 13.0137 7.05037 12.9384 7.14533L9.02927 11.8353L7.00655 9.8117C6.83509 9.6461 6.60545 9.55447 6.36709 9.55654C6.12873 9.55861 5.90072 9.65422 5.73217 9.82277C5.56361 9.99132 5.46801 10.2193 5.46593 10.4577C5.46386 10.6961 5.55549 10.9257 5.72109 11.0972L8.44837 13.8244C8.53769 13.9137 8.64463 13.9834 8.76238 14.029C8.88013 14.0747 9.00609 14.0953 9.13225 14.0896C9.2584 14.0838 9.38198 14.0519 9.4951 13.9957C9.60823 13.9396 9.70841 13.8605 9.78927 13.7635L14.3347 8.30897Z" fill="#0AC5B3" />
</svg>
