<svg width="77" height="51" viewBox="0 0 77 51" fill="none" xmlns="http://www.w3.org/2000/svg">
	<path d="M51.4034 0H26.0935C12.1152 0 0.783569 11.2927 0.783569 25.2229C0.783569 39.1532 12.1152 50.4459 26.0935 50.4459H51.4034C65.3817 50.4459 76.7133 39.1532 76.7133 25.2229C76.7133 11.2927 65.3817 0 51.4034 0Z" fill="#FEF2F2" />
	<path d="M48.5236 17.1979C48.4358 17.4347 48.255 17.5068 48.0122 17.5016C47.4854 17.4965 46.9585 17.4965 46.4265 17.5016C46.0339 17.5016 45.7292 17.3524 45.5122 17.0178C45.4812 16.9663 45.3934 16.9303 45.3314 16.9303C44.9182 16.92 44.505 16.9303 44.0918 16.9303C43.1052 16.9303 42.2529 16.5957 41.5453 15.9059C40.9048 15.283 40.2539 14.6653 39.6083 14.0425C39.1434 13.5895 39.0763 12.9718 39.4378 12.4982C39.8149 11.9989 40.5225 11.8857 41.0132 12.2717C41.38 12.56 41.7157 12.8946 42.067 13.2086C42.2736 13.3939 42.4854 13.5844 42.6868 13.7748C42.8779 13.955 42.9037 14.1815 42.754 14.3462C42.6042 14.5109 42.3769 14.5161 42.1806 14.3359C41.6847 13.8881 41.194 13.4351 40.7033 12.9872C40.6465 12.9358 40.5897 12.8843 40.5225 12.8483C40.3624 12.7659 40.2075 12.7916 40.0887 12.9203C39.9647 13.049 39.944 13.2034 40.037 13.3579C40.0732 13.4196 40.13 13.4763 40.1868 13.5277C40.8221 14.1403 41.4626 14.7528 42.0928 15.3654C42.6506 15.9059 43.3118 16.1736 44.0866 16.1684C44.5153 16.1684 44.9492 16.1684 45.3882 16.1684V13.9241C45.2643 13.9087 45.1352 13.8932 45.006 13.8726C44.3139 13.7491 43.7508 13.4042 43.3066 12.8688C43.0174 12.5188 42.723 12.1688 42.4285 11.8188C42.0101 11.3143 41.4678 11.0621 40.8118 11.0621C39.5256 11.0621 38.2395 11.0621 36.9585 11.0621C36.6847 11.0621 36.5194 11.1702 36.473 11.3709C36.4058 11.6489 36.5918 11.8805 36.9017 11.8805C37.3872 11.8857 37.8676 11.8805 38.3531 11.8805C38.4306 11.8805 38.5081 11.8857 38.5804 11.9011C38.7715 11.9423 38.8851 12.1019 38.8748 12.2872C38.8593 12.4725 38.725 12.6218 38.5287 12.6321C38.3015 12.6424 38.069 12.6372 37.8418 12.6372C37.4905 12.6372 37.1393 12.6475 36.7932 12.6269C36.1837 12.6012 35.7033 12.0916 35.6982 11.479C35.6878 10.8665 36.1579 10.3363 36.7674 10.3105C37.3975 10.2848 38.0277 10.2951 38.6579 10.2951C39.4172 10.2951 40.1713 10.2899 40.9306 10.3002C41.788 10.3157 42.4854 10.6811 43.0329 11.3349C43.3376 11.6952 43.632 12.0555 43.9368 12.4159C44.2984 12.8431 44.7581 13.085 45.3159 13.1468C45.4192 13.1571 45.4864 13.1468 45.5484 13.0439C45.7963 12.6269 46.4265 12.421 46.8759 12.6012C47.0411 12.6681 47.1186 12.8019 47.1083 12.9769C47.098 13.1468 46.974 13.2909 46.7984 13.3115C46.6744 13.327 46.5453 13.3218 46.4161 13.3218C46.2612 13.3218 46.1785 13.399 46.1785 13.5586C46.1785 14.5418 46.1785 15.525 46.1785 16.5082C46.1785 16.6626 46.256 16.7449 46.411 16.7449C46.8552 16.7449 47.2994 16.7449 47.7746 16.7449C47.7746 16.6729 47.7746 16.606 47.7746 16.539C47.7746 15.7772 47.7746 15.0154 47.7746 14.2587C47.7746 14.0785 47.8263 13.9138 48.0071 13.8623C48.1207 13.8314 48.2653 13.8623 48.379 13.9035C48.4461 13.9241 48.4874 14.0219 48.5391 14.0837V17.2031L48.5236 17.1979Z" fill="#EF4444" />
	<path d="M48.5237 13.049C48.4978 13.085 48.472 13.1211 48.4514 13.1571C48.348 13.3012 48.2034 13.3527 48.033 13.3012C47.8625 13.2498 47.7695 13.1211 47.7695 12.9461C47.7695 12.7762 47.8573 12.6424 48.033 12.5909C48.2086 12.5394 48.3584 12.5909 48.4617 12.7453C48.4875 12.7813 48.5082 12.8225 48.5288 12.8586V13.049H48.5237Z" fill="#EF4444" />
	<path d="M29.7375 20.3225C29.7375 20.41 29.7375 20.4769 29.7375 20.5438C29.7375 21.2542 29.7375 21.9646 29.7375 22.6749C29.7375 22.8448 29.6755 22.9838 29.5154 23.061C29.3759 23.1279 29.2261 23.1176 29.128 23.0095C29.0505 22.9271 28.9833 22.8036 28.9833 22.6955C28.973 21.7895 28.973 20.8836 28.9833 19.9725C28.9833 19.7099 29.1383 19.5607 29.4069 19.5607C30.0009 19.5555 30.5897 19.5555 31.1837 19.5607C31.5195 19.5658 31.7881 19.7202 31.9585 20.0033C32.0205 20.1063 32.0877 20.1372 32.2013 20.132C32.6197 20.1269 33.0433 20.132 33.4616 20.132C34.4017 20.1372 35.2178 20.4512 35.8997 21.0998C36.5711 21.7381 37.2426 22.3815 37.9038 23.0301C38.5133 23.6272 38.3945 24.5383 37.6662 24.8987C37.2581 25.0994 36.8346 25.084 36.4833 24.7906C35.8997 24.2964 35.347 23.7765 34.7891 23.2566C34.6187 23.097 34.6187 22.8602 34.7633 22.711C34.9131 22.5565 35.1352 22.5565 35.3263 22.7264C35.8273 23.1742 36.3232 23.6324 36.8191 24.0853C36.8759 24.1368 36.9327 24.1883 36.9999 24.2192C37.16 24.2964 37.3149 24.2655 37.4337 24.1317C37.5474 24.0081 37.568 23.8588 37.4802 23.7096C37.4389 23.6375 37.3769 23.5809 37.3201 23.5243C36.6951 22.922 36.0649 22.3197 35.4399 21.7123C34.8769 21.1615 34.2003 20.8887 33.41 20.8939C32.9864 20.8939 32.5577 20.8939 32.1238 20.8939V23.1125C32.4079 23.1742 32.692 23.2206 32.9606 23.3081C33.4616 23.4728 33.8697 23.7816 34.2054 24.1883C34.4999 24.5383 34.7891 24.8884 35.0835 25.2435C35.5071 25.7531 36.0546 26.0054 36.7158 26.0054C37.9968 26.0054 39.2726 26.0054 40.5536 26.0054C40.6466 26.0054 40.7447 25.9951 40.8325 25.9539C41.0081 25.8767 41.0908 25.6862 41.0443 25.4958C41.003 25.3259 40.8532 25.1972 40.6569 25.1921C40.2127 25.1818 39.7685 25.1921 39.3191 25.1869C39.2364 25.1869 39.1538 25.1818 39.0763 25.1612C38.8955 25.1148 38.7871 24.9656 38.7974 24.7854C38.8077 24.6052 38.9368 24.4457 39.1176 24.4405C39.6961 24.4302 40.2798 24.4045 40.8532 24.4508C41.4317 24.5023 41.8501 25.0634 41.8242 25.6502C41.7984 26.237 41.3439 26.7157 40.7654 26.7569C40.5484 26.7724 40.3315 26.7672 40.1145 26.7672C38.9988 26.7672 37.8883 26.7672 36.7726 26.7672C35.8273 26.7724 35.0577 26.4172 34.4585 25.6862C34.1745 25.3362 33.88 24.9913 33.5908 24.6464C33.2292 24.2192 32.7747 23.9721 32.2168 23.9103C32.1032 23.9 32.036 23.9103 31.974 24.0236C31.8242 24.2861 31.5918 24.4508 31.287 24.4766C31.0856 24.4971 30.879 24.492 30.6827 24.4663C30.4864 24.4405 30.3831 24.2707 30.3986 24.0802C30.4141 23.9 30.5433 23.761 30.7292 23.7456C30.8377 23.7353 30.9461 23.7405 31.0546 23.7405C31.2922 23.7405 31.3542 23.6838 31.3542 23.4522C31.3542 22.4999 31.3542 21.5476 31.3542 20.6005C31.3542 20.3843 31.2974 20.3276 31.0856 20.3225C30.6466 20.3225 30.2127 20.3225 29.753 20.3225H29.7375Z" fill="#EF4444" />
	<path d="M38.7302 16.992C39.0194 16.8376 39.2674 16.6626 39.5411 16.5699C40.5793 16.2199 41.7002 16.9611 41.8087 18.0524C41.8758 18.701 41.6486 19.2312 41.1372 19.6379C40.4605 20.1784 39.7839 20.7137 39.1072 21.2491C38.8386 21.4601 38.7043 21.4601 38.4306 21.2491C37.7591 20.7189 37.0824 20.1887 36.411 19.6533C35.6827 19.0716 35.507 18.1657 35.9616 17.3524C36.4781 16.4361 37.8056 16.1993 38.601 16.8891C38.6527 16.9354 38.7043 16.9766 38.725 16.992H38.7302ZM38.7715 20.5438C39.443 20.0085 40.1196 19.4834 40.7808 18.9378C40.9977 18.7576 41.0804 18.4797 41.0597 18.1966C41.0236 17.7178 40.7033 17.3575 40.2488 17.2649C39.7994 17.1773 39.381 17.3781 39.1537 17.8053C39.0659 17.9701 38.9626 18.0936 38.7663 18.0936C38.5804 18.0936 38.4719 17.9752 38.3893 17.8156C38.1878 17.4244 37.8572 17.2237 37.413 17.2494C36.9843 17.2752 36.6434 17.548 36.5246 17.9443C36.3955 18.3767 36.5091 18.7525 36.8603 19.0356C37.4853 19.5452 38.1258 20.0394 38.7663 20.5438H38.7715Z" fill="#EF4444" />
	<path d="M43.8284 21.1204C43.8284 21.3314 43.6734 21.4961 43.4616 21.5013C43.2498 21.5013 43.0742 21.3263 43.0742 21.1152C43.0742 20.9145 43.255 20.7394 43.4565 20.7446C43.6631 20.7446 43.8284 20.9145 43.8284 21.1204Z" fill="#EF4444" />
	<path d="M37.8314 13.3167C37.8314 13.5174 37.6558 13.6925 37.4595 13.6976C37.2477 13.6976 37.0721 13.5174 37.0773 13.3064C37.0824 13.1056 37.258 12.9358 37.4647 12.9409C37.6713 12.9409 37.8366 13.1108 37.8366 13.3167H37.8314Z" fill="#EF4444" />
	<path d="M34.3554 16.0912C34.3554 16.3074 34.1797 16.4773 33.968 16.4773C33.7717 16.4773 33.5909 16.292 33.5961 16.0964C33.5961 15.8956 33.7768 15.7206 33.9731 15.7206C34.1746 15.7206 34.3502 15.8956 34.3502 16.0964L34.3554 16.0912Z" fill="#EF4444" />
	<path d="M44.5 18.9584C44.5 19.1591 44.314 19.3342 44.1178 19.329C43.9163 19.329 43.7458 19.154 43.7458 18.9532C43.7458 18.737 43.9266 18.5672 44.1332 18.5723C44.3347 18.5826 44.5051 18.7576 44.5 18.9584Z" fill="#EF4444" />
	<path d="M40.5742 23.4007C40.5742 23.1948 40.7343 23.0249 40.9409 23.0198C41.1476 23.0147 41.3232 23.1794 41.3335 23.3801C41.3438 23.586 41.1631 23.7662 40.9513 23.7765C40.755 23.7816 40.5794 23.6118 40.5742 23.4007Z" fill="#EF4444" />
	<path d="M39.4792 23.7405C39.4792 23.5397 39.6497 23.3698 39.8563 23.3647C40.0681 23.3647 40.2437 23.5397 40.2385 23.7508C40.2334 23.9515 40.0526 24.1265 39.8563 24.1214C39.6549 24.1214 39.4844 23.9412 39.4844 23.7405H39.4792Z" fill="#EF4444" />
	<path d="M36.3749 14.0888C36.1631 14.0888 36.003 13.9292 35.9978 13.7182C35.9978 13.5123 36.1786 13.3321 36.3852 13.3373C36.5918 13.3424 36.7571 13.5174 36.7519 13.7182C36.7519 13.919 36.5763 14.0888 36.3697 14.0837L36.3749 14.0888Z" fill="#EF4444" />
	<path d="M44.1434 18.1863C43.942 18.1914 43.7664 18.0215 43.756 17.8208C43.7457 17.6097 43.9213 17.4296 44.1331 17.4296C44.3346 17.4296 44.5102 17.5994 44.5102 17.8002C44.5102 18.0009 44.3449 18.1811 44.1434 18.1863Z" fill="#EF4444" />
	<path d="M33.787 18.2944C33.787 18.5003 33.6217 18.6701 33.4202 18.6753C33.2188 18.6753 33.0277 18.49 33.0328 18.2892C33.0328 18.0884 33.2136 17.9186 33.4151 17.9186C33.6217 17.9186 33.787 18.0884 33.787 18.2944Z" fill="#EF4444" />
	<path d="M43.1723 22.0521C43.1723 22.258 42.9812 22.433 42.7746 22.4227C42.568 22.4175 42.4079 22.2425 42.4182 22.0366C42.4234 21.8307 42.5938 21.6712 42.8004 21.6763C43.007 21.6763 43.1775 21.8513 43.1723 22.0521Z" fill="#EF4444" />
	<path d="M35.4192 13.9601C35.6258 13.9601 35.7911 14.1249 35.7911 14.3308C35.7911 14.5315 35.6155 14.7065 35.4192 14.7065C35.2022 14.7065 35.0369 14.5418 35.0421 14.3205C35.0421 14.1146 35.2074 13.955 35.4192 13.955V13.9601Z" fill="#EF4444" />
	<path d="M33.2035 17.1619C33.2035 16.9509 33.3739 16.7861 33.5754 16.7861C33.782 16.7861 33.9473 16.9509 33.9473 17.1619C33.9473 17.3832 33.782 17.548 33.5651 17.5428C33.3584 17.5428 33.1983 17.3678 33.2035 17.1619Z" fill="#EF4444" />
	<path d="M33.8593 19.4474C33.8593 19.6482 33.6734 19.8232 33.4822 19.818C33.2756 19.8129 33.1104 19.643 33.1104 19.4371C33.1104 19.2261 33.286 19.0562 33.5029 19.0613C33.7095 19.0665 33.8645 19.2363 33.8593 19.4474Z" fill="#EF4444" />
	<path d="M43.9264 19.6996C44.1382 19.7099 44.2931 19.8798 44.2828 20.0857C44.2725 20.3019 44.0969 20.4563 43.8799 20.4409C43.6836 20.4254 43.5235 20.2556 43.5287 20.0651C43.5339 19.8489 43.7095 19.6893 43.9264 19.6996Z" fill="#EF4444" />
	<path d="M34.975 15.1389C34.975 15.3551 34.8046 15.5198 34.5877 15.5147C34.3965 15.5147 34.2312 15.3397 34.2261 15.1441C34.2261 14.9279 34.3965 14.758 34.6083 14.758C34.8149 14.758 34.975 14.9279 34.975 15.1338V15.1389Z" fill="#EF4444" />
	<path d="M42.3149 22.8396C42.3097 23.0404 42.1289 23.2103 41.9275 23.2051C41.7157 23.2051 41.5556 23.0198 41.5659 22.8036C41.5762 22.5977 41.7467 22.4433 41.9585 22.4536C42.1651 22.4639 42.32 22.6337 42.3149 22.8396Z" fill="#EF4444" />
	<path d="M29.7323 24.1214C29.7271 24.3221 29.5464 24.492 29.3449 24.492C29.1435 24.492 28.9678 24.3067 28.973 24.1111C28.973 23.9103 29.1538 23.7404 29.3604 23.7456C29.5619 23.7456 29.7375 23.9258 29.7323 24.1265V24.1214Z" fill="#EF4444" />
	<path d="M20.7671 38.6066V32.8413H21.8415V38.6066H20.7671ZM17.0564 38.6066V32.8413H18.1308V38.6066H17.0564ZM17.5027 36.2346V35.2298H21.2878V36.2346H17.5027ZM25.2594 38.6889C24.8023 38.6889 24.3973 38.5927 24.0445 38.4007C23.6974 38.2087 23.4247 37.9477 23.2263 37.6182C23.0337 37.2831 22.9371 36.9017 22.9371 36.4734C22.9371 36.1332 22.9923 35.8228 23.1024 35.5427C23.2129 35.2627 23.3642 35.0211 23.5569 34.818C23.7553 34.6093 23.9898 34.4501 24.2594 34.3403C24.5352 34.225 24.8353 34.1673 25.1602 34.1673C25.4469 34.1673 25.7139 34.2222 25.9619 34.332C26.2098 34.4418 26.4247 34.5929 26.6065 34.785C26.7883 34.9717 26.9262 35.1968 27.0197 35.4604C27.1189 35.7183 27.1659 36.0014 27.1602 36.3087L27.152 36.6628H23.623L23.4329 35.971H26.3007L26.1685 36.111V35.9298C26.152 35.7595 26.0972 35.6112 26.0032 35.4851C25.9097 35.3533 25.7883 35.2518 25.6396 35.1804C25.4965 35.1035 25.3369 35.0651 25.1602 35.0651C24.8906 35.0651 24.6618 35.1172 24.4743 35.2215C24.2924 35.3259 24.1551 35.4769 24.061 35.6745C23.9676 35.8665 23.9205 36.1085 23.9205 36.3993C23.9205 36.6793 23.9784 36.9238 24.0941 37.1323C24.2155 37.3408 24.3834 37.5029 24.5982 37.6182C24.8188 37.7279 25.075 37.783 25.3668 37.783C25.5709 37.783 25.7584 37.75 25.9288 37.6841C26.0998 37.6182 26.2842 37.5003 26.4825 37.33L26.9867 38.03C26.8379 38.1675 26.6675 38.2854 26.4743 38.3842C26.2873 38.4774 26.0889 38.5515 25.8792 38.6066C25.67 38.6616 25.4634 38.6889 25.2594 38.6889ZM29.7052 38.6889C29.3472 38.6889 29.0223 38.5901 28.73 38.3924C28.4381 38.1948 28.2041 37.9255 28.0275 37.5853C27.8513 37.245 27.763 36.8579 27.763 36.424C27.763 35.9901 27.8513 35.603 28.0275 35.2627C28.2041 34.9223 28.4438 34.656 28.7465 34.4638C29.0497 34.2717 29.3911 34.1756 29.7713 34.1756C29.9918 34.1756 30.1928 34.2085 30.3746 34.2744C30.5564 34.3348 30.7165 34.4226 30.8539 34.5379C30.9918 34.6532 31.1049 34.785 31.1928 34.9333C31.2868 35.0815 31.3498 35.2407 31.3828 35.411L31.1597 35.3533V34.2662H32.1845V38.6066H31.1514V37.5688L31.3911 37.5276C31.3529 37.6759 31.2811 37.8216 31.1762 37.9641C31.0771 38.1016 30.9505 38.2251 30.7961 38.3348C30.6473 38.4393 30.4794 38.5242 30.2919 38.5901C30.1101 38.656 29.9149 38.6889 29.7052 38.6889ZM29.9861 37.7912C30.2232 37.7912 30.4324 37.7335 30.6142 37.6182C30.7961 37.5029 30.9366 37.3439 31.0357 37.1405C31.1406 36.9321 31.1928 36.6932 31.1928 36.424C31.1928 36.1604 31.1406 35.9273 31.0357 35.7239C30.9366 35.5206 30.7961 35.3615 30.6142 35.2462C30.4324 35.1309 30.2232 35.0733 29.9861 35.0733C29.7496 35.0733 29.5399 35.1309 29.3581 35.2462C29.1819 35.3615 29.044 35.5206 28.9448 35.7239C28.8457 35.9273 28.7961 36.1604 28.7961 36.424C28.7961 36.6932 28.8457 36.9321 28.9448 37.1405C29.044 37.3439 29.1819 37.5029 29.3581 37.6182C29.5399 37.7335 29.7496 37.7912 29.9861 37.7912ZM33.3715 38.6066V32.5119H34.3963V38.6066H33.3715ZM36.0378 38.6066V33.1625H37.0543V38.6066H36.0378ZM35.1783 35.2051V34.2662H38.0047V35.2051H35.1783ZM38.7785 38.6066V32.5119H39.7868V35.1556L39.5967 35.2545C39.652 35.0568 39.7594 34.8783 39.919 34.7191C40.0791 34.5544 40.2692 34.4226 40.4892 34.3238C40.7098 34.225 40.9355 34.1756 41.1669 34.1756C41.4975 34.1756 41.7733 34.2414 41.9934 34.3732C42.2196 34.505 42.3875 34.7027 42.4975 34.9662C42.6132 35.2298 42.6711 35.5592 42.6711 35.9545V38.6066H41.6545V36.0287C41.6545 35.8089 41.6246 35.6277 41.5636 35.4851C41.5032 35.3368 41.4097 35.2298 41.2826 35.1639C41.1561 35.0925 41.0016 35.0595 40.8198 35.0651C40.6711 35.0651 40.5337 35.0898 40.4066 35.1392C40.2857 35.1831 40.1783 35.249 40.0843 35.3368C39.9965 35.4192 39.9247 35.5153 39.8694 35.6251C39.8198 35.7347 39.795 35.8557 39.795 35.9875V38.6066H39.2909C39.1917 38.6066 39.0982 38.6066 39.0099 38.6066C38.9273 38.6066 38.8503 38.6066 38.7785 38.6066ZM45.6824 38.6889C45.2749 38.6889 44.9087 38.5901 44.5833 38.3924C44.2584 38.1948 44.0022 37.9255 43.8147 37.5853C43.6277 37.245 43.5337 36.8605 43.5337 36.4322C43.5337 36.004 43.6277 35.6194 43.8147 35.2792C44.0022 34.9388 44.2584 34.6697 44.5833 34.4721C44.9087 34.2744 45.2749 34.1756 45.6824 34.1756C46.074 34.1756 46.4293 34.2497 46.7485 34.3979C47.0683 34.5462 47.3162 34.7521 47.4923 35.0156L46.9304 35.691C46.8477 35.5757 46.7434 35.4713 46.6163 35.378C46.4898 35.2847 46.3549 35.2106 46.2114 35.1556C46.0683 35.1007 45.9252 35.0733 45.7816 35.0733C45.5394 35.0733 45.3219 35.1337 45.1287 35.2545C44.9417 35.3698 44.793 35.5319 44.6824 35.7404C44.5724 35.9437 44.5171 36.1743 44.5171 36.4322C44.5171 36.6901 44.5724 36.9207 44.6824 37.1241C44.7981 37.3274 44.9526 37.489 45.1452 37.61C45.3384 37.731 45.5533 37.7912 45.7899 37.7912C45.9335 37.7912 46.0709 37.7691 46.2031 37.7253C46.341 37.6759 46.4707 37.6074 46.5915 37.5194C46.7129 37.4314 46.826 37.3217 46.9304 37.19L47.4923 37.8735C47.3054 38.115 47.0461 38.3126 46.7155 38.4665C46.3906 38.6148 46.0461 38.6889 45.6824 38.6889ZM49.9144 38.6889C49.5564 38.6889 49.2315 38.5901 48.9391 38.3924C48.6473 38.1948 48.4133 37.9255 48.2367 37.5853C48.0605 37.245 47.9722 36.8579 47.9722 36.424C47.9722 35.9901 48.0605 35.603 48.2367 35.2627C48.4133 34.9223 48.653 34.656 48.9557 34.4638C49.2589 34.2717 49.6003 34.1756 49.9805 34.1756C50.201 34.1756 50.402 34.2085 50.5838 34.2744C50.7656 34.3348 50.9257 34.4226 51.0631 34.5379C51.201 34.6532 51.3141 34.785 51.402 34.9333C51.496 35.0815 51.559 35.2407 51.592 35.411L51.3689 35.3533V34.2662H52.3937V38.6066H51.3606V37.5688L51.6003 37.5276C51.5621 37.6759 51.4903 37.8216 51.3854 37.9641C51.2863 38.1016 51.1597 38.2251 51.0053 38.3348C50.8565 38.4393 50.6886 38.5242 50.5011 38.5901C50.3193 38.656 50.1241 38.6889 49.9144 38.6889ZM50.1953 37.7912C50.4324 37.7912 50.6416 37.7335 50.8234 37.6182C51.0053 37.5029 51.1458 37.3439 51.2449 37.1405C51.3498 36.9321 51.402 36.6932 51.402 36.424C51.402 36.1604 51.3498 35.9273 51.2449 35.7239C51.1458 35.5206 51.0053 35.3615 50.8234 35.2462C50.6416 35.1309 50.4324 35.0733 50.1953 35.0733C49.9588 35.0733 49.7491 35.1309 49.5672 35.2462C49.3911 35.3615 49.2532 35.5206 49.154 35.7239C49.0548 35.9273 49.0053 36.1604 49.0053 36.424C49.0053 36.6932 49.0548 36.9321 49.154 37.1405C49.2532 37.3439 49.3911 37.5029 49.5672 37.6182C49.7491 37.7335 49.9588 37.7912 50.1953 37.7912ZM53.5724 38.6066V34.2662H54.5724L54.5889 35.6498L54.4484 35.3368C54.5089 35.1172 54.6137 34.9195 54.7625 34.7438C54.9113 34.5682 55.0822 34.4309 55.2749 34.332C55.4732 34.2277 55.6799 34.1756 55.8947 34.1756C55.9882 34.1756 56.0765 34.1838 56.1592 34.2003C56.2475 34.2167 56.3188 34.2359 56.3741 34.2579L56.1013 35.3698C56.0409 35.3368 55.9665 35.3094 55.8782 35.2874C55.7899 35.2654 55.7021 35.2545 55.6137 35.2545C55.4758 35.2545 55.3436 35.2819 55.217 35.3368C55.0956 35.3863 54.9882 35.4577 54.8947 35.551C54.8012 35.6441 54.7268 35.7543 54.6716 35.8804C54.622 36.0014 54.5972 36.1383 54.5972 36.2922V38.6066H53.5724ZM58.9066 38.6889C58.4495 38.6889 58.0445 38.5927 57.6917 38.4007C57.3446 38.2087 57.0719 37.9477 56.8735 37.6182C56.6809 37.2831 56.5843 36.9017 56.5843 36.4734C56.5843 36.1332 56.6396 35.8228 56.7496 35.5427C56.8596 35.2627 57.0115 35.0211 57.2041 34.818C57.4025 34.6093 57.6365 34.4501 57.9066 34.3403C58.1819 34.225 58.4825 34.1673 58.8074 34.1673C59.0941 34.1673 59.3611 34.2222 59.6091 34.332C59.857 34.4418 60.0719 34.5929 60.2537 34.785C60.4355 34.9717 60.5734 35.1968 60.6669 35.4604C60.7661 35.7183 60.8131 36.0014 60.8074 36.3087L60.7992 36.6628H57.2702L57.0802 35.971H59.9479L59.8157 36.111V35.9298C59.7992 35.7595 59.7439 35.6112 59.6504 35.4851C59.5569 35.3533 59.4355 35.2518 59.2868 35.1804C59.1437 35.1035 58.9836 35.0651 58.8074 35.0651C58.5373 35.0651 58.309 35.1172 58.1215 35.2215C57.9397 35.3259 57.8017 35.4769 57.7083 35.6745C57.6148 35.8665 57.5678 36.1085 57.5678 36.3993C57.5678 36.6793 57.6256 36.9238 57.7413 37.1323C57.8627 37.3408 58.0306 37.5029 58.2454 37.6182C58.466 37.7279 58.7222 37.783 59.014 37.783C59.2181 37.783 59.4051 37.75 59.576 37.6841C59.747 37.6182 59.9314 37.5003 60.1297 37.33L60.6339 38.03C60.4851 38.1675 60.3141 38.2854 60.1215 38.3842C59.934 38.4774 59.7356 38.5515 59.5264 38.6066C59.3172 38.6616 59.1106 38.6889 58.9066 38.6889Z" fill="#EF4444" />
</svg>
