<svg width="18" height="17" viewBox="0 0 18 17" fill="none" xmlns="http://www.w3.org/2000/svg">
	<path d="M17.0459 3.9765V3.65736C16.9426 3.28674 16.7309 3.00877 16.3383 2.88523C16.4313 2.61241 16.4261 2.34987 16.3021 2.10279C16.1782 1.85056 15.9716 1.691 15.734 1.61379C15.734 1.41303 15.7598 1.22257 15.7288 1.04241C15.6616 0.676932 15.424 0.445288 15.0728 0.321747C15.0315 0.306305 14.9953 0.296008 14.954 0.280566H10.9509C10.6978 0.326894 10.4395 0.347486 10.1968 0.419552C9.81454 0.537945 9.4478 0.702665 9.07073 0.836501C8.9571 0.877682 8.8383 0.913716 8.7195 0.918864C7.70193 0.924011 6.67921 0.918864 5.66165 0.918864C5.44987 0.918864 5.23809 0.939453 5.00565 0.949748C4.89202 0.594567 4.61826 0.378372 4.24119 0.275421H3.92094C3.54387 0.378372 3.27012 0.594572 3.15131 0.970342C2.47983 0.836506 2.12858 1.01667 1.86516 1.58805C1.66887 1.58805 1.4726 1.56231 1.28665 1.59319C0.84243 1.67555 0.527342 2.05647 0.522177 2.49916C0.522177 3.73972 0.506686 4.97513 0.527347 6.21569C0.537678 6.92605 0.754619 7.59523 1.07487 8.22838C1.12652 8.33133 1.15751 8.46001 1.15751 8.57841C1.16268 9.59762 1.15751 10.6168 1.15751 11.6309C1.15751 11.8419 1.17817 12.053 1.1885 12.2795C0.780446 12.4391 0.517017 12.7479 0.527347 13.2266C0.537678 13.6848 0.795943 13.9782 1.22983 14.1429C1.13685 14.4106 1.14202 14.6731 1.27115 14.9202C1.39512 15.1724 1.60689 15.332 1.87549 15.4246C1.76702 15.7541 1.79284 16.0578 1.99429 16.3358C2.17507 16.5931 2.43334 16.727 2.74842 16.7424C3.01185 16.7527 3.27528 16.7475 3.53871 16.7424C3.74532 16.7424 3.88478 16.6034 3.87961 16.4181C3.87961 16.2379 3.74015 16.1093 3.54387 16.1041C3.30627 16.1041 3.06867 16.1041 2.83623 16.1041C2.61412 16.1041 2.4695 15.9806 2.46433 15.7901C2.46433 15.5945 2.60896 15.4658 2.84139 15.4607C3.02734 15.4607 3.21846 15.4607 3.40441 15.4607C3.61102 15.4607 3.75565 15.3217 3.75048 15.1364C3.75048 14.9511 3.60586 14.8172 3.39925 14.8172C3.00152 14.8172 2.60379 14.8172 2.20607 14.8172C1.9633 14.8172 1.8135 14.6885 1.81867 14.4878C1.81867 14.2922 1.96846 14.1738 2.20607 14.1738C2.59346 14.1738 2.98086 14.1738 3.36826 14.1738C3.60069 14.1738 3.75048 14.0502 3.75048 13.8546C3.75048 13.659 3.60586 13.5355 3.36826 13.5303C2.75875 13.5303 2.15441 13.5303 1.54491 13.5303C1.38479 13.5303 1.26081 13.4789 1.19367 13.3244C1.10069 13.1031 1.26081 12.8869 1.52424 12.8869C2.11825 12.8869 2.7071 12.8869 3.3011 12.8869C3.59553 12.8869 3.75048 12.7788 3.75048 12.5678C3.75048 12.3567 3.59552 12.2435 3.30627 12.2435C2.9447 12.2435 2.58313 12.2435 2.22672 12.2435C1.96846 12.2435 1.8135 12.1199 1.81867 11.9192C1.81867 11.7184 1.96846 11.6052 2.22156 11.6C3.22879 11.6 4.23086 11.6 5.23809 11.6C5.59449 11.6 5.68747 11.5074 5.68747 11.1522C5.68747 11.0956 5.68747 11.0338 5.68747 10.972C6.5759 10.9102 7.4385 10.9154 8.05834 11.6927C8.13582 11.7905 8.20813 11.8883 8.26495 12.0015C8.35276 12.1868 8.49222 12.2486 8.69367 12.2486C9.47879 12.2435 10.2639 12.2486 11.049 12.2486H11.2505V15.4658H11.1162C10.7804 15.4658 10.4499 15.4813 10.1141 15.4658C9.54594 15.4401 9.00875 15.4967 8.48705 15.7798C7.99635 16.0475 7.4385 16.1144 6.87548 16.1144C6.73602 16.1144 6.59656 16.1144 6.4571 16.1144C6.27115 16.1247 6.14201 16.2585 6.14201 16.4336C6.14201 16.6086 6.27115 16.7476 6.4571 16.7527C7.27838 16.7887 8.08416 16.7012 8.82796 16.3358C9.18437 16.1607 9.53561 16.0938 9.92301 16.1041C10.6307 16.1196 11.3435 16.1093 12.0511 16.1041C12.2164 16.1041 12.3817 16.0835 12.5625 16.0681C12.7174 16.4747 13.017 16.7424 13.4922 16.7424C13.9674 16.7424 14.2722 16.4799 14.4323 16.0526C15.0935 16.1865 15.4499 16.0063 15.7185 15.4246C15.8786 15.4349 16.0439 15.471 16.1988 15.4504C16.5966 15.3989 16.8652 15.1724 16.9995 14.7915C17.0149 14.7452 17.0304 14.6988 17.0459 14.6577V10.5396C17.0098 10.3698 16.9891 10.1947 16.9323 10.03C16.7877 9.60792 16.6224 9.19096 16.4726 8.76886C16.4416 8.67621 16.4054 8.57841 16.4054 8.4806C16.4054 7.4408 16.4054 6.401 16.4054 5.36635C16.4054 5.16559 16.3848 4.96483 16.3744 4.74348C16.736 4.63024 16.9478 4.35743 17.0511 3.98166L17.0459 3.9765ZM5.28974 7.98644C5.10379 8.08939 5.03148 8.21807 5.03664 8.42397C5.04181 9.25787 5.03664 10.0969 5.03664 10.9617H1.8135V10.8227C1.8135 10.0249 1.8135 9.22699 1.8135 8.42912C1.8135 8.31073 1.78768 8.18205 1.73086 8.0791C1.3228 7.3327 1.14718 6.53484 1.16784 5.68549C1.1885 4.67657 1.16784 3.67281 1.16784 2.66389C1.16784 2.62271 1.16784 2.57638 1.16784 2.5352C1.17817 2.34474 1.31763 2.20575 1.49325 2.2109C1.66371 2.2109 1.80317 2.34474 1.80834 2.53005C1.8135 2.70506 1.80834 2.88523 1.80834 3.06024C1.80834 3.33821 1.92197 3.48749 2.12858 3.49263C2.33519 3.49263 2.454 3.34335 2.454 3.07053C2.454 2.69476 2.454 2.31899 2.454 1.94322C2.454 1.71158 2.58313 1.5623 2.77941 1.56745C2.97569 1.56745 3.09966 1.71673 3.09966 1.94837C3.09966 2.33444 3.09966 2.7205 3.09966 3.10657C3.09966 3.34336 3.21846 3.48749 3.41474 3.49263C3.61619 3.49263 3.74532 3.3485 3.74532 3.10142C3.74532 2.48886 3.74532 1.88145 3.74532 1.26889C3.74532 1.06299 3.87962 0.918864 4.06557 0.918864C4.25152 0.918864 4.38065 1.05785 4.39098 1.26375C4.39098 1.29978 4.39098 1.34096 4.39098 1.37699V3.01905C4.39098 3.05509 4.39098 3.09627 4.39098 3.1323C4.39098 3.3485 4.53044 3.49263 4.72156 3.49263C4.90751 3.49263 5.03664 3.3485 5.03664 3.13745C5.03664 2.72565 5.03664 2.31385 5.03664 1.90205C5.03664 1.71673 5.15545 1.58804 5.32073 1.56745C5.48086 1.54686 5.63065 1.65497 5.66681 1.81454C5.67714 1.86601 5.67714 1.92263 5.67714 1.9741C5.67714 2.32928 5.67714 2.67932 5.67714 3.0345C5.67714 3.67794 5.67714 4.32138 5.67714 4.96482C5.67714 5.3303 5.77011 5.42296 6.13168 5.42296C6.1885 5.42296 6.24532 5.42296 6.34346 5.42296C6.3228 5.83991 6.34346 6.23628 6.28148 6.6172C6.17817 7.22461 5.8321 7.68789 5.28974 7.98644ZM10.5893 11.6H10.4292C9.92817 11.6 9.42713 11.6 8.93127 11.6C8.83313 11.6 8.77115 11.5743 8.70916 11.4868C8.18747 10.7249 7.45399 10.3389 6.53457 10.3131C6.26081 10.3028 5.98705 10.3131 5.70296 10.3131C5.70296 10.2668 5.69264 10.2256 5.69264 10.1844C5.69264 9.66968 5.69264 9.15493 5.69264 8.64018C5.69264 8.54237 5.72879 8.4909 5.80627 8.43428C6.57074 7.90923 6.9633 7.17313 6.98396 6.24657C6.98912 5.9789 6.98396 5.71122 6.98396 5.42296H7.14408C7.64511 5.42296 8.14614 5.42296 8.64201 5.42296C8.74015 5.42296 8.80214 5.4487 8.86412 5.53621C9.38582 6.29805 10.1193 6.68411 11.0387 6.70985C11.3125 6.72014 11.5862 6.70985 11.8807 6.70985C11.8807 7.30182 11.8807 7.87319 11.8807 8.44457C11.8807 8.48575 11.8342 8.53722 11.798 8.5681C10.9819 9.11889 10.5945 9.89617 10.5945 10.8691C10.5945 11.1058 10.5945 11.3375 10.5945 11.6H10.5893ZM16.4054 11.3993C16.3848 12.4082 16.4054 13.412 16.3951 14.4209C16.3951 14.529 16.3435 14.6731 16.266 14.74C16.1988 14.7966 16.0542 14.8018 15.9561 14.7812C15.8269 14.7503 15.7598 14.6319 15.7598 14.4981C15.7598 14.3025 15.7598 14.1017 15.7598 13.901C15.7598 13.6693 15.6255 13.5252 15.4292 13.5303C15.2381 13.5303 15.1141 13.6796 15.1141 13.901C15.1141 14.2922 15.1141 14.6834 15.1141 15.0746C15.1141 15.3114 14.9902 15.4555 14.7939 15.4555C14.5976 15.4555 14.4685 15.3114 14.4685 15.0798C14.4685 14.6988 14.4685 14.3179 14.4685 13.937C14.4685 13.6796 14.3445 13.5252 14.143 13.5303C13.9416 13.5303 13.8228 13.6796 13.8228 13.9318C13.8228 14.5341 13.8228 15.1312 13.8228 15.7335C13.8228 15.9548 13.6937 16.099 13.5077 16.1041C13.3166 16.1041 13.1823 15.96 13.1823 15.7438C13.1823 15.1415 13.1823 14.5444 13.1823 13.9421C13.1823 13.8907 13.1823 13.834 13.172 13.7826C13.1358 13.623 12.986 13.5149 12.8259 13.5303C12.6606 13.5458 12.5418 13.6796 12.5366 13.8598C12.5366 14.2459 12.5366 14.6319 12.5366 15.018C12.5366 15.0643 12.5366 15.1158 12.5366 15.1621C12.516 15.332 12.3765 15.4607 12.2061 15.4555C12.0459 15.4555 11.9116 15.3268 11.8961 15.1621C11.891 15.1106 11.8961 15.054 11.8961 15.0025C11.8961 14.0142 11.8961 13.031 11.8961 12.0427C11.8961 11.6875 11.8032 11.5949 11.4468 11.5949C11.3899 11.5949 11.328 11.5949 11.2195 11.5949C11.2505 11.147 11.2402 10.7146 11.3176 10.2977C11.4209 9.7366 11.767 9.31966 12.268 9.04684C12.4592 8.94388 12.547 8.81004 12.5418 8.5887C12.5315 7.81142 12.5418 7.03414 12.5418 6.25686V6.05612H15.7701V6.49364C15.7701 7.19371 15.7701 7.89894 15.7701 8.599C15.7701 8.7071 15.7908 8.82548 15.8424 8.92328C16.266 9.69542 16.4364 10.519 16.4158 11.3941L16.4054 11.3993ZM16.3435 3.98166C16.2918 4.11035 16.1575 4.14123 16.018 4.14123C15.4085 4.14123 14.8042 4.14123 14.1947 4.14123C14.0294 4.14123 13.9003 4.19785 13.8383 4.36257C13.7608 4.57362 13.9158 4.78467 14.1585 4.78467C14.5718 4.78467 14.985 4.78467 15.3982 4.78467C15.6255 4.78467 15.7804 4.94939 15.7495 5.15014C15.7236 5.32001 15.5893 5.42297 15.3879 5.42811C14.8507 5.42811 14.3135 5.42811 13.7763 5.42811C13.2804 5.42811 12.7846 5.42811 12.2939 5.42811C11.9943 5.42811 11.8807 5.5362 11.8807 5.83476C11.8807 5.90683 11.8807 5.98405 11.8807 6.07156C11.2866 6.06641 10.6978 6.14361 10.1503 5.8502C9.79387 5.65974 9.50462 5.40751 9.3135 5.04719C9.2102 4.85158 9.07074 4.77952 8.84863 4.77952C8.07383 4.78981 7.29904 4.77952 6.52425 4.77952H6.31763V1.56231C6.89614 1.56231 7.50048 1.54171 8.09965 1.56745C8.68333 1.59319 9.22569 1.52112 9.75772 1.23801C10.2019 1.00122 10.703 0.924008 11.2092 0.924008C12.3817 0.918861 13.5542 0.924008 14.7267 0.924008C14.9592 0.924008 15.1038 1.05784 15.1038 1.25345C15.1038 1.44391 14.954 1.56745 14.7319 1.56745C14.5511 1.56745 14.3652 1.56745 14.1844 1.56745C13.9623 1.56745 13.8176 1.69615 13.8176 1.8866C13.8176 2.07706 13.9623 2.2109 14.1792 2.2109C14.5718 2.2109 14.9643 2.2109 15.3569 2.2109C15.6048 2.2109 15.7546 2.33445 15.7495 2.5352C15.7495 2.73595 15.5997 2.85434 15.3466 2.85434C14.9643 2.85434 14.5821 2.85434 14.1999 2.85434C13.9623 2.85434 13.8176 2.97273 13.8125 3.16834C13.8125 3.36909 13.9571 3.49779 14.205 3.49779C14.8197 3.49779 15.4292 3.49779 16.0439 3.49779C16.1782 3.49779 16.3021 3.54411 16.3435 3.66765C16.3745 3.7603 16.3744 3.889 16.3331 3.98166H16.3435Z" fill="#0EA5E9" />
</svg>
