<svg width="17" height="18" viewBox="0 0 17 18" fill="none" xmlns="http://www.w3.org/2000/svg">
	<path d="M7.42393 17.2426C7.11917 17.1654 6.79892 17.1242 6.50966 17.011C5.239 16.5014 4.48485 15.5697 4.26791 14.2107C4.26274 14.1644 4.24726 14.1181 4.24209 14.0975C3.93734 14.1541 3.64292 14.2365 3.34333 14.2673C2.20181 14.3754 1.06027 13.4489 0.884651 12.3113C0.791676 11.6987 0.910485 11.1428 1.21524 10.6177C2.02102 9.22276 2.8268 7.83292 3.63259 6.43793C4.12329 5.58859 4.8361 5.12532 5.82784 5.12532C5.8485 5.12532 5.86915 5.12531 5.91564 5.11502C5.91564 5.05325 5.91564 4.99148 5.91564 4.92971C5.91564 4.01344 5.91564 3.09718 5.91564 2.18607C5.91564 1.71249 6.07061 1.30584 6.4735 1.03817C6.65945 0.909478 6.8919 0.858001 7.10368 0.770493C9.7948 0.770493 12.4859 0.770493 15.177 0.770493C15.1925 0.77564 15.208 0.785932 15.2183 0.791079C15.8537 0.883735 16.3599 1.41908 16.3599 2.18607C16.3599 4.97603 16.3599 7.76085 16.3599 10.5508C16.3599 11.1273 16.1946 11.6524 15.7968 12.0796C15.1615 12.754 14.5159 13.418 13.865 14.0769C13.4776 14.463 12.9973 14.6586 12.4497 14.6792C12.0675 14.6894 11.6904 14.6894 11.3082 14.6792C11.1791 14.6792 11.1171 14.71 11.0706 14.8439C10.6781 15.966 9.90842 16.7176 8.77206 17.0831C8.54479 17.1551 8.3072 17.1911 8.07476 17.2426H7.42393ZM15.6677 11.0501C15.6832 10.8545 15.709 10.6744 15.709 10.4891C15.709 9.16099 15.709 7.83292 15.709 6.51C15.709 5.06869 15.709 3.63252 15.709 2.19121C15.709 1.70219 15.4353 1.41394 14.9652 1.41394C12.4084 1.41394 9.85161 1.41394 7.29479 1.41394C6.84541 1.41394 6.56133 1.69705 6.55616 2.14489C6.55616 3.13836 6.55616 4.13699 6.55616 5.13046C6.55616 5.21797 6.58713 5.25914 6.66461 5.29518C7.99209 5.86655 8.52412 7.32331 7.86813 8.6102C7.59954 9.14039 7.27928 9.6397 6.98486 10.1545C6.95903 10.2008 6.93321 10.2523 6.89706 10.3192C7.09334 10.2934 7.26379 10.2523 7.4394 10.2471C8.92184 10.1699 10.0376 10.7773 10.802 12.0436C10.8537 12.126 10.9053 12.1517 10.9931 12.1466C11.2152 12.1466 11.4322 12.1414 11.6543 12.1466C11.8764 12.1517 12.021 12.2855 12.0158 12.4709C12.0158 12.6613 11.8764 12.7797 11.644 12.7849C11.4735 12.7849 11.303 12.7849 11.1532 12.7849C11.1946 13.207 11.2308 13.6136 11.2721 14.0357C11.7731 14.0048 12.2948 14.0923 12.8113 13.9636C12.8113 13.4026 12.801 12.8569 12.8165 12.3113C12.8217 12.1054 12.8526 11.8892 12.9353 11.709C13.1471 11.2509 13.5396 11.0501 14.0355 11.045C14.5675 11.045 15.0944 11.045 15.6574 11.045L15.6677 11.0501ZM6.1739 10.2934C6.5768 9.58308 7.00037 8.89846 7.35677 8.18295C7.71834 7.46229 7.43942 6.54603 6.77826 6.0879C5.9105 5.48564 4.79478 5.74302 4.24209 6.66443C3.958 7.14829 3.67907 7.63731 3.40015 8.12118C3.32267 8.26016 3.24003 8.39915 3.15222 8.54843C4.15945 9.1301 5.1512 9.70148 6.16876 10.2883L6.1739 10.2934ZM2.83198 9.10951C2.47557 9.72721 2.12951 10.3295 1.77827 10.9317C1.73178 11.009 1.68529 11.0913 1.64914 11.1737C1.32889 11.8532 1.50967 12.7025 2.06752 13.1967C2.6357 13.7011 3.50862 13.7783 4.14395 13.3717C4.20077 13.3356 4.25244 13.2533 4.26277 13.1864C4.42806 12.2547 4.88776 11.498 5.64189 10.9266C5.68838 10.8906 5.72969 10.8597 5.78651 10.8185C4.78961 10.2471 3.81854 9.68604 2.82681 9.11466L2.83198 9.10951ZM8.0386 10.906V16.5683C9.12331 16.522 10.5231 15.5439 10.5954 13.8658C10.6729 12.1208 9.26794 10.9832 8.0386 10.906ZM7.37225 16.5683V10.9111C6.04477 11.045 4.85678 12.2341 4.87227 13.7577C4.88777 15.3329 6.14291 16.4551 7.37225 16.5683ZM13.4518 13.5673C14.0665 12.929 14.6502 12.3267 15.2597 11.7039C14.7845 11.7039 14.3506 11.6884 13.9115 11.709C13.6378 11.7245 13.4621 11.9355 13.457 12.2186C13.4518 12.4606 13.457 12.6973 13.457 12.9393C13.457 13.1349 13.457 13.3305 13.457 13.5673H13.4518Z" fill="#22C55E" />
	<path d="M11.1327 3.64796C11.9075 3.64796 12.6874 3.64796 13.4622 3.64796C13.4984 3.64796 13.5397 3.64796 13.5759 3.64796C13.8548 3.64796 14.0098 3.76636 14.0046 3.96712C14.0046 4.17302 13.8496 4.29141 13.5707 4.29141C11.9436 4.29141 10.3114 4.29141 8.68435 4.29141C8.6172 4.29141 8.54487 4.28626 8.47772 4.27082C8.33826 4.23479 8.24528 4.1061 8.25045 3.96196C8.25045 3.81783 8.35377 3.68914 8.49323 3.66341C8.56038 3.65311 8.63268 3.64796 8.69983 3.64796C9.51078 3.64796 10.3166 3.64796 11.1275 3.64796H11.1327Z" fill="#22C55E" />
	<path d="M10.4766 6.48427C11.0758 6.48427 11.6749 6.48427 12.2741 6.48427C12.3309 6.48427 12.3929 6.48426 12.4498 6.49456C12.5995 6.5203 12.708 6.64899 12.7132 6.79827C12.7132 6.9424 12.6305 7.06594 12.4859 7.10712C12.4239 7.12256 12.3619 7.12771 12.2948 7.12771C11.0861 7.12771 9.87743 7.12771 8.66876 7.12771C8.6326 7.12771 8.59129 7.12771 8.55514 7.12771C8.36402 7.10197 8.25037 6.96813 8.25554 6.79312C8.26071 6.6181 8.38985 6.49456 8.58613 6.48941C8.76691 6.48427 8.9477 6.48941 9.13365 6.48941C9.58303 6.48941 10.0324 6.48941 10.4818 6.48941L10.4766 6.48427Z" fill="#22C55E" />
	<path d="M11.9125 9.9537C11.3599 9.9537 10.8072 9.9537 10.2545 9.9537C10.1976 9.9537 10.1357 9.95371 10.0788 9.94341C9.92904 9.91767 9.82059 9.78898 9.81543 9.6397C9.81543 9.50072 9.90838 9.37203 10.0478 9.33085C10.1047 9.31541 10.1615 9.31026 10.2235 9.31026C11.3495 9.31026 12.4756 9.31026 13.5964 9.31026C13.6223 9.31026 13.6481 9.31026 13.6791 9.31026C13.8753 9.33085 14.0096 9.46468 14.0045 9.6397C14.0045 9.81472 13.8598 9.94855 13.6635 9.94855C13.3536 9.94855 13.0437 9.94855 12.7338 9.94855C12.46 9.94855 12.1863 9.94855 11.9125 9.94855V9.9537Z" fill="#22C55E" />
	<path d="M14.0819 6.80857C14.0819 6.97843 13.9321 7.12257 13.7617 7.12257C13.5964 7.12257 13.4466 6.97329 13.4414 6.80342C13.4414 6.6284 13.5964 6.47913 13.772 6.48428C13.9424 6.48428 14.0819 6.63355 14.0819 6.80857Z" fill="#22C55E" />
</svg>
