<svg width="17" height="17" viewBox="0 0 17 17" fill="none" xmlns="http://www.w3.org/2000/svg">
	<path d="M4.1384 5.78367C5.16629 4.80564 6.52474 5.07332 7.27887 6.02047C8.1518 5.51087 9.02473 4.99611 9.91832 4.47621C9.82535 4.35267 9.73757 4.23943 9.65492 4.12618C9.25719 3.5651 9.00924 2.95253 9.05573 2.24732C9.12288 1.09941 10.0991 0.172862 11.2252 0.193452C11.7004 0.203747 12.1136 0.383907 12.4751 0.687611C12.5268 0.728792 12.5733 0.769972 12.625 0.8163C12.9452 0.517743 13.3016 0.291254 13.7355 0.224336C14.7117 0.0647621 15.657 0.620694 16.034 1.57299C16.3078 2.26276 16.2355 2.93194 15.9152 3.58568C15.6467 4.13132 15.2644 4.58945 14.815 4.98581C14.2055 5.52116 13.5909 6.04106 12.971 6.56611C12.7283 6.77201 12.501 6.76685 12.253 6.55581C11.721 6.10282 11.1838 5.64985 10.6466 5.18657C10.6053 5.20716 10.5692 5.2226 10.533 5.24834C9.61874 5.78369 8.70448 6.31903 7.79023 6.85437C7.72308 6.89555 7.66628 6.92128 7.68178 7.02423C7.80058 7.69341 7.61463 8.30083 7.26339 8.86706C7.13942 9.06267 6.99994 9.24797 6.85531 9.45387C7.72824 9.96863 8.60637 10.4782 9.4948 11.0033C9.88736 10.5194 10.3832 10.2157 11.0134 10.1591C11.6487 10.0973 12.1704 10.3444 12.625 10.7716C12.9245 10.4885 13.2551 10.2775 13.6528 10.1951C14.5309 10.0047 15.471 10.4474 15.9101 11.2607C16.3801 12.1306 16.2665 12.9748 15.7809 13.7933C15.4452 14.3698 14.97 14.8228 14.469 15.25C13.9783 15.667 13.4927 16.0788 13.002 16.4957C12.7334 16.7222 12.5113 16.7274 12.2479 16.4957C11.5816 15.9243 10.9049 15.3581 10.2541 14.7661C9.75821 14.3132 9.37599 13.7778 9.16421 13.1292C9.04541 12.7638 9.01442 12.388 9.07124 12.0071C9.07641 11.9607 9.05573 11.8835 9.01957 11.8629C8.05883 11.2916 7.09292 10.7305 6.12185 10.1591C5.6828 10.5297 5.24893 10.9003 4.81505 11.271C4.69108 11.3739 4.57226 11.4872 4.44313 11.585C4.25718 11.7239 4.02473 11.7394 3.85428 11.585C3.05883 10.8952 2.25304 10.2157 1.49374 9.48476C0.997871 9.00604 0.672485 8.40378 0.584675 7.70371C0.409055 6.38079 1.41112 5.11451 2.81091 5.17113C3.23963 5.18657 3.61153 5.35644 3.94211 5.61896C4.00926 5.67044 4.07641 5.7322 4.1384 5.78367ZM4.12806 10.5657C4.58777 10.1745 5.02682 9.80392 5.45554 9.43329C5.60533 9.30461 5.75511 9.16561 5.89457 9.02148C6.17867 8.73322 6.42662 8.41923 6.59191 8.0486C6.78302 7.62136 6.79334 7.19411 6.5764 6.76172C6.3078 6.22638 5.45554 5.80942 4.81505 6.50434C4.71691 6.61244 4.63426 6.73598 4.55161 6.85437C4.33467 7.16322 3.93692 7.16322 3.71998 6.85437C3.60634 6.68965 3.47721 6.53522 3.33775 6.39623C3.17246 6.23666 2.96586 6.14916 2.73342 6.14401C1.99478 6.12857 1.41629 6.84923 1.55575 7.61621C1.64873 8.14641 1.9328 8.57879 2.30986 8.93912C2.89354 9.49505 3.51339 10.0201 4.12806 10.5657ZM12.6095 5.57778C12.9762 5.34099 14.3966 4.08499 14.6342 3.76585C14.7995 3.5445 14.9545 3.31286 15.0733 3.06577C15.2799 2.64367 15.2799 2.21129 15.0526 1.78404C14.7737 1.2487 13.9421 0.847193 13.3016 1.53182C13.2035 1.63477 13.1208 1.74801 13.0433 1.8664C12.8161 2.20614 12.4132 2.20614 12.1859 1.8664C12.0774 1.70683 11.9535 1.55241 11.814 1.41857C11.5867 1.21267 11.3078 1.12515 10.9979 1.18692C10.4607 1.30017 10.0681 1.74287 10.0268 2.28851C9.98548 2.82385 10.2128 3.26139 10.5279 3.65775C11.1167 4.40929 11.9173 4.92919 12.6043 5.56749L12.6095 5.57778ZM12.6198 15.5537C13.1983 15.0493 13.7613 14.5757 14.3037 14.0815C14.6291 13.783 14.8977 13.4329 15.0836 13.0263C15.2747 12.5939 15.2851 12.1718 15.0681 11.7394C14.784 11.1834 13.9266 10.7974 13.2964 11.4923C13.2035 11.5901 13.126 11.7033 13.0537 11.8166C12.8367 12.146 12.4287 12.146 12.2066 11.8166C12.0981 11.657 11.9741 11.4974 11.8347 11.3688C11.5454 11.1062 11.2045 11.0496 10.8326 11.1835C10.2696 11.3842 9.93384 12.0225 10.063 12.6351C10.1663 13.1344 10.4349 13.5565 10.7964 13.8962C11.3853 14.4573 12.0051 14.9875 12.6301 15.5434L12.6198 15.5537Z" fill="#F97316" />
</svg>
