<svg width="100" height="100" viewBox="0 0 100 100" fill="none" xmlns="http://www.w3.org/2000/svg">
	<path d="M55.7802 98.2633C71.8624 94.9009 88.4476 88.3109 95.7387 73.1371C103.194 57.622 100.292 38.6919 91.489 23.9488C83.5422 10.6403 68.4401 5.67165 53.5974 2.5631C39.0438 -0.484877 22.8775 -2.64585 11.4915 7.19471C0.20564 16.9487 -0.118118 33.6762 0.0186056 48.8694C0.156168 64.156 1.00311 80.6387 12.242 90.5941C23.9967 101.007 40.599 101.437 55.7802 98.2633Z" fill="#FEE2E2" />
	<path d="M79.76 28.21C79.76 27.5 79.53 26.97 79.04 26.47C75.19 22.64 71.35 18.79 67.51 14.94C67.16 14.59 66.81 14.27 66.4 14H32.1C31.57 14.15 31 14.13 30.5 14.45C29.12 15.33 28.47 16.61 28.39 18.21C28.35 19.08 28.38 19.94 28.39 20.81C28.39 21.23 28.22 21.4 27.8 21.4C27.05 21.4 26.3 21.4 25.55 21.4C23.05 21.4 21.55 22.58 20.99 24.97V82.63C21.2 82.73 21.15 82.96 21.21 83.12C21.85 84.88 23.35 86 25.21 86C39.45 86 53.69 86 67.92 86C70.31 86 72.11 84.15 72.14 81.75C72.15 80.79 72.16 79.83 72.14 78.87C72.14 78.5 72.25 78.4 72.61 78.41C73.45 78.44 74.3 78.41 75.14 78.41C77.99 78.41 79.74 76.67 79.74 73.83C79.74 69.22 79.74 64.62 79.74 60.01V42.81C79.74 37.94 79.74 33.08 79.75 28.21H79.76ZM76.94 36.73C76.94 38.76 76.94 40.78 76.94 42.81C76.94 43.99 76.94 45.18 76.94 46.36V60V73.65C76.94 75.16 76.52 75.59 75.04 75.59H33.3C31.84 75.59 31.4 75.15 31.4 73.72C31.4 66.24 31.4 58.77 31.4 51.29C31.4 40.37 31.4 29.45 31.4 18.53C31.4 17.38 31.9 16.81 32.95 16.81C43.32 16.81 53.7 16.81 64.07 16.8C64.47 16.8 64.58 16.91 64.57 17.31C64.54 18.51 64.52 19.7 64.57 20.89C64.6 21.49 64.42 21.61 63.85 21.6C55.65 21.58 47.46 21.58 39.26 21.59C38.06 21.59 37.53 22.06 37.52 23.19C37.51 26.07 37.51 28.95 37.52 31.84C37.52 32.88 38.06 33.4 39.09 33.4C49.09 33.4 59.09 33.4 69.09 33.4C70.12 33.4 70.65 32.88 70.68 31.85C70.7 31.13 70.71 30.4 70.68 29.67C70.66 29.26 70.81 29.17 71.19 29.17C72.92 29.19 74.66 29.2 76.39 29.17C76.89 29.17 76.95 29.35 76.94 29.77C76.92 32.09 76.94 34.41 76.94 36.73V36.73Z" fill="#0C4A6E" />
	<path d="M76.93 46.3601V60V73.6501C76.93 75.1601 76.51 75.59 75.03 75.59H33.3C31.84 75.59 31.4 75.1501 31.4 73.7201C31.4 66.2401 31.4 58.7701 31.4 51.2901C31.4 40.3701 31.4 29.45 31.4 18.53C31.4 17.38 31.9 16.81 32.95 16.81C43.32 16.81 53.7 16.81 64.07 16.8C64.47 16.8 64.58 16.91 64.57 17.31C64.54 18.51 64.52 19.7 64.57 20.89C64.6 21.49 64.42 21.61 63.85 21.6C55.65 21.58 47.46 21.58 39.26 21.59C38.06 21.59 37.53 22.06 37.52 23.19C37.51 26.07 37.51 28.95 37.52 31.84C37.52 32.88 38.06 33.4 39.09 33.4C49.09 33.4 59.09 33.4 69.09 33.4C70.12 33.4 70.65 32.88 70.68 31.85C70.7 31.13 70.71 30.4 70.68 29.67C70.66 29.26 70.81 29.17 71.19 29.17C72.92 29.19 74.66 29.2 76.39 29.17C76.89 29.17 76.95 29.35 76.94 29.77C76.92 32.09 76.94 34.41 76.94 36.73C76.94 38.76 76.94 40.78 76.94 42.81C76.94 43.99 76.94 45.1801 76.94 46.3601H76.93Z" fill="#F1F5F9" />
	<path d="M54.09 46.9099C49.13 46.9099 44.17 46.9099 39.21 46.9099C38.19 46.9099 37.59 46.4299 37.54 45.5999C37.5 44.8499 38 44.2199 38.74 44.1199C38.95 44.0899 39.16 44.0999 39.37 44.0999C49.2 44.0999 59.03 44.0999 68.86 44.0999C69.05 44.0999 69.24 44.0899 69.42 44.1099C70.14 44.1999 70.66 44.7699 70.68 45.4799C70.69 46.2199 70.16 46.8199 69.4 46.8999C69.19 46.9199 68.98 46.9099 68.77 46.9099C63.88 46.9099 58.99 46.9099 54.1 46.9099H54.09Z" fill="#0C4A6E" />
	<path d="M54.09 50.84C58.98 50.84 63.87 50.84 68.76 50.84C68.99 50.84 69.23 50.82 69.46 50.86C70.14 50.95 70.65 51.52 70.67 52.2C70.69 52.91 70.19 53.52 69.48 53.63C69.27 53.66 69.06 53.65 68.85 53.65C59.02 53.65 49.19 53.65 39.36 53.65C39.2 53.65 39.03 53.65 38.87 53.65C38.07 53.59 37.52 53 37.53 52.23C37.54 51.49 38.08 50.92 38.85 50.85C39.06 50.83 39.27 50.85 39.48 50.85C44.35 50.85 49.22 50.85 54.08 50.85L54.09 50.84Z" fill="#0C4A6E" />
	<path d="M54.09 60.4099C49.13 60.4099 44.17 60.4099 39.21 60.4099C38.19 60.4099 37.59 59.9299 37.54 59.0999C37.49 58.3499 37.99 57.7199 38.73 57.6099C38.94 57.5799 39.15 57.5899 39.36 57.5899C49.19 57.5899 59.02 57.5899 68.85 57.5899C69.04 57.5899 69.23 57.5799 69.41 57.5999C70.13 57.6799 70.66 58.2599 70.67 58.9699C70.68 59.7099 70.15 60.3099 69.4 60.3899C69.19 60.4099 68.98 60.3999 68.77 60.3999C63.88 60.3999 58.99 60.3999 54.1 60.3999L54.09 60.4099Z" fill="#0C4A6E" />
	<path d="M54.1 64.3399C58.99 64.3399 63.88 64.3399 68.77 64.3399C68.98 64.3399 69.19 64.3299 69.4 64.3499C70.13 64.4299 70.65 64.9999 70.67 65.7099C70.69 66.4499 70.16 67.0499 69.4 67.1399C69.21 67.1599 69.03 67.1499 68.84 67.1499C59.01 67.1499 49.18 67.1499 39.35 67.1499C39.16 67.1499 38.97 67.1599 38.79 67.1399C38.03 67.0499 37.51 66.4599 37.53 65.7099C37.55 64.9899 38.06 64.4299 38.79 64.3499C39 64.3299 39.21 64.3399 39.42 64.3399C44.31 64.3399 49.2 64.3399 54.09 64.3399H54.1Z" fill="#0C4A6E" />
	<path d="M56.97 40.1599C53.01 40.1599 49.05 40.1599 45.1 40.1599C44.89 40.1599 44.68 40.1699 44.47 40.1499C43.77 40.0599 43.23 39.4399 43.23 38.7499C43.23 38.0599 43.78 37.4499 44.48 37.3599C44.62 37.3399 44.76 37.3499 44.9 37.3499C52.93 37.3499 60.96 37.3499 69 37.3499C69.14 37.3499 69.28 37.3499 69.42 37.3599C70.15 37.4499 70.67 38.0099 70.68 38.7199C70.7 39.4599 70.16 40.0599 69.41 40.1499C69.2 40.1699 68.99 40.1599 68.78 40.1599C64.85 40.1599 60.91 40.1599 56.98 40.1599H56.97Z" fill="#0C4A6E" />
	<path d="M78.35 50.85C79.13 50.85 79.77 51.53 79.74 52.3C79.71 53.05 79.07 53.66 78.33 53.65C77.55 53.65 76.92 52.97 76.94 52.2C76.97 51.45 77.6 50.84 78.35 50.85Z" fill="#0C4A6E" />
	<path d="M40.32 38.74C40.32 39.52 39.68 40.17 38.9 40.16C38.15 40.15 37.54 39.53 37.53 38.77C37.53 37.98 38.16 37.34 38.94 37.35C39.69 37.36 40.31 37.98 40.31 38.74H40.32Z" fill="#0C4A6E" />
	<path d="M23.81 53.76C23.81 44.62 23.81 35.48 23.81 26.34C23.81 24.83 24.23 24.41 25.71 24.4C26.51 24.4 27.3 24.42 28.1 24.4C28.51 24.38 28.64 24.52 28.59 24.91C28.57 25.05 28.59 25.19 28.59 25.33C28.59 41.43 28.62 57.53 28.56 73.62C28.55 76.51 30.58 78.45 33.34 78.43C45.09 78.36 56.85 78.41 68.61 78.38C69.22 78.38 69.41 78.51 69.36 79.13C69.3 79.97 69.36 80.82 69.34 81.66C69.32 82.59 68.78 83.14 67.86 83.17C67.58 83.17 67.3 83.17 67.02 83.17C53.27 83.17 39.53 83.17 25.78 83.17C24.23 83.17 23.81 82.76 23.81 81.23C23.81 72.07 23.81 62.91 23.81 53.74V53.76Z" fill="#FED7AA" />
	<path d="M54.03 30.5899C49.7 30.5899 45.36 30.5799 41.03 30.6099C40.42 30.6099 40.31 30.4399 40.32 29.8699C40.36 28.2499 40.35 26.6399 40.32 25.0199C40.32 24.5499 40.41 24.3899 40.91 24.3899C48.62 24.4099 56.32 24.3999 64.03 24.3899C64.42 24.3899 64.6 24.4599 64.68 24.8799C64.98 26.5599 65.94 27.7599 67.41 28.5799C67.78 28.7899 68.1 30.1799 67.83 30.4899C67.67 30.6699 67.43 30.5699 67.23 30.5699C62.83 30.5699 58.42 30.5699 54.02 30.5699L54.03 30.5899Z" fill="#BAE6FD" />
	<path d="M67.39 18.9199C69.89 21.4199 72.34 23.8699 74.82 26.3499C73.02 26.3499 71.23 26.4199 69.45 26.3299C68.35 26.2699 67.44 25.2499 67.41 24.1599C67.36 22.4399 67.4 20.7099 67.4 18.9299L67.39 18.9199Z" fill="#FEFEFE" />
</svg>
