<svg width="100" height="100" viewBox="0 0 100 100" fill="none" xmlns="http://www.w3.org/2000/svg">
	<path d="M68.7065 3.50771C81.882 8.9693 93.8002 18.8348 98.1003 33.5727C102.516 48.7086 98.9307 65.2205 90.4747 78.1152C82.1531 90.8048 69.0197 97.8893 54.864 99.5043C39.8072 101.222 23.8371 98.8119 13.2441 86.9261C2.19272 74.5259 -2.33945 56.1722 1.15936 39.2452C4.44335 23.3575 16.7424 12.4509 30.0988 5.38436C42.3106 -1.07656 56.0255 -1.7489 68.7065 3.50771Z" fill="#FFEDD5" />
	<path d="M61.27 86.0001H58.5925C58.5588 85.7414 58.7838 85.6401 58.8963 85.4826C59.3688 84.8526 59.11 84.1551 58.345 83.9976C58.0638 83.9414 57.7825 83.9639 57.5013 83.9639C53.6763 83.9639 49.8625 83.9639 46.0375 83.9639C45.8013 83.9639 45.565 83.9639 45.34 83.9639C44.4963 83.9414 44.3613 83.8064 44.3275 82.9851C44.3275 82.7714 44.3275 82.5689 44.3275 82.3551C44.3275 79.4976 44.3275 76.6401 44.3275 73.7826C44.3275 73.4339 44.3388 73.0739 44.2488 72.7364C44.1025 72.1514 43.7538 71.8589 43.27 71.9376C42.7413 72.0164 42.5275 72.3651 42.4938 72.8714C42.4825 73.1076 42.4938 73.3439 42.4938 73.5689C42.4938 76.5951 42.4938 79.6101 42.4938 82.6364C42.4938 83.8176 42.3363 83.9751 41.155 83.9751C39.7038 83.9751 38.2525 83.9864 36.8013 83.9751C35.9238 83.9751 35.7775 83.8289 35.7775 82.9514C35.7663 79.7451 35.7775 76.5276 35.7775 73.3214C35.7775 72.8939 35.7775 72.4776 35.6313 72.0726C35.485 71.6901 35.2488 71.4201 34.8213 71.4089C34.36 71.3976 34.09 71.6789 33.9213 72.0726C33.775 72.4326 33.7975 72.8039 33.7975 73.1864C33.7975 76.3251 33.7975 79.4639 33.7975 82.6026C33.7975 82.8614 33.7975 83.1201 33.775 83.3789C33.7413 83.7276 33.55 83.9526 33.19 83.9639C31.3675 84.0201 29.5338 84.0089 27.7113 83.9639C27.3288 83.9639 27.115 83.7276 27.0925 83.3339C27.07 83.1201 27.07 82.9176 27.07 82.7039C27.07 76.2126 27.07 69.7214 27.07 63.2301C27.07 60.3839 28.1613 58.0889 30.5013 56.4239C31.1988 55.9289 31.9863 55.6251 32.7738 55.3214C34.2363 54.7589 35.6988 54.1626 37.1613 53.6001C37.4088 53.4989 37.7238 53.3301 37.9488 53.5776C38.1738 53.8251 37.9713 54.1176 37.8363 54.3539C36.43 56.7726 35.8563 59.3939 35.9238 62.1726C35.9463 62.9151 35.7213 63.4326 35.1025 63.8939C33.8313 64.8389 33.7188 66.7964 34.7763 67.9551C35.8563 69.1364 37.7013 69.1701 38.86 68.0226C40.03 66.8751 40.0638 65.0751 38.7588 64.0626C37.8588 63.3651 37.69 62.5889 37.7463 61.5764C37.9375 57.6051 39.3325 54.2414 42.5163 51.7214C42.7525 51.5301 43 51.3501 43.2925 51.2489C43.5288 51.1701 43.765 51.1476 43.945 51.3501C45.1375 52.6439 46.5663 53.6901 47.8263 54.9051C48.4675 55.5239 48.4788 55.6701 47.8375 56.2551C46.51 57.4701 45.1488 58.6626 43.7538 59.8101C42.8763 60.5301 42.4263 61.3176 42.4825 62.5101C42.5725 64.6589 42.505 66.8189 42.5163 68.9789C42.5163 69.8676 42.775 70.2726 43.3375 70.3064C43.9113 70.3289 44.3388 69.8001 44.35 68.9564C44.3725 66.9426 44.3838 64.9289 44.35 62.9151C44.3388 62.0826 44.6538 61.5201 45.2725 60.9914C48.0963 58.5614 50.9088 56.1314 53.6875 53.6451C54.5088 52.9139 55.3975 52.2614 56.1175 51.4176C56.4663 51.0126 56.86 51.2489 57.1975 51.4739C58.0863 52.0589 58.8513 52.7789 59.515 53.6001C60.0775 54.2976 60.5838 55.0289 60.955 55.8389C61.2138 56.4126 61.1238 56.5814 60.5275 56.7501C59.9425 56.9076 59.3463 57.0314 58.84 57.4139C57.895 58.1339 57.4563 59.1126 57.4338 60.2714C57.4 61.9364 57.4 63.6014 57.4338 65.2664C57.4563 66.4026 57.7713 67.4376 58.7163 68.1914C59.3125 68.6751 59.9875 68.8776 60.7413 68.8551C61.18 68.8439 61.5063 68.6189 61.5963 68.1576C61.6863 67.7076 61.4613 67.3926 61.0788 67.1901C61.0338 67.1676 61 67.1451 60.955 67.1339C59.5263 66.8751 59.2563 65.8626 59.2788 64.6251C59.3013 63.3314 59.2675 62.0489 59.29 60.7551C59.3125 59.1914 59.92 58.5951 61.4838 58.5614C62.3725 58.5501 63.2613 58.5389 64.15 58.5614C65.6013 58.5951 66.1525 59.1464 66.1525 60.5751C66.1525 62.1164 66.1525 63.6689 66.1525 65.2101C66.1525 66.3351 65.905 66.6501 64.8588 67.0101C64.7463 67.0439 64.6338 67.0776 64.5325 67.1226C64.0713 67.3251 63.835 67.6739 63.9363 68.1801C64.0375 68.6864 64.42 68.8326 64.8813 68.8439C66.3325 68.8889 67.885 67.5951 67.9638 66.0989C68.0763 63.9276 68.065 61.7451 67.9638 59.5626C67.9075 58.3026 66.9175 57.2339 65.6913 56.8964C65.4663 56.8289 65.23 56.7389 65.005 56.7614C63.6888 56.9076 63.0363 56.1876 62.6763 55.0401C62.5638 54.6576 62.2938 54.3426 62.1138 53.9939C62.035 53.8476 61.945 53.6789 62.08 53.5326C62.1925 53.3976 62.3838 53.4201 62.5413 53.4539C62.7213 53.4876 62.9013 53.5551 63.07 53.6226C64.7238 54.2976 66.3888 54.9164 68.0425 55.5801C70.1688 56.4351 71.6538 57.9651 72.5313 60.0801C72.9475 61.0926 73.0375 62.1839 73.0375 63.2526C73.06 69.7664 73.0488 76.2801 73.0375 82.7939C73.0375 83.8401 72.9138 83.9526 71.8563 83.9639C70.3825 83.9639 68.9088 83.9639 67.4238 83.9639C66.4225 83.9639 66.2988 83.8401 66.2988 82.8164C66.2988 79.5876 66.2988 76.3476 66.2988 73.1189C66.2988 72.7476 66.31 72.3651 66.1525 72.0164C65.9838 71.6451 65.725 71.3864 65.2975 71.3976C64.87 71.3976 64.6113 71.6676 64.465 72.0389C64.3075 72.4439 64.3075 72.8601 64.3075 73.2876C64.3075 76.4264 64.3075 79.5651 64.3075 82.7039C64.3075 83.8851 64.2175 83.9639 63.0138 83.9751C62.62 83.9751 62.215 83.9526 61.8213 83.9864C60.91 84.0764 60.5838 84.7514 61.0788 85.5276C61.18 85.6851 61.3375 85.7976 61.2925 86.0114L61.27 86.0001Z" fill="#5EEAD4" />
	<path d="M61.27 85.9997C60.8875 85.6622 60.4713 85.3472 60.5613 84.7397C60.6513 84.1209 61.0225 83.7722 61.6413 83.7497C62.2713 83.7159 62.9125 83.7047 63.5425 83.7497C64.0375 83.7834 64.1613 83.6147 64.1613 83.1309C64.1388 79.7559 64.1613 76.3809 64.1613 73.0059C64.1613 72.8147 64.1613 72.6347 64.1613 72.4434C64.2063 71.6109 64.6338 71.1047 65.2975 71.1047C65.95 71.1047 66.4338 71.6222 66.445 72.4322C66.4675 73.8834 66.445 75.3347 66.445 76.7972C66.445 78.9347 66.445 81.0609 66.445 83.1984C66.445 83.6147 66.5238 83.7609 66.9738 83.7609C68.7288 83.7272 70.4838 83.7272 72.25 83.7609C72.7113 83.7609 72.7788 83.6034 72.7788 83.1984C72.7788 76.4259 72.79 69.6534 72.7563 62.8809C72.745 59.5059 70.9225 56.9522 67.7613 55.7034C65.8713 54.9609 63.9925 54.2297 61.945 53.4197C62.5188 54.3309 62.9913 55.1072 63.2725 55.9734C63.4188 56.4122 63.6663 56.5247 64.105 56.5022C64.9038 56.4572 65.7025 56.5472 66.4113 56.9634C67.4688 57.5822 68.1438 58.4934 68.1663 59.7422C68.2113 61.7784 68.2338 63.8259 68.1663 65.8509C68.11 67.6172 66.6363 68.9897 64.87 69.0684C64.195 69.1022 63.7113 68.7422 63.61 68.1122C63.5088 67.5047 63.8575 67.0209 64.5325 66.8522C65.7925 66.5372 65.9388 66.3347 65.9388 65.0072C65.9388 63.4322 65.9388 61.8684 65.9388 60.2934C65.9388 59.2472 65.5 58.7859 64.4538 58.7634C63.3063 58.7409 62.1588 58.7409 61.0113 58.7634C59.9763 58.7859 59.515 59.2472 59.4925 60.2709C59.47 61.9359 59.4813 63.6009 59.4925 65.2659C59.4925 66.2334 59.8075 66.5822 60.7638 66.8072C61.5963 66.9984 61.9675 67.4709 61.8325 68.1684C61.7088 68.7984 61.1688 69.1247 60.3813 69.0347C58.5475 68.8209 57.2763 67.4484 57.2313 65.5134C57.1863 63.7134 57.1863 61.9022 57.2313 60.1022C57.2763 57.9872 58.4913 56.8397 61.0113 56.4347C60.1338 54.3759 58.7163 52.7559 56.9275 51.4622C56.6463 51.2597 56.3088 51.1022 56.1175 51.6422C56.05 51.8447 55.8138 51.9909 55.6338 52.1372C52.1125 55.2309 48.5913 58.3134 45.0475 61.3847C44.665 61.7222 44.485 62.0484 44.4963 62.5659C44.53 64.6697 44.5188 66.7847 44.4963 68.8884C44.4963 69.1697 44.4738 69.4509 44.4063 69.7209C44.2488 70.2609 43.8438 70.5422 43.3038 70.5084C42.7638 70.4747 42.3813 70.1822 42.28 69.6197C42.235 69.3947 42.2238 69.1584 42.2238 68.9222C42.2238 66.5597 42.235 64.1859 42.2238 61.8234C42.2238 61.1372 42.4488 60.6309 42.9663 60.1809C44.7438 58.6622 46.4988 57.1097 48.2875 55.5459C46.9938 54.4097 45.745 53.3184 44.5075 52.2159C44.3163 52.0472 44.0688 51.8897 43.9675 51.6759C43.7313 51.1134 43.405 51.2484 43.0563 51.5072C40.1763 53.6334 38.4888 56.4572 38.0725 60.0234C38.0163 60.5072 37.9825 61.0022 37.9713 61.4972C37.96 62.3972 37.8813 63.1959 38.8825 63.8822C40.1313 64.7372 40.21 66.4247 39.4113 67.6734C38.635 68.8997 37.0713 69.3947 35.71 68.8547C34.3713 68.3259 33.5725 66.9084 33.865 65.4459C34.0225 64.6134 34.4613 63.9159 35.2263 63.4997C35.6088 63.2859 35.7325 63.0384 35.71 62.6109C35.6088 60.1472 35.935 57.7509 36.9813 55.4897C37.2738 54.8484 37.6338 54.2297 38.05 53.4309C35.6088 54.4659 33.19 55.1184 31.0413 56.3222C28.5325 57.7284 27.295 59.9897 27.295 62.8697C27.2838 69.6422 27.295 76.4147 27.2838 83.1872C27.2838 83.6822 27.4525 83.7609 27.8913 83.7497C29.6013 83.7272 31.3113 83.7159 33.0213 83.7497C33.5275 83.7497 33.6288 83.5922 33.6288 83.1197C33.6063 79.7897 33.6288 76.4597 33.6288 73.1297C33.6288 72.9609 33.6288 72.8034 33.6288 72.6347C33.6288 71.6559 34.0675 71.0822 34.7875 71.0934C35.5075 71.0934 35.9238 71.6447 35.9238 72.6459C35.9238 76.1109 35.935 79.5872 35.9238 83.0522C35.9238 83.6034 36.0588 83.7609 36.6213 83.7497C38.2863 83.7159 39.9513 83.7047 41.6163 83.7497C42.2125 83.7609 42.2913 83.5472 42.2913 83.0297C42.2688 79.8009 42.28 76.5609 42.2913 73.3209C42.2913 73.0397 42.2913 72.7584 42.3475 72.4772C42.4488 71.9709 42.7863 71.6672 43.315 71.6222C43.8663 71.5772 44.2825 71.8134 44.4625 72.3422C44.5525 72.6234 44.5638 72.9384 44.575 73.2422C44.575 76.5272 44.5975 79.8009 44.575 83.0859C44.575 83.6147 44.71 83.7384 45.2275 83.7384C49.5138 83.7159 53.8 83.7272 58.0975 83.7384C58.9413 83.7384 59.4025 84.0759 59.4813 84.7284C59.56 85.3584 59.155 85.7072 58.6825 85.9997H25.8325C25.2025 85.6734 25 85.1334 25 84.4359C25.0113 77.2922 25 70.1372 25 62.9934C25 58.5497 27.3288 55.1747 31.4463 53.5547C34.7088 52.2722 37.9713 51.0009 41.2225 49.7184C41.38 49.6622 41.5263 49.6059 41.6838 49.5497C43.585 48.7847 43.945 48.1659 43.6975 46.1522C43.6638 45.9047 43.5288 45.7809 43.3713 45.6459C41.4813 44.0484 40.2663 42.0459 39.85 39.5934C39.7825 39.2109 39.5688 39.1547 39.2313 39.1097C37.4313 38.8734 36.1375 37.9059 35.4625 36.2409C34.7763 34.5422 35.0575 32.9334 36.2388 31.5159C36.4525 31.2572 36.5088 30.9984 36.5088 30.6947C36.5425 28.8272 36.385 26.9484 36.7338 25.0809C38.1963 17.3072 45.8688 12.4359 53.5188 14.4609C59.3688 16.0134 63.4188 21.3009 63.5088 27.5222C63.52 28.5797 63.52 29.6259 63.5088 30.6834C63.5088 31.0322 63.5988 31.2909 63.8238 31.5722C64.9713 32.9784 65.2188 34.5759 64.555 36.2409C63.8913 37.8834 62.62 38.8509 60.865 39.1097C60.4938 39.1659 60.2463 39.2109 60.1675 39.6722C59.7625 42.0234 58.615 43.9584 56.8038 45.5109C56.4438 45.8259 56.275 46.1297 56.3313 46.5797C56.3313 46.6022 56.3313 46.6247 56.3313 46.6472C56.3313 48.6947 56.3763 48.7622 58.345 49.5497C61.7763 50.8997 65.2188 52.2384 68.65 53.5997C72.6775 55.1859 75.0175 58.5384 75.0288 62.8584C75.0625 70.0809 75.0288 77.2922 75.04 84.5147C75.04 85.1897 74.8038 85.6847 74.2075 85.9997H61.27V85.9997Z" fill="#0C4A6E" />
	<path d="M58.075 34.8125C57.9737 36.2638 58.2662 38.03 57.8162 39.7625C56.8375 43.565 53.1362 46.1413 49.2437 45.7025C45.5087 45.2863 42.82 42.8338 42.0775 39.1438C41.9087 38.3225 41.9425 37.4675 41.9537 36.6238C41.9537 34.8463 41.9537 33.0575 41.9537 31.28C41.9537 30.8975 41.9762 30.7063 42.46 30.7175C46.9037 30.83 51.0212 29.6713 54.8237 27.41C55.33 27.1063 55.6337 27.1288 55.96 27.6013C56.14 27.8713 56.365 28.13 56.6237 28.3213C57.9175 29.2888 58.2887 30.5713 58.1087 32.1238C58.0187 32.9113 58.0975 33.71 58.0975 34.8125H58.075Z" fill="#FFF7ED" />
	<path d="M61.2475 28.085C61.2475 28.535 61.2588 28.9737 61.2475 29.4237C61.2475 29.615 61.3825 29.9412 60.955 29.8962C60.6625 29.8737 60.325 29.9412 60.3362 29.4574C60.3362 29.0637 60.1112 28.76 59.8412 28.4787C58.795 27.365 57.7713 26.2512 56.725 25.1375C55.9488 24.3162 55.5437 24.2712 54.5987 24.89C51.1675 27.1062 47.4213 28.3549 43.315 28.4674C42.595 28.4899 41.8638 28.3887 41.1438 28.355C40.21 28.3212 39.8163 28.5687 39.6813 29.48C39.6025 29.9637 39.3212 29.8737 39.0512 29.8962C38.6012 29.9412 38.7925 29.5924 38.7812 29.4124C38.7025 26.9825 38.8825 24.6087 40.0188 22.3812C42.2238 18.0387 47.2075 15.5525 52 16.4525C56.9163 17.375 60.6625 21.4025 61.1463 26.2625C61.2025 26.87 61.225 27.4775 61.27 28.085H61.2475V28.085Z" fill="#E2E8F0" />
	<path d="M54.0588 49.1449C54.3738 50.1349 53.7663 50.8662 52.8888 51.5412C52.0113 52.2049 51.2125 52.9699 50.4025 53.7124C50.1213 53.9712 49.9413 53.9712 49.6488 53.7124C48.535 52.6999 47.41 51.7212 46.2738 50.7312C46.06 50.5399 45.9813 50.3374 45.9813 50.0674C45.9813 49.2912 45.9813 48.5262 45.9813 47.7499C45.9813 47.3787 46.015 47.2437 46.4425 47.4012C48.8275 48.2337 51.2125 48.2337 53.5975 47.4012C54.025 47.2549 54.0813 47.3787 54.07 47.7499C54.0475 48.1437 54.07 48.5487 54.07 49.1449H54.0588Z" fill="#FFF7ED" />
	<path d="M39.6587 34.52C39.6587 35.1725 39.6475 35.825 39.6587 36.4775C39.6587 36.8262 39.5687 36.9162 39.2087 36.8262C38.1962 36.5787 37.3862 35.5887 37.3862 34.5425C37.3862 33.44 38.1962 32.4387 39.2312 32.1912C39.625 32.1012 39.6587 32.2475 39.6587 32.5625C39.6475 33.215 39.6587 33.8675 39.6587 34.52V34.52Z" fill="#FFF7ED" />
	<path d="M60.37 34.4751C60.37 33.8226 60.37 33.1701 60.37 32.5176C60.37 32.2026 60.46 32.1238 60.775 32.1913C61.7988 32.4163 62.62 33.4176 62.6425 34.5201C62.6538 35.5663 61.855 36.5676 60.8425 36.8263C60.4263 36.9276 60.3588 36.7926 60.37 36.4326C60.3813 35.7801 60.37 35.1276 60.37 34.4751V34.4751Z" fill="#FFF7ED" />
	<path d="M36.8237 66.7849C36.3737 66.7399 36.0925 66.5149 36.0812 66.0312C36.0812 65.5474 36.3625 65.2774 36.8125 65.2662C37.3075 65.2549 37.6225 65.5587 37.6112 66.0537C37.6112 66.5037 37.3075 66.7624 36.835 66.7962L36.8237 66.7849Z" fill="#F9F9F9" />
	<path d="M71 62C77.6274 62 83 56.6274 83 50C83 43.3726 77.6274 38 71 38C64.3726 38 59 43.3726 59 50C59 56.6274 64.3726 62 71 62Z" fill="#0C4A6E" />
	<path d="M71 59.51C76.2522 59.51 80.51 55.2522 80.51 50C80.51 44.7478 76.2522 40.49 71 40.49C65.7478 40.49 61.49 44.7478 61.49 50C61.49 55.2522 65.7478 59.51 71 59.51Z" fill="#86EFAC" />
	<path d="M67.04 48.2299C67.8875 49.0774 68.7275 49.9174 69.56 50.7574C69.665 50.8624 69.7175 50.8699 69.83 50.7649C71.5175 49.2274 73.2125 47.6899 74.9 46.1524C74.9975 46.0624 75.0425 46.0549 75.14 46.1599C75.56 46.6399 75.9875 47.1049 76.4225 47.5699C76.52 47.6674 76.4975 47.7124 76.4075 47.7949C74.1875 49.8049 71.975 51.8224 69.7625 53.8399C69.665 53.9299 69.6125 53.9449 69.5075 53.8399C68.2025 52.5274 66.8975 51.2224 65.5925 49.9249C65.495 49.8274 65.495 49.7824 65.5925 49.6849C66.08 49.2049 66.56 48.7174 67.0475 48.2224L67.04 48.2299Z" fill="#0C4A6E" />
</svg>
