<svg width="100" height="100" viewBox="0 0 100 100" fill="none" xmlns="http://www.w3.org/2000/svg">
	<path d="M57.3406 0.179539C73.3755 1.97842 83.2307 16.075 90.9911 29.1029C98.3078 41.386 102.789 55.2006 98.042 68.5081C93.0402 82.5294 81.5699 94.5602 66.1656 98.696C51.2002 102.714 35.8107 96.9078 23.0783 88.6347C10.9056 80.7253 1.18038 69.4321 0.090793 55.7629C-0.981205 42.3143 7.59342 30.6686 17.6774 20.8781C28.6755 10.2002 41.4646 -1.60151 57.3406 0.179539Z" fill="#BAE6FD" />
	<path d="M81.49 45.39C80.7 45.41 80.31 44.99 79.86 44.54C77.23 41.95 73.64 42.8 72.48 46.29C72.31 46.82 72.04 47.23 71.63 47.6C68.64 50.38 65.65 53.17 62.66 55.96C60.5 57.97 58.35 59.98 56.16 62.02C55.89 61.51 55.68 61.03 55.41 60.57C55.2 60.22 55.29 60.05 55.61 59.84C57.16 58.77 58.37 57.39 59.03 55.63C59.33 54.82 59.72 54.64 60.53 54.63C64.07 54.6 66.24 50.75 64.44 47.71C64.18 47.27 64.13 46.91 64.27 46.44C64.89 44.27 65.27 42.09 64.97 39.8C64.27 34.54 59.65 29.89 54.38 29.25C52.01 28.97 49.64 29.11 47.27 29.13C40.44 29.17 34.91 34.8 34.89 41.61C34.89 43.23 35.27 44.77 35.68 46.31C35.82 46.85 35.86 47.29 35.51 47.79C35.09 48.38 34.92 49.1 34.9 49.84C34.82 52.46 36.86 54.63 39.47 54.63C40.28 54.63 40.68 54.83 40.96 55.63C41.45 57.02 42.4 58.13 43.46 59.14C43.87 59.54 44.72 59.66 44.66 60.31C44.62 60.86 44.16 61.38 43.88 61.92C43.88 61.93 43.85 61.95 43.81 61.97C43.67 61.85 43.52 61.73 43.38 61.6C38.43 56.98 33.48 52.35 28.52 47.75C28.01 47.27 27.68 46.75 27.45 46.08C26.37 42.87 22.68 41.99 20.32 44.41C19.58 45.16 18.86 45.44 17.85 45.39C16.4 45.31 15.28 45.96 14.53 47.19C14.32 47.53 14.17 47.91 13.99 48.27V49.87C14.3 51.68 15.48 52.59 17.18 52.95C17.87 53.1 18.56 53.26 19.25 53.36C19.99 53.46 20.57 53.79 21.05 54.36C21.62 55.03 22.17 55.73 22.79 56.36C26.97 60.63 30.94 65.15 35.14 69.45C35.67 69.99 35.89 70.57 35.89 71.33C35.87 74.2 35.87 79.53 35.88 82.92C35.88 84.63 37.26 86 38.97 86H61.06C62.76 86 64.15 84.62 64.15 82.91C64.15 79.52 64.15 74.19 64.13 71.33C64.13 70.54 64.36 69.92 64.93 69.4C65.38 68.99 65.8 68.56 66.21 68.11C68.56 65.5 70.98 62.98 73.36 60.41C75.18 58.44 77.05 56.52 78.83 54.51C79.38 53.89 79.98 53.45 80.84 53.35C81.58 53.27 82.32 53.1 83.05 52.91C84.66 52.5 85.76 51.58 86.02 49.87V48.41C85.07 46.01 84.13 45.32 81.51 45.39H81.49Z" fill="#0C4A6E" />
	<path d="M15.75 34.57C17.76 36.28 19.79 37.95 21.8 39.64C22.05 39.85 22.21 39.85 22.47 39.64C24.5 37.93 26.56 36.24 28.57 34.51C29.63 33.6 30.17 32.4 30.24 31.02C30.44 27.05 26.29 24.38 22.68 26.16C22.26 26.37 21.97 26.35 21.56 26.16C18.53 24.68 15.04 26.27 14.15 29.53C14.12 29.64 14.13 29.77 14 29.84V31.73C14 31.73 14.09 31.74 14.13 31.75C14.3 32.9 14.87 33.84 15.74 34.58L15.75 34.57Z" fill="#0C4A6E" />
	<path d="M85.8599 29.62C85.0499 26.33 81.5099 24.65 78.4499 26.15C77.9999 26.37 77.6899 26.34 77.2699 26.13C74.91 24.98 72.0299 25.76 70.5999 27.92C69.1699 30.06 69.53 32.85 71.54 34.6C73.51 36.31 75.54 37.95 77.54 39.63C77.79 39.84 77.9499 39.86 78.2099 39.64C80.2399 37.92 82.2999 36.24 84.3199 34.51C85.1699 33.79 85.7099 32.86 85.8799 31.73C85.9199 31.73 85.97 31.72 86.01 31.71V29.82C85.89 29.79 85.89 29.7 85.87 29.6L85.8599 29.62Z" fill="#0C4A6E" />
	<path d="M38.06 28.0399C38.32 28.2599 38.48 28.2399 38.73 28.0399C40.76 26.3299 42.82 24.6499 44.83 22.9199C45.97 21.9399 46.48 20.6299 46.51 19.4099C46.51 15.3299 42.42 12.8599 38.93 14.5799C38.51 14.7899 38.22 14.7699 37.81 14.5799C35.45 13.4099 32.58 14.1699 31.13 16.3099C29.67 18.4499 30.03 21.2799 32.06 23.0499C34.03 24.7599 36.06 26.3899 38.06 28.0799V28.0399Z" fill="#0C4A6E" />
	<path d="M61.25 28.0001C61.57 28.2701 61.75 28.2001 62.03 27.9701C63.95 26.3501 65.9 24.7701 67.81 23.1401C69.94 21.3201 70.36 18.5101 68.89 16.3101C67.42 14.1101 64.54 13.3701 62.09 14.6001C61.76 14.7701 61.51 14.8001 61.17 14.6001C60.42 14.1701 59.6 14.0001 58.74 14.0101C56.51 14.0101 54.6 15.3001 53.83 17.3101C53.07 19.3001 53.58 21.5101 55.26 22.9701C57.23 24.6801 59.27 26.3101 61.25 28.0001Z" fill="#0C4A6E" />
	<path d="M43.14 73.6501C45.01 71.5701 46.93 69.7201 50 69.7201C53.07 69.7201 55 71.5601 56.86 73.6601C57.04 73.3501 56.97 73.1001 56.97 72.8801C56.97 70.2401 56.98 67.6101 56.97 64.9701C56.97 64.6001 57.08 64.3501 57.35 64.1001C62.54 59.2701 67.72 54.4401 72.88 49.6001C73.23 49.2701 73.43 49.3201 73.76 49.6001C74.78 50.4501 75.81 51.2901 76.88 52.0901C77.33 52.4201 77.25 52.6001 76.92 52.9501C71.96 58.2401 67.01 63.5501 62.06 68.8401C61.76 69.1601 61.62 69.4701 61.63 69.9201C61.65 74.3001 61.63 78.6701 61.66 83.0501C61.66 83.6001 61.52 83.7101 60.99 83.7101C53.69 83.6901 46.38 83.6901 39.08 83.7101C38.54 83.7101 38.41 83.5901 38.41 83.0401C38.44 78.6601 38.41 74.2901 38.43 69.9101C38.43 69.4601 38.3 69.1501 37.99 68.8301C33.03 63.5401 28.09 58.2301 23.12 52.9401C22.78 52.5801 22.72 52.4101 23.16 52.0801C24.24 51.2701 25.29 50.4101 26.33 49.5501C26.62 49.3101 26.8 49.2801 27.1 49.5501C32.31 54.4301 37.52 59.2901 42.74 64.1501C43 64.3901 43.06 64.6501 43.05 64.9801C43.05 67.6201 43.05 70.2501 43.05 72.8901C43.05 73.1201 42.98 73.3601 43.15 73.6701L43.14 73.6501Z" fill="#BEF264" />
	<path d="M39.56 44.3901C39.9 45.2001 39.38 45.3801 38.57 45.5201C38 45.6201 37.88 45.5201 37.73 44.9801C36.54 40.6701 37.43 36.9401 40.78 33.9101C42.58 32.2801 44.76 31.4501 47.19 31.4401C49.44 31.4301 51.7 31.2301 53.93 31.5401C60.09 32.4201 63.92 38.1901 62.43 44.2601C62.43 44.2801 62.41 44.3101 62.41 44.3301C62.06 45.7101 61.91 45.8201 60.59 45.3401C60.17 45.1801 60.41 44.7801 60.57 44.5201C60.85 44.0901 61.11 43.6601 61.3 43.1901C61.36 43.0301 61.41 42.8701 61.45 42.7101C61.59 42.0701 61.9 41.2201 61.51 40.8401C61.1 40.4301 60.23 40.7201 59.56 40.7201C59.04 40.7201 59.31 41.1601 59.3 41.3801C59.23 43.0501 57.95 44.2901 56.34 44.1801C55.55 44.1301 54.9 43.7801 54.4 43.1801C53.86 42.5301 53.35 41.8501 52.8 41.2101C49.97 37.9001 44.68 37.3901 41.27 40.1301C39.97 41.1801 39.46 42.5901 39.56 44.3801V44.3901Z" fill="#E2E8F0" />
	<path d="M57.74 49.5901C57.65 50.7701 57.64 51.9601 57.42 53.1201C56.72 56.8801 53.3 59.5201 49.46 59.2801C45.74 59.0401 42.68 55.9401 42.44 52.2101C42.28 49.7501 42.09 47.2901 41.9 44.8401C41.73 42.7001 42.26 41.8601 44.29 41.1301C46.94 40.1701 49.54 40.8901 51.31 43.0801C51.78 43.6601 52.23 44.2701 52.73 44.8201C54 46.2101 55.58 46.7801 57.43 46.4301C57.95 46.3301 57.99 46.4901 57.94 46.9301C57.85 47.8201 57.8 48.7101 57.73 49.6001L57.74 49.5901Z" fill="#FFF7ED" />
	<path d="M50.02 67.0599C49.9 66.9799 49.77 66.9099 49.66 66.8199C48.43 65.8399 47.21 64.8499 45.97 63.8799C45.72 63.6799 45.62 63.5099 45.83 63.2299C45.86 63.1899 45.88 63.1499 45.9 63.0999C46.21 62.4699 46.37 61.6399 46.88 61.2799C47.41 60.8999 48.19 61.4699 48.88 61.5399C50.15 61.6699 51.39 61.5799 52.61 61.2199C53 61.0999 53.17 61.1999 53.33 61.5499C53.64 62.2299 54.29 62.9299 54.22 63.5499C54.15 64.1499 53.21 64.4999 52.65 64.9599C51.93 65.5599 51.18 66.1399 50.44 66.7299C50.31 66.8299 50.17 66.9299 50.01 67.0499L50.02 67.0599Z" fill="#FFF7ED" />
	<path d="M19.05 47.69C19.92 47.95 20.67 47.5 21.3 46.7C21.57 46.36 21.9 46.06 22.23 45.79C22.8 45.33 23.45 45.24 24.13 45.52C24.82 45.8 25.15 46.37 25.34 47.05C25.42 47.33 25.23 47.44 25.07 47.57C23.71 48.66 22.35 49.74 21 50.83C20.77 51.02 20.55 51.07 20.27 51.01C19.35 50.82 18.42 50.64 17.51 50.44C16.73 50.27 16.27 49.66 16.34 48.94C16.41 48.21 16.98 47.72 17.78 47.69C18.14 47.68 18.5 47.69 19.05 47.69Z" fill="#FFF7ED" />
	<path d="M76.8 45.3701C77.19 45.3701 77.73 45.5801 78.06 46.0501C79.07 47.4801 80.42 47.9201 82.11 47.7101C83 47.6001 83.61 48.1901 83.68 48.9601C83.75 49.7001 83.28 50.2801 82.42 50.4601C81.41 50.6701 80.32 51.1501 79.39 50.9501C78.52 50.7601 77.81 49.8401 77.03 49.2301C76.36 48.7101 75.72 48.1601 75.04 47.6601C74.66 47.3801 74.62 47.1101 74.8 46.6801C75.15 45.8601 75.79 45.3601 76.81 45.3601L76.8 45.3701Z" fill="#FFF7ED" />
	<path d="M40.09 51.85C40.18 52.2 40.09 52.34 39.72 52.35C38.48 52.38 37.38 51.5 37.24 50.29C37.1 49.1 37.91 47.98 39.09 47.73C39.54 47.63 39.84 47.63 39.85 48.27C39.87 49.47 40 50.67 40.09 51.85V51.85Z" fill="#FFF7ED" />
	<path d="M60.31 52.3301C59.9 52.4401 59.86 52.1901 59.89 51.8101C59.99 50.6101 60.11 49.4101 60.14 48.2101C60.15 47.6401 60.42 47.6401 60.82 47.7101C61.99 47.9001 62.86 49.0101 62.76 50.2001C62.66 51.4101 61.62 52.3401 60.3 52.3301H60.31Z" fill="#FFF7ED" />
	<path d="M45.37 68.5301V66.3601C46 66.8601 46.56 67.3101 47.16 67.7901C46.55 68.0401 46 68.2701 45.37 68.5301V68.5301Z" fill="#FDBA74" />
	<path d="M52.86 67.7999C53.46 67.3199 53.99 66.8899 54.6 66.4099V68.5199C54.05 68.2899 53.5 68.0699 52.86 67.8099V67.7999Z" fill="#FDBA74" />
	<path d="M19.25 27.9499C20.25 27.9199 21.02 28.3699 21.64 29.1099C22 29.5299 22.26 29.5799 22.63 29.1199C23.27 28.3399 24.1 27.8999 25.16 27.9499C26.32 27.9999 27.34 28.6799 27.76 29.7199C28.18 30.7699 27.94 32.0099 27.06 32.7699C25.55 34.0899 23.99 35.3499 22.46 36.6399C22.24 36.8299 22.08 36.8399 21.84 36.6399C20.31 35.3499 18.75 34.0899 17.23 32.7699C16.35 31.9999 16.1 30.7899 16.52 29.7199C16.95 28.6299 18 27.9399 19.25 27.9399V27.9499Z" fill="#F87171" />
	<path d="M74.95 27.9499C75.76 27.9299 76.46 28.2099 77.05 28.7699C77.88 29.5499 77.89 29.5499 78.69 28.7899C79.54 27.9799 80.53 27.7699 81.63 28.0799C83.72 28.6699 84.42 31.2799 82.81 32.7499C81.32 34.1199 79.71 35.3599 78.16 36.6699C77.91 36.8799 77.76 36.8099 77.55 36.6299C76.03 35.3599 74.5 34.1099 73 32.8199C72.09 32.0399 71.83 30.7999 72.27 29.7099C72.7 28.6399 73.74 27.9599 74.95 27.9599V27.9499Z" fill="#F87171" />
	<path d="M35.52 16.3401C36.52 16.3101 37.29 16.7701 37.9 17.5101C38.27 17.9601 38.53 17.9201 38.89 17.5001C39.75 16.4901 40.83 16.1001 42.13 16.4601C44.23 17.0401 44.94 19.6401 43.34 21.1201C41.85 22.4901 40.24 23.7301 38.69 25.0501C38.45 25.2501 38.3 25.2201 38.08 25.0301C36.55 23.7401 34.99 22.4801 33.47 21.1601C32.59 20.4001 32.35 19.1701 32.77 18.1101C33.2 17.0201 34.26 16.3401 35.51 16.3501L35.52 16.3401Z" fill="#F87171" />
	<path d="M67.43 19.05C67.41 19.96 67.11 20.69 66.47 21.23C64.98 22.5 63.46 23.73 61.97 25C61.68 25.25 61.51 25.2 61.24 24.97C59.79 23.74 58.3 22.53 56.85 21.3C55.62 20.25 55.46 18.54 56.45 17.36C57.46 16.16 59.34 15.97 60.56 16.96C60.93 17.26 61.28 17.85 61.63 17.84C61.99 17.84 62.32 17.23 62.7 16.95C63.67 16.22 64.75 16.13 65.84 16.64C66.87 17.12 67.37 18 67.43 19.05V19.05Z" fill="#F87171" />
	<path d="M50 52.3301C50.65 52.3301 51.3 52.3501 51.95 52.3301C52.31 52.3201 52.34 52.48 52.29 52.76C52.11 53.82 51.07 54.6701 49.96 54.6501C48.88 54.6301 47.88 53.79 47.7 52.75C47.65 52.46 47.68 52.31 48.04 52.32C48.69 52.35 49.34 52.32 49.99 52.32L50 52.3301Z" fill="#0C4A6E" />
</svg>
