<svg width="61" height="16" viewBox="0 0 61 16" fill="none" xmlns="http://www.w3.org/2000/svg">
	<path d="M61 1L49.9528 4.36036L58.3865 12.2474L61 1ZM0.294457 1.70867C0.944717 2.35606 1.65301 3.01747 2.41478 3.68347L3.73118 2.17779C3.0007 1.53914 2.32408 0.90714 1.70554 0.291333L0.294457 1.70867ZM6.97172 7.23508C8.49244 8.29304 10.1355 9.32118 11.8823 10.2788L12.8437 8.52502C11.1621 7.60315 9.57927 6.61275 8.1139 5.5933L6.97172 7.23508ZM17.1016 12.7722C18.863 13.4924 20.6981 14.1222 22.5926 14.6296L23.11 12.6977C21.303 12.2137 19.5478 11.6117 17.8586 10.921L17.1016 12.7722ZM28.2976 15.7362C30.1998 15.9631 32.1437 16.0508 34.1161 15.9713L34.0356 13.9729C32.1752 14.0479 30.3377 13.9654 28.5344 13.7503L28.2976 15.7362ZM39.9058 15.2467C41.7581 14.8527 43.6217 14.2951 45.4865 13.5534L44.7473 11.695C42.9884 12.3946 41.2329 12.9197 39.4896 13.2905L39.9058 15.2467ZM50.7154 10.971C52.3131 10.0214 53.9028 8.92233 55.4785 7.66152L54.229 6.09989C52.7231 7.30482 51.2093 8.35083 49.6935 9.25178L50.7154 10.971Z" fill="#0AC5B3" />
</svg>
