<svg width="100" height="100" viewBox="0 0 100 100" fill="none" xmlns="http://www.w3.org/2000/svg">
	<path d="M64.1742 1.60336C76.8857 5.47936 86.2311 16.1477 92.1229 28.962C98.5222 42.8801 103.397 59.0738 96.9973 72.9918C90.454 87.2224 75.4415 92.7816 61.1469 96.3292C45.8306 100.13 28.8593 103.433 16.4504 92.9813C3.47512 82.0528 -1.67712 62.8888 0.473267 45.2264C2.42191 29.221 14.0864 17.6258 26.6744 9.00544C37.9765 1.26564 51.306 -2.32039 64.1742 1.60336Z" fill="#99F6E4" />
	<path d="M32.2902 81.5C32.1002 81.11 32.0802 80.66 31.9402 80.24C31.9102 80.15 31.8802 80.07 31.8502 79.98C31.2502 78.31 30.2702 76.91 28.8202 75.86C28.5802 75.69 28.4302 75.55 28.4302 75.36C28.4702 75.31 28.5102 75.25 28.5402 75.2C30.3502 72.46 30.3302 68.33 28.4702 65.63C27.1402 63.69 25.3202 62.82 23.1702 62.87C21.0202 62.82 19.2002 63.69 17.8702 65.63C16.0202 68.33 15.9902 72.47 17.8002 75.2C17.8402 75.26 17.8802 75.31 17.9102 75.37C17.9102 75.56 17.7602 75.7 17.5202 75.87C16.0702 76.92 15.1002 78.3 14.5002 79.96C14.4602 80.06 14.4302 80.15 14.4002 80.25C14.2602 80.67 14.2402 81.12 14.0502 81.51C14.0102 81.74 13.9902 81.97 13.9902 82.21V82.39C13.9902 82.62 14.0202 82.85 14.0602 83.09C14.0802 83.2 14.1002 83.31 14.1402 83.41C14.1702 83.5 14.2102 83.59 14.2502 83.68C14.5302 84.34 14.9102 84.88 15.3902 85.26C15.4102 85.28 15.4402 85.3 15.4602 85.31C15.7602 85.53 16.1002 85.7 16.4702 85.82C16.4702 85.82 16.4802 85.82 16.4902 85.82C16.5302 85.83 16.5702 85.84 16.6102 85.85C16.8602 85.91 17.1302 85.94 17.4102 85.95C18.1302 85.96 18.8402 85.97 19.5602 85.97C20.3302 85.97 21.0902 85.98 21.8602 85.98C22.7302 85.98 23.6002 85.98 24.4802 85.98C24.9802 85.98 25.4702 85.98 25.9602 85.98C26.2302 85.98 26.5002 85.98 26.7702 85.98C27.4902 85.98 28.2102 85.97 28.9302 85.96C29.2102 85.96 29.4802 85.92 29.7302 85.86C29.7702 85.85 29.8102 85.84 29.8502 85.83H29.8702C30.2302 85.72 30.5702 85.55 30.8802 85.32C30.9002 85.3 30.9302 85.28 30.9502 85.27C31.4302 84.88 31.8102 84.35 32.0902 83.69C32.1302 83.6 32.1602 83.51 32.2002 83.42C32.2302 83.31 32.2602 83.21 32.2802 83.1C32.3302 82.83 32.3502 82.56 32.3502 82.3C32.3502 82.04 32.3302 81.77 32.2802 81.51L32.2902 81.5ZM19.1902 68.38C19.3102 68.04 19.4602 67.71 19.6402 67.37C20.3702 66.01 21.5402 65.31 23.0802 65.29C23.1402 65.29 23.2102 65.29 23.2702 65.29C24.8102 65.31 25.9702 66.02 26.7002 67.37C26.8802 67.7 27.0302 68.04 27.1502 68.38C27.6202 69.7 27.6402 71.03 27.2202 72.35C27.1002 72.73 26.9402 73.11 26.7402 73.49C26.0102 74.89 24.6402 75.66 23.1702 75.65C21.7002 75.67 20.3202 74.89 19.6002 73.49C19.4002 73.11 19.2402 72.73 19.1202 72.35C18.7002 71.03 18.7202 69.7 19.1902 68.38ZM29.8902 82.78C29.8002 83.13 29.5702 83.36 29.2102 83.48C29.0502 83.54 28.8702 83.58 28.6702 83.58C28.6402 83.58 28.6002 83.58 28.5702 83.58C28.5302 83.58 28.5002 83.58 28.4602 83.58H28.4302C27.5302 83.6 26.6202 83.58 25.7202 83.58H20.6402C19.7402 83.58 18.8302 83.59 17.9302 83.58H17.9002C17.9002 83.58 17.8302 83.58 17.7902 83.58C17.7502 83.58 17.7202 83.58 17.6802 83.58C17.4802 83.58 17.3002 83.54 17.1402 83.48C16.7702 83.36 16.5402 83.12 16.4502 82.78C16.3902 82.6 16.3702 82.4 16.4102 82.18V82.15C16.4302 82.04 16.4402 81.93 16.4702 81.8C16.5302 81.52 16.6002 81.25 16.6902 80.98C16.7102 80.91 16.7302 80.85 16.7602 80.78C16.8502 80.53 16.9402 80.3 17.0602 80.06C17.0702 80.04 17.0802 80.01 17.1002 79.99C17.5702 79.05 18.2702 78.24 19.2202 77.58C19.5402 77.36 19.8202 77.26 20.1602 77.33C20.2802 77.35 20.4002 77.39 20.5402 77.46C21.3902 77.85 22.2902 78.05 23.1702 78.06C24.0502 78.06 24.9502 77.86 25.8002 77.46C25.9402 77.4 26.0602 77.35 26.1802 77.33C26.5202 77.26 26.8002 77.36 27.1202 77.58C28.0902 78.24 28.7902 79.06 29.2602 80.02C29.2602 80.04 29.2802 80.06 29.2902 80.08C29.3802 80.26 29.4602 80.45 29.5302 80.65C29.5302 80.66 29.5302 80.67 29.5402 80.69C29.5602 80.75 29.5802 80.8 29.6002 80.86C29.7102 81.16 29.8002 81.48 29.8602 81.8C29.8802 81.92 29.9002 82.04 29.9102 82.15V82.18C29.9502 82.4 29.9302 82.6 29.8702 82.78H29.8902Z" fill="#0C4A6E" />
	<path d="M29.9005 82.7799C29.8105 83.1299 29.5805 83.3599 29.2205 83.4799C29.0605 83.5399 28.8805 83.5799 28.6805 83.5799C28.6505 83.5799 28.6105 83.5799 28.5805 83.5799C28.5405 83.5799 28.5105 83.5799 28.4705 83.5799H28.4405C27.5405 83.5999 26.6305 83.5799 25.7305 83.5799H20.6405C19.7405 83.5799 18.8305 83.5899 17.9305 83.5799H17.9005C17.9005 83.5799 17.8305 83.5799 17.7905 83.5799C17.7505 83.5799 17.7205 83.5799 17.6805 83.5799C17.4805 83.5799 17.3005 83.5399 17.1405 83.4799C16.7705 83.3599 16.5405 83.1199 16.4505 82.7799C16.3905 82.5999 16.3705 82.3999 16.4105 82.1799V82.1499C16.4305 82.0399 16.4405 81.9299 16.4705 81.7999C16.5305 81.5199 16.6005 81.2499 16.6905 80.9799C16.7105 80.9099 16.7305 80.8499 16.7605 80.7799C16.8505 80.5299 16.9405 80.2999 17.0605 80.0599C17.0705 80.0399 17.0805 80.0099 17.1005 79.9899C17.5705 79.0499 18.2705 78.2399 19.2205 77.5799C19.5405 77.3599 19.8205 77.2599 20.1605 77.3299C20.2805 77.3499 20.4005 77.3899 20.5405 77.4599C21.3905 77.8499 22.2905 78.0499 23.1705 78.0599C24.0505 78.0599 24.9505 77.8599 25.8005 77.4599C25.9405 77.3999 26.0605 77.3499 26.1805 77.3299C26.5205 77.2599 26.8005 77.3599 27.1205 77.5799C28.0905 78.2399 28.7905 79.0599 29.2605 80.0199C29.2605 80.0399 29.2805 80.0599 29.2905 80.0799C29.3805 80.2599 29.4605 80.4499 29.5305 80.6499C29.5305 80.6599 29.5305 80.6699 29.5405 80.6899C29.5605 80.7499 29.5805 80.7999 29.6005 80.8599C29.7105 81.1599 29.8005 81.4799 29.8605 81.7999C29.8805 81.9199 29.9005 82.0399 29.9105 82.1499V82.1799C29.9505 82.3999 29.9305 82.5999 29.8705 82.7799H29.9005Z" fill="#FED7AA" />
	<path d="M27.2297 72.35C27.1097 72.73 26.9497 73.11 26.7497 73.49C26.0197 74.89 24.6497 75.66 23.1797 75.65C21.7097 75.67 20.3297 74.89 19.6097 73.49C19.4097 73.11 19.2497 72.73 19.1297 72.35C18.7097 71.03 18.7297 69.7 19.1997 68.38C19.3197 68.04 19.4697 67.71 19.6497 67.37C20.3797 66.01 21.5497 65.31 23.0897 65.29C23.1497 65.29 23.2197 65.29 23.2797 65.29C24.8197 65.31 25.9797 66.02 26.7097 67.37C26.8897 67.7 27.0397 68.04 27.1597 68.38C27.6297 69.7 27.6497 71.03 27.2297 72.35Z" fill="#FFF7ED" />
	<path d="M67.9896 35.15C67.7496 34.66 67.6096 34.11 67.6196 33.54C67.6196 34.12 67.7496 34.66 67.9896 35.15Z" fill="#0C4A6E" />
	<path d="M85.9799 33.45C85.9799 33.27 85.9599 33.09 85.9299 32.91C85.7699 31.91 85.4899 30.95 85.0399 30.04C84.9999 29.96 84.9499 29.88 84.8999 29.81C84.3199 28.72 83.5099 27.77 82.4299 26.97C82.1599 26.77 81.9799 26.61 82.0899 26.35C82.1399 26.27 82.1999 26.19 82.2499 26.1C82.3099 26.02 82.3499 25.95 82.3899 25.87C82.6999 25.32 82.9399 24.71 83.1299 24.04C83.6099 22.25 83.6199 20.52 83.0799 18.87C83.0699 18.83 83.0499 18.79 83.0399 18.74C82.6999 17.69 82.2099 16.77 81.5099 16.02C81.4699 15.97 81.4299 15.93 81.3799 15.88C80.6499 15.09 79.7399 14.54 78.6599 14.25C78.4199 14.18 78.1699 14.12 77.9199 14.06C77.9099 14.04 77.8999 14.03 77.8899 14H75.7299C75.7299 14 75.7099 14.05 75.6999 14.06C75.4499 14.12 75.2099 14.18 74.9599 14.25C73.8799 14.54 72.9699 15.09 72.2299 15.88C72.2199 15.89 72.2099 15.9 72.1999 15.92C71.4499 16.69 70.9299 17.65 70.5699 18.74C70.5499 18.78 70.5399 18.82 70.5299 18.87C69.9899 20.52 69.9999 22.26 70.4799 24.04C70.6599 24.71 70.9099 25.32 71.2099 25.87C71.2399 25.95 71.2899 26.03 71.3499 26.11C71.3999 26.19 71.4499 26.28 71.5099 26.36C71.6199 26.62 71.4399 26.78 71.1699 26.98C70.0999 27.78 69.2799 28.73 68.6999 29.82C68.6499 29.89 68.6099 29.97 68.5699 30.05C68.1199 30.96 67.8299 31.91 67.6699 32.92C67.6399 33.09 67.6299 33.25 67.6299 33.41C67.6299 33.44 67.6299 33.47 67.6299 33.5V33.55C67.6299 33.61 67.6299 33.68 67.6299 33.74C67.6299 33.78 67.6299 33.83 67.6299 33.87C67.6299 33.92 67.6299 33.97 67.6499 34.02C67.6499 34.07 67.6599 34.12 67.6699 34.17C67.6699 34.18 67.6699 34.19 67.6699 34.21C67.6699 34.26 67.6899 34.31 67.6999 34.36C67.6999 34.39 67.7099 34.41 67.7199 34.44C67.7199 34.47 67.7299 34.49 67.7399 34.52C67.7399 34.56 67.7599 34.59 67.7699 34.63C67.7899 34.69 67.7999 34.74 67.8199 34.8C67.8399 34.86 67.8699 34.93 67.8899 34.99C67.9199 35.05 67.9399 35.12 67.9699 35.18C67.9699 35.2 67.9899 35.21 67.9899 35.23C68.5399 36.32 69.6199 37.08 70.9599 37.11C72.0599 37.13 73.1599 37.14 74.2699 37.15C74.6499 37.15 75.0299 37.15 75.4099 37.15C76.3299 37.15 77.2399 37.15 78.1599 37.15C78.5399 37.15 78.9199 37.15 79.2999 37.15C80.3999 37.15 81.4999 37.13 82.6099 37.11C82.7299 37.11 82.8499 37.11 82.9599 37.09C82.9599 37.09 82.9599 37.09 82.9699 37.09C83.0399 37.09 83.1099 37.07 83.1699 37.06C83.2399 37.05 83.2999 37.03 83.3699 37.02C83.4299 37.01 83.4999 36.99 83.5599 36.97C84.3999 36.71 85.0699 36.14 85.4899 35.39C85.5099 35.36 85.5199 35.33 85.5399 35.3C85.5599 35.28 85.5699 35.25 85.5799 35.23C85.8299 34.73 85.9699 34.18 85.9699 33.6C85.9699 33.57 85.9699 33.54 85.9699 33.51L85.9799 33.45ZM72.6699 20.03C72.7799 19.74 72.8599 19.43 72.9699 19.14C73.0299 18.98 73.1099 18.83 73.1799 18.67C73.7999 17.42 74.7699 16.67 76.0499 16.46C76.0999 16.46 76.1499 16.44 76.1899 16.44C76.2899 16.43 76.3799 16.42 76.4799 16.41C76.5099 16.41 76.5399 16.41 76.5699 16.41C76.5999 16.41 76.6199 16.41 76.6499 16.41C76.7599 16.41 76.8799 16.41 76.9799 16.41C77.0099 16.41 77.0399 16.41 77.0699 16.41C77.1699 16.41 77.2699 16.43 77.3599 16.44C77.4099 16.44 77.4599 16.45 77.4999 16.46C78.7799 16.66 79.7499 17.41 80.3699 18.67C80.4499 18.84 80.5299 19.01 80.5999 19.18C80.6999 19.46 80.7799 19.74 80.8799 20.02C81.2699 21.49 81.1099 22.97 80.3999 24.42C80.1599 24.91 79.8599 25.32 79.5099 25.66C79.5099 25.66 79.4999 25.67 79.4899 25.68C79.4499 25.72 79.4099 25.76 79.3699 25.79C79.3699 25.79 79.3699 25.79 79.3599 25.79C78.6399 26.4 77.7899 26.73 76.9399 26.77C76.8799 26.77 76.8299 26.77 76.7699 26.77C76.7099 26.77 76.6599 26.77 76.5999 26.77C75.7599 26.73 74.9199 26.41 74.1999 25.81C74.1799 25.79 74.1599 25.77 74.1299 25.76C74.1299 25.76 74.1099 25.74 74.0999 25.73C73.7199 25.38 73.3799 24.94 73.1199 24.41C72.4099 22.96 72.2499 21.49 72.6299 20.03H72.6699ZM82.2399 34.7C81.5299 34.7 80.8299 34.7 80.1199 34.7C80.0599 34.7 79.9999 34.7 79.9399 34.7C79.6099 34.7 79.2699 34.7 78.9299 34.7C78.2499 34.7 77.5599 34.7 76.8799 34.7H76.6999C76.0199 34.7 75.3299 34.7 74.6499 34.7C74.3199 34.7 73.9799 34.7 73.6499 34.7C73.5899 34.7 73.5299 34.7 73.4699 34.7C72.7599 34.7 72.0599 34.7 71.3499 34.7C70.3499 34.68 69.8899 34.06 70.0899 33.07C70.4699 31.14 71.4199 29.6 73.1099 28.53C73.3099 28.4 73.4699 28.35 73.6799 28.4C74.5999 28.91 75.6499 29.18 76.7599 29.16H76.8399C77.9499 29.18 78.9999 28.92 79.9199 28.4C80.1299 28.35 80.2899 28.4 80.4899 28.53C82.1799 29.59 83.1199 31.13 83.4999 33.07C83.6999 34.06 83.2399 34.68 82.2399 34.7Z" fill="#0C4A6E" />
	<path d="M80.4301 24.4099C80.1901 24.8999 79.8901 25.3099 79.5401 25.6499C79.5401 25.6499 79.5301 25.6599 79.5201 25.6699C79.4801 25.7099 79.4401 25.7499 79.4001 25.7799C79.4001 25.7799 79.4001 25.7799 79.3901 25.7799C78.6701 26.3899 77.8201 26.7199 76.9701 26.7599C76.9101 26.7599 76.8601 26.7599 76.8001 26.7599C76.7401 26.7599 76.6901 26.7599 76.6301 26.7599C75.7901 26.7199 74.9501 26.3999 74.2301 25.7999C74.2101 25.7799 74.1901 25.7599 74.1601 25.7499C74.1601 25.7499 74.1401 25.7299 74.1301 25.7199C73.7501 25.3699 73.4101 24.9299 73.1501 24.3999C72.4401 22.9499 72.2801 21.4799 72.6601 20.0199C72.7701 19.7299 72.8501 19.4199 72.9601 19.1299C73.0201 18.9699 73.1001 18.8199 73.1701 18.6599C73.7901 17.4099 74.7601 16.6599 76.0401 16.4499C76.0901 16.4499 76.1401 16.4299 76.1801 16.4299C76.2801 16.4199 76.3701 16.4099 76.4701 16.3999C76.5001 16.3999 76.5301 16.3999 76.5601 16.3999C76.5901 16.3999 76.6101 16.3999 76.6401 16.3999C76.7501 16.3999 76.8701 16.3999 76.9701 16.3999C77.0001 16.3999 77.0301 16.3999 77.0601 16.3999C77.1601 16.3999 77.2601 16.4199 77.3501 16.4299C77.4001 16.4299 77.4501 16.4399 77.4901 16.4499C78.7701 16.6499 79.7401 17.3999 80.3601 18.6599C80.4401 18.8299 80.5201 18.9999 80.5901 19.1699C80.6901 19.4499 80.7701 19.7299 80.8701 20.0099C81.2601 21.4799 81.1001 22.9599 80.3901 24.4099H80.4301Z" fill="#FFF7ED" />
	<path d="M82.2398 34.6999C81.5298 34.6999 80.8298 34.6999 80.1198 34.6999C80.0598 34.6999 79.9998 34.6999 79.9398 34.6999C79.6098 34.6999 79.2698 34.6999 78.9298 34.6999C78.2498 34.6999 77.5598 34.6999 76.8798 34.6999H76.6998C76.0198 34.6999 75.3298 34.6999 74.6498 34.6999C74.3198 34.6999 73.9798 34.6999 73.6498 34.6999C73.5898 34.6999 73.5298 34.6999 73.4698 34.6999C72.7598 34.6999 72.0598 34.6999 71.3498 34.6999C70.3498 34.6799 69.8898 34.0599 70.0898 33.0699C70.4698 31.1399 71.4198 29.5999 73.1098 28.5299C73.3098 28.3999 73.4698 28.3499 73.6798 28.3999C74.5998 28.9099 75.6498 29.1799 76.7598 29.1599H76.8398C77.9498 29.1799 78.9998 28.9199 79.9198 28.3999C80.1298 28.3499 80.2898 28.3999 80.4898 28.5299C82.1798 29.5899 83.1198 31.1299 83.4998 33.0699C83.6998 34.0599 83.2398 34.6799 82.2398 34.6999Z" fill="#DDD6FE" />
	<path d="M14.0798 34.24C14.0798 34.24 14.0998 34.32 14.1098 34.36C14.0898 34.32 14.0498 34.28 14.0098 34.25V33.47C14.0098 33.72 14.0298 33.98 14.0898 34.24H14.0798Z" fill="#0C4A6E" />
	<path d="M14.2197 34.75C14.2397 34.82 14.2697 34.88 14.2997 34.94C14.2897 34.92 14.2797 34.89 14.2597 34.87C14.2397 34.83 14.2297 34.79 14.2197 34.75Z" fill="#0C4A6E" />
	<path d="M15.3203 36.3301C15.7103 36.6601 16.1803 36.8901 16.6903 37.0001C16.1603 36.8901 15.7103 36.6601 15.3203 36.3301Z" fill="#0C4A6E" />
	<path d="M28.93 26.84C28.68 26.65 28.63 26.5 28.78 26.2C28.88 25.99 28.94 25.79 28.96 25.61C28.98 25.56 29.01 25.52 29.03 25.47C29.78 23.87 30.04 22.24 29.85 20.61C29.75 19.73 29.51 18.85 29.14 17.98C28.41 16.24 27.17 14.98 25.36 14.35C24.96 14.21 24.55 14.12 24.14 14.01C24.12 14.01 24.09 14.01 24.07 14.01H22.29C22.29 14.01 22.24 14.01 22.22 14.01C21.81 14.12 21.4 14.21 21 14.35C19.19 14.98 17.95 16.24 17.22 17.98C16.85 18.86 16.62 19.73 16.51 20.61C16.32 22.24 16.59 23.86 17.33 25.47C17.35 25.52 17.38 25.56 17.4 25.61C17.43 25.79 17.49 25.99 17.59 26.2C17.73 26.5 17.68 26.65 17.44 26.84C15.44 28.34 14.24 30.32 14 32.84V33.46C14 33.71 14.02 33.97 14.08 34.23C14.08 34.27 14.1 34.31 14.11 34.35C14.18 34.47 14.19 34.61 14.23 34.74C14.25 34.81 14.28 34.87 14.31 34.93H14.3C14.54 35.44 14.84 35.87 15.21 36.22L15.23 36.24C15.26 36.27 15.29 36.29 15.32 36.32C15.71 36.65 16.18 36.88 16.69 36.99C16.69 36.99 16.75 37 16.78 37.01C16.83 37.02 16.89 37.03 16.95 37.04C17.03 37.04 17.12 37.06 17.21 37.06C17.23 37.06 17.26 37.06 17.28 37.06C17.3 37.06 17.33 37.06 17.35 37.06C21.25 37.11 25.15 37.11 29.04 37.06C29.06 37.06 29.09 37.06 29.11 37.06C29.13 37.06 29.16 37.06 29.18 37.06C29.27 37.06 29.36 37.05 29.44 37.04C29.5 37.04 29.55 37.02 29.61 37.01C29.64 37.01 29.67 37.01 29.7 36.99C30.21 36.88 30.67 36.64 31.07 36.32C31.1 36.29 31.13 36.27 31.16 36.24C31.16 36.24 31.18 36.23 31.18 36.22C31.54 35.88 31.85 35.44 32.09 34.94C32.12 34.88 32.14 34.81 32.17 34.75C32.21 34.62 32.22 34.47 32.29 34.36C32.29 34.32 32.31 34.28 32.32 34.24C32.37 33.98 32.4 33.72 32.4 33.47V32.85C32.16 30.33 30.96 28.35 28.96 26.85L28.93 26.84ZM19.1 20.66C19.23 19.76 19.59 18.89 20.19 18.05C20.92 17.05 22.05 16.56 23.18 16.57C24.31 16.57 25.44 17.05 26.17 18.05C26.77 18.88 27.13 19.75 27.26 20.66C27.41 21.7 27.28 22.77 26.88 23.86C26.78 24.15 26.66 24.41 26.52 24.65C26.08 25.42 25.46 25.98 24.65 26.29C24.2 26.48 23.71 26.57 23.17 26.56C22.64 26.56 22.14 26.48 21.69 26.29C20.88 25.98 20.26 25.42 19.82 24.65C19.68 24.41 19.56 24.14 19.46 23.86C19.07 22.76 18.93 21.69 19.08 20.66H19.1ZM29.56 34.43C29.56 34.43 29.5 34.48 29.47 34.5C29.41 34.54 29.34 34.58 29.27 34.61C29.16 34.65 29.04 34.68 28.91 34.69C28.86 34.69 28.82 34.69 28.77 34.69C27.79 34.69 26.82 34.69 25.85 34.69C24.08 34.69 22.31 34.69 20.53 34.69C19.55 34.69 18.58 34.69 17.61 34.69C17.56 34.69 17.51 34.69 17.47 34.69C17.34 34.68 17.22 34.65 17.11 34.61C17.04 34.58 16.97 34.55 16.91 34.5C16.88 34.48 16.85 34.46 16.82 34.43C16.51 34.18 16.35 33.76 16.43 33.28C16.43 33.26 16.43 33.24 16.43 33.23C16.43 33.19 16.44 33.14 16.45 33.1C16.45 33.04 16.47 32.98 16.49 32.92C16.49 32.88 16.51 32.83 16.52 32.79C16.61 32.39 16.73 32 16.88 31.63C17.37 30.41 18.17 29.4 19.37 28.63C19.64 28.46 19.86 28.39 20.13 28.44C20.23 28.46 20.33 28.5 20.44 28.55C21.3 28.96 22.19 29.17 23.07 29.19C23.11 29.19 23.15 29.19 23.19 29.19C23.23 29.19 23.27 29.19 23.3 29.19C24.18 29.17 25.07 28.96 25.93 28.55C26.04 28.5 26.14 28.46 26.24 28.44C26.51 28.38 26.73 28.46 27 28.63C28.2 29.4 29 30.42 29.49 31.63C29.64 32 29.75 32.39 29.85 32.79C29.85 32.83 29.87 32.87 29.88 32.92C29.89 32.98 29.91 33.04 29.92 33.1C29.92 33.14 29.94 33.19 29.94 33.23C29.94 33.25 29.94 33.27 29.94 33.28C30.02 33.76 29.87 34.18 29.55 34.43H29.56Z" fill="#0C4A6E" />
	<path d="M29.5596 34.43C29.5596 34.43 29.4996 34.48 29.4696 34.5C29.4096 34.54 29.3396 34.58 29.2696 34.61C29.1596 34.65 29.0396 34.68 28.9096 34.69C28.8596 34.69 28.8196 34.69 28.7696 34.69C27.7896 34.69 26.8196 34.69 25.8496 34.69C24.0796 34.69 22.3096 34.69 20.5296 34.69C19.5496 34.69 18.5796 34.69 17.6096 34.69C17.5596 34.69 17.5096 34.69 17.4696 34.69C17.3396 34.68 17.2196 34.65 17.1096 34.61C17.0396 34.58 16.9696 34.55 16.9096 34.5C16.8796 34.48 16.8496 34.46 16.8196 34.43C16.5096 34.18 16.3496 33.76 16.4296 33.28C16.4296 33.26 16.4296 33.24 16.4296 33.23C16.4296 33.19 16.4396 33.14 16.4496 33.1C16.4496 33.04 16.4696 32.98 16.4896 32.92C16.4896 32.88 16.5096 32.83 16.5196 32.79C16.6096 32.39 16.7296 32 16.8796 31.63C17.3696 30.41 18.1696 29.4 19.3696 28.63C19.6396 28.46 19.8596 28.39 20.1296 28.44C20.2296 28.46 20.3296 28.5 20.4396 28.55C21.2996 28.96 22.1896 29.17 23.0696 29.19C23.1096 29.19 23.1496 29.19 23.1896 29.19C23.2296 29.19 23.2696 29.19 23.2996 29.19C24.1796 29.17 25.0696 28.96 25.9296 28.55C26.0396 28.5 26.1396 28.46 26.2396 28.44C26.5096 28.38 26.7296 28.46 26.9996 28.63C28.1996 29.4 28.9996 30.42 29.4896 31.63C29.6396 32 29.7496 32.39 29.8496 32.79C29.8496 32.83 29.8696 32.87 29.8796 32.92C29.8896 32.98 29.9096 33.04 29.9196 33.1C29.9196 33.14 29.9396 33.19 29.9396 33.23C29.9396 33.25 29.9396 33.27 29.9396 33.28C30.0196 33.76 29.8696 34.18 29.5496 34.43H29.5596Z" fill="#D9F99D" />
	<path d="M26.8902 23.86C26.7902 24.15 26.6702 24.41 26.5302 24.65C26.0902 25.42 25.4702 25.98 24.6602 26.29C24.2102 26.48 23.7202 26.57 23.1802 26.56C22.6502 26.56 22.1502 26.48 21.7002 26.29C20.8902 25.98 20.2702 25.42 19.8302 24.65C19.6902 24.41 19.5702 24.14 19.4702 23.86C19.0802 22.76 18.9402 21.69 19.0902 20.66C19.2202 19.76 19.5802 18.89 20.1802 18.05C20.9102 17.05 22.0402 16.56 23.1702 16.57C24.3002 16.57 25.4302 17.05 26.1602 18.05C26.7602 18.88 27.1202 19.75 27.2502 20.66C27.4002 21.7 27.2702 22.77 26.8702 23.86H26.8902Z" fill="#FFF7ED" />
	<path d="M14.0996 34.3601C14.1696 34.4801 14.1796 34.6201 14.2196 34.7501C14.1696 34.6201 14.1296 34.4901 14.0996 34.3601Z" fill="#0C4A6E" />
	<path d="M29.6904 37.0001C30.2004 36.8901 30.6604 36.6501 31.0604 36.3301C30.6704 36.6601 30.2204 36.9001 29.6904 37.0001Z" fill="#0C4A6E" />
	<path d="M14.0002 47.8799C14.3002 47.4399 14.5902 46.9999 15.2302 47.0199C15.9202 47.0399 16.4002 47.4399 16.4102 48.1299C16.4302 49.3699 16.4102 50.6099 16.4102 51.8499C16.4102 52.3899 16.1202 52.7499 15.6402 52.8999C15.1202 53.0599 14.6202 52.9699 14.2602 52.4899C14.1702 52.3599 14.0802 52.2299 13.9902 52.0999C13.9902 50.6899 13.9902 49.2899 13.9902 47.8799H14.0002Z" fill="#0C4A6E" />
	<path d="M85.9704 82.1899C85.9704 82.0199 85.9504 81.8499 85.9204 81.6799C85.5404 79.2599 84.4104 77.2699 82.4204 75.8299C82.0404 75.5499 82.0104 75.3899 82.2504 74.9799C83.5404 72.7599 83.8604 70.4799 83.2204 68.1799C83.1704 67.9699 83.1104 67.7599 83.0404 67.5399C82.8504 66.9599 82.5904 66.4099 82.2804 65.9099C81.6104 64.7799 80.7004 63.9599 79.5904 63.4599C79.5504 63.4399 79.5104 63.4199 79.4704 63.3999C78.8804 63.1299 78.2404 62.9599 77.5904 62.9099C77.3304 62.8899 77.0704 62.8799 76.8204 62.8799C76.5704 62.8799 76.3104 62.8799 76.0504 62.9099C75.3904 62.9599 74.7604 63.1299 74.1704 63.3999C74.1304 63.4199 74.0904 63.4299 74.0604 63.4499C72.9504 63.9399 72.0304 64.7699 71.3604 65.8999C71.0504 66.3999 70.7904 66.9399 70.6004 67.5299C70.5304 67.7399 70.4704 67.9599 70.4104 68.1799C69.7704 70.4699 70.0904 72.7499 71.3804 74.9699C71.6204 75.3799 71.5904 75.5499 71.2104 75.8199C69.2104 77.2699 68.0904 79.2599 67.7004 81.6699C67.6704 81.8399 67.6604 82.0099 67.6504 82.1699C67.6504 82.2499 67.6504 82.3199 67.6504 82.3899C67.6504 82.4499 67.6504 82.4999 67.6504 82.5599C67.6504 82.6199 67.6504 82.6899 67.6604 82.7499C67.6604 82.8099 67.6804 82.8699 67.6804 82.9399C67.8604 84.2399 68.6804 85.2599 69.8904 85.7099C70.2704 85.8599 70.6804 85.9499 71.1104 85.9599C71.1304 85.9599 71.1404 85.9599 71.1604 85.9599C71.4204 85.9599 71.6804 85.9599 71.9404 85.9599C72.9804 85.9699 74.0304 85.9599 75.0704 85.9599C75.1704 85.9599 75.2704 85.9599 75.3704 85.9599H78.2704C78.3704 85.9599 78.4704 85.9599 78.5704 85.9599C79.6104 85.9599 80.6504 85.9599 81.7004 85.9599C81.8904 85.9599 82.0804 85.9599 82.2704 85.9599C82.3604 85.9599 82.4504 85.9599 82.5404 85.9599C82.9704 85.9499 83.3804 85.8499 83.7604 85.6999C83.8004 85.6899 83.8304 85.6699 83.8604 85.6599C85.0104 85.1899 85.7804 84.1899 85.9604 82.9399C85.9604 82.8799 85.9804 82.8199 85.9804 82.7499C85.9804 82.6899 85.9804 82.6199 85.9904 82.5599C85.9904 82.4999 85.9904 82.4499 85.9904 82.3899C85.9904 82.3199 85.9904 82.2499 85.9904 82.1699L85.9704 82.1899ZM72.7904 68.5199C73.0604 67.6099 73.4904 66.8799 74.0504 66.3499C74.1604 66.2399 74.2804 66.1399 74.4004 66.0499C74.4404 66.0199 74.4904 65.9899 74.5304 65.9599C74.8004 65.7799 75.1004 65.6299 75.4104 65.5199C75.4504 65.4999 75.4904 65.4899 75.5204 65.4799C75.5904 65.4599 75.6604 65.4399 75.7404 65.4199C75.7904 65.4099 75.8304 65.3999 75.8804 65.3899C75.9504 65.3699 76.0304 65.3599 76.1004 65.3499C76.1604 65.3499 76.2104 65.3299 76.2704 65.3299C76.3404 65.3299 76.4104 65.3199 76.4704 65.3099C76.5204 65.3099 76.5704 65.3099 76.6204 65.3099C76.6804 65.3099 76.7304 65.3099 76.7904 65.3099H76.8104C76.8704 65.3099 76.9204 65.3099 76.9804 65.3099C77.0304 65.3099 77.0804 65.3099 77.1304 65.3099C77.2004 65.3099 77.2604 65.3199 77.3304 65.3299C77.3904 65.3299 77.4504 65.3399 77.5004 65.3499C77.5504 65.3499 77.6004 65.3699 77.6404 65.3799C77.6704 65.3799 77.7004 65.3899 77.7304 65.3999C77.7804 65.3999 77.8204 65.4199 77.8604 65.4299C77.9304 65.4499 78.0004 65.4699 78.0604 65.4899C78.1004 65.4999 78.1404 65.5099 78.1804 65.5299C78.4404 65.6199 78.6904 65.7399 78.9204 65.8799C78.9704 65.9099 79.0104 65.9399 79.0604 65.9699C79.1004 65.9999 79.1504 66.0299 79.1904 66.0599C79.2304 66.0899 79.2604 66.1099 79.3004 66.1399C79.3404 66.1699 79.3804 66.2099 79.4304 66.2499C80.0504 66.7999 80.5204 67.5699 80.8204 68.5399C81.0704 69.3599 81.0904 70.1999 81.0704 71.0399C81.0704 71.0899 81.0704 71.1499 81.0704 71.1999C81.0104 71.7699 80.8704 72.3299 80.6504 72.8799C80.2604 73.8699 79.6404 74.6099 78.8804 75.0799C78.2004 75.4499 77.4904 75.6299 76.8204 75.6399C76.1404 75.6399 75.4404 75.4499 74.7504 75.0799C74.0004 74.6099 73.3704 73.8699 72.9804 72.8799C72.7604 72.3299 72.6204 71.7699 72.5604 71.2099C72.5604 71.1499 72.5604 71.0999 72.5604 71.0399C72.5304 70.1899 72.5604 69.3599 72.8104 68.5399L72.7904 68.5199ZM82.7004 83.5199C82.5004 83.5699 82.2704 83.5899 82.0004 83.5899H81.0304C78.2104 83.5899 75.4004 83.5899 72.5804 83.5899H71.6104C71.3404 83.5899 71.1104 83.5699 70.9104 83.5199C70.2404 83.3299 69.9304 82.7599 70.0904 81.9699C70.2304 81.2999 70.4504 80.6699 70.7204 80.0399C70.7504 79.9599 70.7804 79.8899 70.8004 79.8099C71.3004 78.8899 72.0104 78.1099 72.9704 77.4899C73.3204 77.2599 73.5904 77.2299 73.9704 77.3799C73.9704 77.3799 73.9704 77.3799 73.9804 77.3799C74.8704 77.7999 75.7604 78.0199 76.6704 78.0299C76.7704 78.0299 76.8604 78.0299 76.9604 78.0299C77.8704 78.0099 78.7804 77.7999 79.6704 77.3699C80.0404 77.2199 80.3104 77.2599 80.6604 77.4799C81.6104 78.0999 82.3304 78.8699 82.8204 79.7899C82.8404 79.8699 82.8704 79.9499 82.9004 80.0299C83.1704 80.6499 83.3904 81.2899 83.5304 81.9599C83.6904 82.7499 83.3804 83.3199 82.7104 83.5099L82.7004 83.5199Z" fill="#0C4A6E" />
	<path d="M81.0596 71.0201C81.0596 71.0701 81.0596 71.1301 81.0596 71.1801C80.9996 71.7501 80.8596 72.3101 80.6396 72.8601C80.2496 73.8501 79.6296 74.5901 78.8696 75.0601C78.1896 75.4301 77.4796 75.6101 76.8096 75.6201C76.1296 75.6201 75.4296 75.4301 74.7396 75.0601C73.9896 74.5901 73.3596 73.8501 72.9696 72.8601C72.7496 72.3101 72.6096 71.7501 72.5496 71.1901C72.5496 71.1301 72.5496 71.0801 72.5496 71.0201C72.5196 70.1701 72.5496 69.3401 72.7996 68.5201C73.0696 67.6101 73.4996 66.8801 74.0596 66.3501C74.1696 66.2401 74.2896 66.1401 74.4096 66.0501C74.4496 66.0201 74.4996 65.9901 74.5396 65.9601C74.8096 65.7801 75.1096 65.6301 75.4196 65.5201C75.4596 65.5001 75.4996 65.4901 75.5296 65.4801C75.5996 65.4601 75.6696 65.4401 75.7496 65.4201C75.7996 65.4101 75.8396 65.4001 75.8896 65.3901C75.9596 65.3701 76.0396 65.3601 76.1096 65.3501C76.1696 65.3501 76.2196 65.3301 76.2796 65.3301C76.3496 65.3301 76.4196 65.3201 76.4796 65.3101C76.5296 65.3101 76.5796 65.3101 76.6296 65.3101C76.6896 65.3101 76.7396 65.3101 76.7996 65.3101H76.8196C76.8796 65.3101 76.9296 65.3101 76.9896 65.3101C77.0396 65.3101 77.0896 65.3101 77.1396 65.3101C77.2096 65.3101 77.2696 65.3201 77.3396 65.3301C77.3996 65.3301 77.4596 65.3401 77.5096 65.3501C77.5596 65.3501 77.6096 65.3701 77.6496 65.3801C77.6796 65.3801 77.7096 65.3901 77.7396 65.4001C77.7896 65.4001 77.8296 65.4201 77.8696 65.4301C77.9396 65.4501 78.0096 65.4701 78.0696 65.4901C78.1096 65.5001 78.1496 65.5101 78.1896 65.5301C78.4496 65.6201 78.6996 65.7401 78.9296 65.8801C78.9796 65.9101 79.0196 65.9401 79.0696 65.9701C79.1096 66.0001 79.1596 66.0301 79.1996 66.0601C79.2396 66.0901 79.2696 66.1101 79.3096 66.1401C79.3496 66.1701 79.3896 66.2101 79.4396 66.2501C80.0596 66.8001 80.5296 67.5701 80.8296 68.5401C81.0796 69.3601 81.0996 70.2001 81.0796 71.0401L81.0596 71.0201Z" fill="#FFF7ED" />
	<path d="M82.7002 83.52C82.5002 83.57 82.2702 83.59 82.0002 83.59H81.0302C78.2102 83.59 75.4002 83.59 72.5802 83.59H71.6102C71.3402 83.59 71.1102 83.57 70.9102 83.52C70.2402 83.33 69.9302 82.76 70.0902 81.97C70.2302 81.3 70.4502 80.67 70.7202 80.04C70.7502 79.96 70.7802 79.89 70.8002 79.81C71.3002 78.89 72.0102 78.11 72.9702 77.49C73.3202 77.26 73.5902 77.23 73.9702 77.38C73.9702 77.38 73.9702 77.38 73.9802 77.38C74.8702 77.8 75.7602 78.02 76.6702 78.03C76.7702 78.03 76.8602 78.03 76.9602 78.03C77.8702 78.01 78.7802 77.8 79.6702 77.37C80.0402 77.22 80.3102 77.26 80.6602 77.48C81.6102 78.1 82.3302 78.87 82.8202 79.79C82.8402 79.87 82.8702 79.95 82.9002 80.03C83.1702 80.65 83.3902 81.29 83.5302 81.96C83.6902 82.75 83.3802 83.32 82.7102 83.51L82.7002 83.52Z" fill="#A5F3FC" />
	<path d="M46.7097 14.1401C47.7997 14.1101 48.2797 14.4801 48.3097 15.2601C48.3397 16.0401 47.8997 16.4501 46.9697 16.5301C45.7797 16.6301 44.6097 16.8201 43.4397 17.0301C42.6597 17.1701 42.0797 16.8201 41.9497 16.1401C41.7997 15.3801 42.1697 14.8701 42.9897 14.6901C44.2697 14.4101 45.5697 14.2601 46.7097 14.1401Z" fill="#0C4A6E" />
	<path d="M46.7399 85.8399C45.5199 85.7299 44.1799 85.5499 42.8499 85.2699C42.1399 85.1199 41.8199 84.5599 41.9599 83.8399C42.0899 83.1999 42.6299 82.7999 43.2999 82.9199C44.6099 83.1599 45.9199 83.3499 47.2499 83.4799C47.9799 83.5499 48.3699 84.0799 48.3099 84.7899C48.2499 85.5299 47.7599 85.8799 46.7399 85.8399Z" fill="#0C4A6E" />
	<path d="M53.2297 85.8401C52.1897 85.8801 51.7197 85.5101 51.6597 84.7701C51.5997 83.9801 52.0397 83.5301 52.9497 83.4501C54.1397 83.3501 55.3097 83.1801 56.4797 82.9501C57.3097 82.7901 57.8797 83.1401 58.0097 83.8601C58.1497 84.6201 57.7897 85.1301 56.9497 85.2901C56.2197 85.4401 55.4797 85.5601 54.7397 85.6701C54.1897 85.7501 53.6297 85.8001 53.2197 85.8401H53.2297Z" fill="#0C4A6E" />
	<path d="M53.2802 14.1401C54.5002 14.2601 55.8202 14.4301 57.1202 14.7101C57.8202 14.8601 58.1502 15.4301 58.0202 16.1401C57.9002 16.7701 57.3502 17.1701 56.6702 17.0501C55.3602 16.8201 54.0502 16.6201 52.7202 16.5001C51.9902 16.4301 51.6102 15.9001 51.6702 15.1901C51.7402 14.4301 52.2102 14.1101 53.2802 14.1401Z" fill="#0C4A6E" />
	<path d="M83.5503 49.94C83.5503 49.36 83.5403 48.77 83.5503 48.19C83.5703 47.51 83.9703 47.08 84.6103 47.03C85.3003 46.97 85.8203 47.32 85.9003 48.02C86.0403 49.32 86.0303 50.63 85.9003 51.93C85.8403 52.63 85.3203 52.99 84.6403 52.95C83.9703 52.91 83.5703 52.47 83.5503 51.75C83.5503 51.45 83.5703 51.14 83.5703 50.84C83.5703 50.54 83.5703 50.23 83.5703 49.93H83.5503V49.94Z" fill="#0C4A6E" />
	<path d="M17.8201 59.71C17.8001 60.51 17.4501 60.87 16.8701 61.01C16.2701 61.16 15.7801 60.94 15.5501 60.37C15.2101 59.52 14.9901 58.64 14.8601 57.74C14.7701 57.13 15.1401 56.73 15.7201 56.55C16.3201 56.37 16.8601 56.54 17.0701 57.11C17.4001 58 17.6001 58.94 17.8101 59.71H17.8201Z" fill="#0C4A6E" />
	<path d="M17.8003 40.3501C17.6003 41.0801 17.4103 41.9701 17.1103 42.8201C16.9103 43.4001 16.3903 43.5801 15.7903 43.4401C15.1703 43.2901 14.7803 42.8101 14.8703 42.2201C15.0203 41.3201 15.2203 40.4301 15.5703 39.5901C15.8003 39.0301 16.2903 38.8201 16.9003 38.9701C17.5303 39.1301 17.8503 39.5701 17.8103 40.3501H17.8003Z" fill="#0C4A6E" />
	<path d="M82.1504 40.2599C82.1804 39.4399 82.5504 39.0999 83.1304 38.9599C83.7104 38.8199 84.1904 39.0399 84.4004 39.5699C84.7504 40.4299 84.9904 41.3499 85.1004 42.2699C85.1804 42.8899 84.7904 43.2699 84.2104 43.4399C83.6404 43.5999 83.1104 43.4399 82.9104 42.9099C82.5704 41.9999 82.3604 41.0399 82.1504 40.2699V40.2599Z" fill="#0C4A6E" />
	<path d="M82.1796 59.63C82.3796 58.9 82.5696 58.01 82.8696 57.15C83.0696 56.57 83.5996 56.38 84.1896 56.54C84.8096 56.7 85.1996 57.11 85.0996 57.76C84.9696 58.66 84.7496 59.55 84.3996 60.39C84.1696 60.95 83.6796 61.16 83.0696 61.01C82.4396 60.85 82.1196 60.41 82.1596 59.63H82.1796Z" fill="#0C4A6E" />
	<path d="M62.4796 16.25C63.3296 16.56 64.3696 16.85 65.2396 17.49C65.6996 17.83 65.7196 18.38 65.4596 18.89C65.1696 19.46 64.6596 19.65 64.0996 19.46C63.2896 19.19 62.4896 18.85 61.7196 18.47C61.2096 18.22 61.0396 17.73 61.1996 17.16C61.3596 16.6 61.7796 16.26 62.4696 16.25H62.4796Z" fill="#0C4A6E" />
	<path d="M38.8401 82.5001C38.8401 83.3501 38.0601 83.9301 37.2501 83.6501C36.5001 83.3901 35.7701 83.0801 35.0601 82.7401C34.4201 82.4401 34.2101 81.8401 34.4701 81.2201C34.7201 80.6001 35.3101 80.3001 35.9601 80.5401C36.7201 80.8201 37.4701 81.1501 38.2101 81.4901C38.6301 81.6801 38.8101 82.0501 38.8401 82.5001Z" fill="#0C4A6E" />
	<path d="M62.4205 83.7599C61.7205 83.6899 61.3505 83.3799 61.2005 82.8299C61.0405 82.2599 61.2105 81.7799 61.7305 81.5199C62.5005 81.1399 63.3005 80.8099 64.1105 80.5199C64.6505 80.3299 65.1405 80.5299 65.4305 81.0499C65.7105 81.5399 65.7605 82.0999 65.3005 82.4599C64.4305 83.1499 63.3505 83.3999 62.4305 83.7599H62.4205Z" fill="#0C4A6E" />
	<path d="M38.8304 17.5001C38.8004 18.0201 38.5304 18.3701 38.0604 18.5701C37.4004 18.8501 36.7304 19.1401 36.0604 19.3901C35.3604 19.6601 34.7504 19.4201 34.4804 18.8101C34.1904 18.1601 34.4204 17.5401 35.1404 17.2101C35.8404 16.8901 36.5404 16.5801 37.2704 16.3301C38.0704 16.0501 38.8504 16.6501 38.8404 17.5001H38.8304Z" fill="#0C4A6E" />
	<path d="M69.0897 45.71C69.0897 44.88 69.0897 44.05 69.0897 43.22C69.0897 41.32 67.9997 39.95 66.3097 39.56C66.3097 39.56 66.2997 39.56 66.2897 39.56C65.9697 39.49 65.6397 39.45 65.2797 39.45H64.5697C64.0797 39.45 63.5797 39.45 63.0897 39.45C62.6997 39.45 62.2997 39.45 61.8997 39.45C61.5997 39.45 61.3097 39.45 61.0097 39.45C60.9297 39.45 60.8597 39.45 60.7797 39.45H60.7497C60.4997 39.45 60.2497 39.45 59.9897 39.45C59.9897 39.45 59.9697 39.45 59.9597 39.45C59.5797 39.45 59.1997 39.45 58.8197 39.45H58.7997H58.7797C58.7397 39.45 58.7097 39.45 58.6697 39.45C58.6497 39.45 58.6197 39.45 58.5997 39.45C58.2697 39.42 58.0397 39.29 57.8297 38.97C56.9997 37.75 56.1297 36.56 55.2597 35.37C54.9897 35 54.7097 34.77 54.4197 34.68C54.3697 34.66 54.3197 34.65 54.2797 34.65C54.2097 34.64 54.1397 34.63 54.0597 34.65C54.0297 34.65 53.9897 34.65 53.9597 34.67C53.9297 34.67 53.8997 34.68 53.8697 34.69C53.8697 34.69 53.8597 34.69 53.8497 34.69C53.7797 34.71 53.6997 34.75 53.6297 34.79C53.4197 34.91 53.2097 35.11 53.0097 35.38C52.1397 36.57 51.2697 37.76 50.4397 38.98C50.2197 39.3 49.9897 39.43 49.6697 39.46C49.6497 39.46 49.6197 39.46 49.5997 39.46C49.5697 39.46 49.5297 39.46 49.4897 39.46C49.4897 39.46 49.4797 39.46 49.4697 39.46C49.4697 39.46 49.4597 39.46 49.4497 39.46C49.0897 39.46 48.7297 39.46 48.3697 39.46H48.2797C48.0297 39.46 47.7797 39.46 47.5297 39.46C47.4497 39.46 47.3797 39.46 47.2997 39.46H47.2697C46.9597 39.46 46.6497 39.46 46.3397 39.46C45.4697 39.46 44.5897 39.46 43.7097 39.46H42.9997C42.6397 39.46 42.3097 39.5 41.9897 39.57C41.9797 39.57 41.9697 39.57 41.9597 39.57C40.2697 39.97 39.1997 41.33 39.1897 43.23C39.1897 44.06 39.1897 44.89 39.1897 45.72C38.2197 45.72 37.2497 45.72 36.2797 45.72C33.8397 45.72 32.3997 47.19 32.3897 49.62C32.3897 54 32.4597 58.38 32.3597 62.76C32.3097 64.88 33.7197 66.9 36.4197 66.82C38.2897 66.77 40.1697 66.82 42.0397 66.8C42.4297 66.8 42.6797 66.92 42.9097 67.24C43.7797 68.49 44.6697 69.72 45.5697 70.95C46.2097 71.81 47.0797 71.81 47.7097 70.95C48.7197 69.57 49.7097 68.19 50.6897 66.8L50.7197 66.76L57.5397 66.83H57.6297H57.6897C57.8497 66.83 58.0097 66.82 58.1597 66.8C59.0797 66.71 59.8497 66.37 60.4297 65.84C61.1797 65.16 61.5997 64.15 61.5797 62.94C61.5597 61.84 61.5997 60.74 61.5697 59.64C61.5597 59.16 61.6697 58.99 62.1797 59C63.2297 59.04 64.2897 59.02 65.3397 59C67.5697 58.97 69.0697 57.46 69.0797 55.23C69.0797 52.85 69.0797 50.48 69.0797 48.1C69.0797 47.3 69.0797 46.5 69.0797 45.7L69.0897 45.71ZM59.1697 62.84C59.1697 64 58.7797 64.37 57.5997 64.39C57.4897 64.39 57.3697 64.39 57.2597 64.39H57.2097L50.0897 64.37C49.7097 64.37 49.3297 64.59 48.9997 65.04C48.8097 65.3 48.6197 65.56 48.4297 65.83C47.8497 66.63 47.2697 67.45 46.6497 68.31C45.9197 67.3 45.1997 66.38 44.5797 65.4C44.0797 64.61 43.4397 64.35 42.5297 64.37C40.4497 64.42 38.3597 64.39 36.2797 64.38C35.2297 64.38 34.8097 63.96 34.8097 62.95C34.8097 58.48 34.8097 54 34.8097 49.53C34.8097 48.55 35.2297 48.13 36.2197 48.12C37.2197 48.11 38.2097 48.12 39.2097 48.12C39.3997 48.12 39.5897 48.12 39.7697 48.12H47.5097C49.8197 48.12 52.1297 48.12 54.4297 48.12C55.4997 48.12 56.5697 48.12 57.6497 48.12C58.7897 48.12 59.1697 48.51 59.1797 49.63C59.1797 54.03 59.1797 58.44 59.1797 62.84H59.1697ZM66.6797 55.28C66.6797 56.16 66.1997 56.6 65.3097 56.61C64.2597 56.62 63.1997 56.59 62.1497 56.62C61.6897 56.64 61.5497 56.51 61.5597 56.04C61.5797 53.91 61.5797 51.78 61.5597 49.64C61.5597 49.07 61.4797 48.56 61.3297 48.1C60.8397 46.57 59.5397 45.7 57.6297 45.7C56.5597 45.7 55.4797 45.7 54.4097 45.7C50.3197 45.7 46.2397 45.7 42.1497 45.7H41.5897C41.5897 44.86 41.5897 44.02 41.5897 43.18C41.5897 42.86 41.6497 42.6 41.7697 42.39C41.7897 42.34 41.8197 42.3 41.8497 42.26C42.0797 41.96 42.4697 41.82 43.0097 41.82H43.0597C43.2597 41.82 43.4597 41.82 43.6597 41.82C43.7297 41.82 43.7897 41.82 43.8597 41.82C44.1097 41.82 44.3697 41.82 44.6197 41.82C44.7397 41.82 44.8497 41.82 44.9697 41.82H45.5297C46.4897 41.82 47.4497 41.82 48.4097 41.82H48.9697C49.0297 41.82 49.0997 41.82 49.1597 41.82C49.3097 41.82 49.4597 41.82 49.6097 41.82C49.7197 41.82 49.8197 41.82 49.9197 41.82C50.0797 41.82 50.2297 41.82 50.3897 41.82H50.4297C50.4297 41.82 50.4697 41.82 50.4797 41.82C51.1197 41.78 51.5597 41.5 51.9297 40.94C52.6197 39.91 53.3597 38.93 54.1097 37.89C54.8597 38.93 55.6097 39.92 56.2897 40.94C56.6597 41.5 57.1097 41.78 57.7397 41.82C57.7597 41.82 57.7797 41.82 57.7897 41.82H57.8397C57.9997 41.82 58.1497 41.82 58.3097 41.82C58.4097 41.82 58.5197 41.82 58.6197 41.82C58.7697 41.82 58.9197 41.82 59.0697 41.82C59.1397 41.82 59.1997 41.82 59.2597 41.82C59.6297 41.82 59.9997 41.82 60.3697 41.82C60.5497 41.82 60.7297 41.82 60.9097 41.82C61.5097 41.82 62.0997 41.82 62.6997 41.82H63.2597C63.3797 41.82 63.4997 41.82 63.6197 41.82C63.8697 41.82 64.1197 41.82 64.3697 41.82C64.4397 41.82 64.4997 41.82 64.5697 41.82C64.7697 41.82 64.9697 41.82 65.1697 41.82H65.2197C65.7597 41.82 66.1497 41.97 66.3797 42.26C66.3797 42.26 66.4397 42.34 66.4597 42.39C66.5797 42.59 66.6397 42.86 66.6397 43.18C66.6397 44.02 66.6397 44.86 66.6397 45.7C66.6397 46.5 66.6397 47.3 66.6397 48.11C66.6397 50.5 66.6397 52.89 66.6397 55.28H66.6797Z" fill="#0C4A6E" />
	<path d="M57.6496 48.1201C56.5796 48.1201 55.5096 48.1201 54.4296 48.1201C52.1196 48.1201 49.8096 48.1201 47.5096 48.1201H39.7696C39.5796 48.1201 39.3896 48.1201 39.2096 48.1201C38.2096 48.1201 37.2196 48.1201 36.2196 48.1201C35.2296 48.1201 34.8096 48.5501 34.8096 49.5301C34.8096 54.0001 34.8096 58.4801 34.8096 62.9501C34.8096 63.9601 35.2296 64.3801 36.2796 64.3801C38.3696 64.3901 40.4496 64.4201 42.5296 64.3701C43.4396 64.3501 44.0796 64.6101 44.5796 65.4001C45.1996 66.3801 45.9296 67.3001 46.6496 68.3101C47.2696 67.4501 47.8496 66.6301 48.4296 65.8301C48.6196 65.5701 48.8096 65.3001 48.9996 65.0401C49.3296 64.5901 49.6996 64.3601 50.0896 64.3701L57.2096 64.3901H57.2596C57.3696 64.3901 57.4896 64.3901 57.5996 64.3901C58.7796 64.3701 59.1696 64.0001 59.1696 62.8401C59.1696 58.4301 59.1696 54.0301 59.1696 49.6301C59.1696 48.5001 58.7796 48.1201 57.6396 48.1201H57.6496Z" fill="#BBF7D0" />
	<path d="M66.7004 48.1199C66.7004 50.5099 66.7004 52.8999 66.7004 55.2899C66.7004 56.1699 66.2204 56.6099 65.3304 56.6199C64.2804 56.6299 63.2203 56.5999 62.1703 56.6299C61.7104 56.6499 61.5704 56.5199 61.5804 56.0499C61.6004 53.9199 61.6004 51.7899 61.5804 49.6499C61.5804 49.0799 61.5003 48.5699 61.3503 48.1099C60.8603 46.5799 59.5604 45.7099 57.6504 45.7099C56.5804 45.7099 55.5004 45.7099 54.4304 45.7099C50.3404 45.7099 46.2604 45.7099 42.1704 45.7099H41.6104C41.6104 44.8699 41.6104 44.0299 41.6104 43.1899C41.6104 42.8699 41.6704 42.6099 41.7904 42.3999C41.8104 42.3499 41.8404 42.3099 41.8704 42.2699C42.1004 41.9699 42.4904 41.8299 43.0304 41.8299H43.0804C43.2804 41.8299 43.4804 41.8299 43.6804 41.8299C43.7504 41.8299 43.8104 41.8299 43.8804 41.8299C44.1304 41.8299 44.3904 41.8299 44.6404 41.8299C44.7604 41.8299 44.8704 41.8299 44.9904 41.8299H45.5504C46.5104 41.8299 47.4704 41.8299 48.4304 41.8299H48.9904C49.0504 41.8299 49.1204 41.8299 49.1804 41.8299C49.3304 41.8299 49.4804 41.8299 49.6304 41.8299C49.7404 41.8299 49.8403 41.8299 49.9403 41.8299C50.1003 41.8299 50.2504 41.8299 50.4104 41.8299H50.4504C50.4504 41.8299 50.4904 41.8299 50.5004 41.8299C51.1404 41.7899 51.5804 41.5099 51.9504 40.9499C52.6404 39.9199 53.3804 38.9399 54.1304 37.8999C54.8804 38.9399 55.6304 39.9299 56.3104 40.9499C56.6804 41.5099 57.1303 41.7899 57.7603 41.8299C57.7803 41.8299 57.8004 41.8299 57.8104 41.8299H57.8604C58.0204 41.8299 58.1704 41.8299 58.3304 41.8299C58.4304 41.8299 58.5403 41.8299 58.6404 41.8299C58.7903 41.8299 58.9404 41.8299 59.0904 41.8299C59.1604 41.8299 59.2204 41.8299 59.2803 41.8299C59.6504 41.8299 60.0203 41.8299 60.3904 41.8299C60.5704 41.8299 60.7504 41.8299 60.9304 41.8299C61.5304 41.8299 62.1204 41.8299 62.7204 41.8299H63.2803C63.4004 41.8299 63.5203 41.8299 63.6404 41.8299C63.8904 41.8299 64.1404 41.8299 64.3904 41.8299C64.4604 41.8299 64.5204 41.8299 64.5904 41.8299C64.7904 41.8299 64.9903 41.8299 65.1903 41.8299H65.2404C65.7804 41.8299 66.1704 41.9799 66.4004 42.2699C66.4004 42.2699 66.4604 42.3499 66.4804 42.3999C66.6004 42.5999 66.6604 42.8699 66.6604 43.1899C66.6604 44.0299 66.6604 44.8699 66.6604 45.7099C66.6604 46.5099 66.6604 47.3099 66.6604 48.1199H66.7004Z" fill="#BBF7D0" />
	<path d="M54.5097 54.3099C54.2597 54.6699 53.8897 54.7799 53.4697 54.7799C49.1397 54.7799 44.8097 54.7799 40.4797 54.7799C39.6997 54.7799 39.2197 54.2899 39.2197 53.5799C39.2197 52.8699 39.7097 52.3999 40.4997 52.3999C42.6497 52.3999 44.8097 52.3999 46.9597 52.3999C49.1097 52.3999 51.3097 52.3999 53.4897 52.3999C53.9997 52.3999 54.3997 52.5899 54.6297 53.0699C54.8397 53.5099 54.7897 53.9399 54.5097 54.3299V54.3099Z" fill="#0C4A6E" />
	<path d="M47.9597 59.53C47.9897 60.24 47.5297 60.77 46.7497 60.78C44.6497 60.81 42.5397 60.81 40.4397 60.78C39.6597 60.78 39.1997 60.24 39.2397 59.52C39.2697 58.83 39.7097 58.41 40.4897 58.39C41.5197 58.37 42.5497 58.39 43.5697 58.39C44.5897 58.39 45.6697 58.38 46.7197 58.39C47.4897 58.4 47.9297 58.83 47.9597 59.52V59.53Z" fill="#0C4A6E" />
</svg>
