<svg width="100" height="100" viewBox="0 0 100 100" fill="none" xmlns="http://www.w3.org/2000/svg">
	<path d="M75.3882 6.27353C87.5236 13.7748 92.8602 27.9765 96.0659 42.3412C99.5912 58.1381 103.744 76.1391 93.7457 88.534C83.6069 101.103 65.7802 100.754 50.1264 99.2909C35.4483 97.9189 21.1338 92.961 11.9604 80.8895C2.2189 68.0706 -2.79926 51.1701 1.61666 35.4563C5.97863 19.9344 19.1779 9.47232 33.6376 3.75232C47.3567 -1.67472 62.7598 -1.5325 75.3882 6.27353Z" fill="#99F6E4" />
	<path d="M14 34.72C14.22 34.59 14.16 34.34 14.22 34.16C15.04 31.49 17.63 29.75 20.29 30.12C23.15 30.51 25.22 32.82 25.24 35.68C25.27 39.22 25.25 42.75 25.24 46.29C25.24 46.74 25.26 46.96 25.84 47C27.14 47.09 28.27 47.65 29.2 48.58C30.02 49.39 30.84 50.19 31.63 51.02C34.13 53.62 37.32 54.86 40.77 55.37C44.69 55.94 47.5 58.22 48.37 61.9C48.53 62.56 48.59 63.24 48.59 63.92C48.59 69.87 48.59 75.82 48.59 81.77C48.59 83.03 48.1 83.52 46.85 83.52C42.09 83.52 37.34 83.52 32.58 83.52C31.38 83.52 30.88 83.01 30.87 81.81C30.87 79.61 30.86 77.41 30.87 75.2C30.87 74.73 30.76 74.46 30.3 74.24C28.34 73.3 26.41 72.32 24.47 71.34C18.58 68.37 15.12 63.62 14.14 57.08C14.12 56.97 14.14 56.84 14 56.8V34.72Z" fill="#0C4A6E" />
	<path d="M85.9897 45.6301C85.9897 42.2801 86.0197 38.9301 85.9897 35.5801C85.9497 32.5201 83.4197 30.0901 80.3797 30.0901C77.3397 30.0901 74.7997 32.5401 74.7697 35.5901C74.7297 39.2001 74.7497 42.8101 74.7697 46.4201C74.7697 46.8001 74.7397 46.9701 74.2697 47.0101C72.9497 47.1101 71.7897 47.6501 70.8397 48.5801C70.0397 49.3701 69.2297 50.1501 68.4497 50.9601C65.9297 53.6201 62.6997 54.8901 59.1997 55.3801C54.4797 56.0501 51.4297 59.3501 51.4297 64.1201C51.4297 70.0001 51.4297 75.8801 51.4297 81.7601C51.4297 83.0201 51.9197 83.5201 53.1597 83.5201C57.9197 83.5201 62.6697 83.5201 67.4297 83.5201C68.6297 83.5201 69.1397 83.0101 69.1397 81.8201C69.1397 79.5901 69.1597 77.3701 69.1397 75.1401C69.1397 74.7101 69.2497 74.4801 69.6497 74.2901C70.7197 73.7901 71.7697 73.2601 72.8197 72.7201C79.8097 69.6001 82.8697 65.1501 83.8397 63.4401C83.8897 63.3501 83.9297 63.2801 83.9697 63.2101C83.9697 63.2001 83.9797 63.1901 83.9897 63.1801C84.0497 63.0701 84.1097 62.9501 84.1597 62.8301C84.1797 62.7901 84.1897 62.7701 84.1897 62.7601C85.4097 60.2301 86.0097 57.5401 86.0097 54.7101C86.0097 51.6901 86.0097 48.6601 86.0097 45.6401L85.9897 45.6301ZM81.6097 61.5801C81.6097 61.5801 81.5997 61.6101 81.5797 61.6501C81.2597 62.2401 78.7597 66.5501 72.3497 69.8001C72.1397 69.9101 71.9197 70.0101 71.6997 70.1201C71.6797 70.1201 71.6597 70.1401 71.6397 70.1501C70.1997 70.8701 68.7697 71.5901 67.3297 72.2901C66.6197 72.6401 66.2897 73.1501 66.3097 73.9601C66.3397 76.0501 66.3097 78.1301 66.3297 80.2201C66.3297 80.6201 66.2297 80.7301 65.8297 80.7201C62.1297 80.7001 58.4297 80.7001 54.7197 80.7201C54.3197 80.7201 54.2197 80.6101 54.2197 80.2201C54.2397 74.6901 54.2197 69.1601 54.2397 63.6301C54.2497 60.9901 56.1697 58.8101 58.7897 58.3301C59.5197 58.2001 60.2697 58.1201 60.9997 57.9401C64.7397 57.0101 68.1697 55.5301 70.8197 52.5801C71.4597 51.8601 72.1497 51.1901 72.8597 50.5501C74.5297 49.0501 77.0497 49.8801 77.5197 52.0601C77.7397 53.1101 77.3697 53.9901 76.6197 54.7301C74.3297 57.0101 72.0497 59.3101 69.7597 61.5901C69.3197 62.0301 69.0197 62.5101 69.1897 63.1501C69.4997 64.2801 70.7897 64.5301 71.6997 63.6201C74.0097 61.3201 76.3197 59.0301 78.6097 56.7101C81.2597 54.0301 80.9397 50.2001 77.8997 47.9501C77.6997 47.8001 77.5697 47.6701 77.5697 47.4001C77.5797 43.4601 77.5697 39.5301 77.5897 35.5901C77.5897 34.4401 78.4197 33.4301 79.5097 33.0701C81.3897 32.4501 83.1997 33.8201 83.1997 35.9001C83.1997 42.0201 83.1797 48.1301 83.2097 54.2501C83.2197 56.8401 82.7497 59.3001 81.6297 61.6101L81.6097 61.5801Z" fill="#0C4A6E" />
	<path d="M83.1897 54.22C83.1997 56.81 82.7297 59.27 81.6097 61.58C81.6097 61.58 81.5997 61.61 81.5797 61.65C81.2597 62.24 78.7597 66.55 72.3497 69.8C72.1397 69.91 71.9197 70.01 71.6997 70.12C71.6797 70.12 71.6597 70.14 71.6397 70.15C70.1997 70.87 68.7697 71.59 67.3297 72.29C66.6197 72.64 66.2897 73.15 66.3097 73.96C66.3397 76.05 66.3097 78.13 66.3297 80.22C66.3297 80.62 66.2297 80.73 65.8297 80.72C62.1297 80.7 58.4297 80.7 54.7197 80.72C54.3197 80.72 54.2197 80.61 54.2197 80.22C54.2397 74.69 54.2197 69.16 54.2397 63.63C54.2497 60.99 56.1697 58.81 58.7897 58.33C59.5197 58.2 60.2697 58.12 60.9997 57.94C64.7397 57.01 68.1697 55.53 70.8197 52.58C71.4597 51.86 72.1497 51.19 72.8597 50.55C74.5297 49.05 77.0497 49.88 77.5197 52.06C77.7397 53.11 77.3697 53.99 76.6197 54.73C74.3297 57.01 72.0497 59.31 69.7597 61.59C69.3197 62.03 69.0197 62.51 69.1897 63.15C69.4997 64.28 70.7897 64.53 71.6997 63.62C74.0097 61.32 76.3197 59.03 78.6097 56.71C81.2597 54.03 80.9397 50.2 77.8997 47.95C77.6997 47.8 77.5697 47.67 77.5697 47.4C77.5797 43.46 77.5697 39.53 77.5897 35.59C77.5897 34.44 78.4197 33.43 79.5097 33.07C81.3897 32.45 83.1997 33.82 83.1997 35.9C83.1997 42.02 83.1797 48.13 83.2097 54.25L83.1897 54.22Z" fill="#FFF7ED" />
	<path d="M72.2802 69.8301C72.2802 69.8301 72.3302 69.81 72.3502 69.8C72.1402 69.91 71.9202 70.01 71.7002 70.12C71.9002 70.02 72.0902 69.9301 72.2802 69.8301Z" fill="#0C4A6E" />
	<path d="M83.9396 63.2C83.9396 63.2 83.9196 63.25 83.8996 63.27C83.8696 63.33 83.8396 63.38 83.8096 63.43C83.8596 63.34 83.8996 63.27 83.9396 63.2Z" fill="#0C4A6E" />
	<path d="M41.9097 16.0199C44.6997 16.0199 47.4697 17.6899 49.6297 20.4999C49.8797 20.8299 50.0097 21.0099 50.3497 20.5399C55.4497 13.4199 66.2197 14.9399 69.5397 23.3099C71.4597 28.1599 70.8597 32.7499 68.0997 37.1099C66.3097 39.9499 63.9397 42.2999 61.4597 44.5099C58.0497 47.5499 54.5697 50.5099 51.1197 53.4899C50.3497 54.1599 49.7097 54.1899 48.9897 53.5599C44.7997 49.8899 40.4197 46.4299 36.4397 42.5199C34.1097 40.2299 31.9297 37.7999 30.6497 34.7399C28.4497 29.4699 28.9697 24.4799 32.5197 19.9499C34.5597 17.3199 37.5697 16.0399 41.9097 16.0199Z" fill="#0C4A6E" />
	<path d="M45.7801 71.78C45.7801 74.57 45.7701 77.36 45.7901 80.14C45.7901 80.6 45.6701 80.72 45.2201 80.71C41.5701 80.69 37.9101 80.69 34.2501 80.71C33.7901 80.71 33.6701 80.6 33.6701 80.14C33.7001 78.1 33.6601 76.06 33.6901 74.02C33.7001 73.16 33.3701 72.62 32.6001 72.25C30.0401 70.99 27.4601 69.79 24.9701 68.41C19.7601 65.52 16.9601 61.02 16.8401 55.07C16.7101 48.63 16.8001 42.18 16.8101 35.74C16.8101 34.14 18.0401 32.91 19.5901 32.9C21.1701 32.89 22.4101 34.12 22.4201 35.76C22.4301 39.58 22.4201 43.4 22.4301 47.22C22.4301 47.56 22.3401 47.76 22.0601 47.96C19.0901 50.11 18.7601 54.01 21.3401 56.63C23.6301 58.95 25.9401 61.24 28.2501 63.54C29.0001 64.29 29.8701 64.36 30.4701 63.74C31.0701 63.12 31.0001 62.32 30.2601 61.58C27.9401 59.26 25.6201 56.94 23.3101 54.62C22.5201 53.83 22.2401 52.88 22.5701 51.79C22.8901 50.74 23.6201 50.09 24.6801 49.85C25.6701 49.63 26.5301 49.93 27.2501 50.63C27.9401 51.3 28.6501 51.95 29.2901 52.67C31.3401 55 33.9801 56.33 36.8801 57.25C38.3101 57.71 39.7601 58.07 41.2301 58.34C43.8801 58.83 45.7501 61.02 45.7801 63.72C45.8101 66.41 45.7801 69.11 45.7801 71.8V71.78Z" fill="#FFF7ED" />
	<path d="M32.1504 28.5901C32.2604 25.7801 33.1404 23.2101 35.2404 21.1301C37.8804 18.5101 43.3704 17.4201 46.9304 21.6101C47.5804 22.3801 48.1504 23.2101 48.6504 24.0801C49.3904 25.3701 50.6304 25.3601 51.3704 24.0801C51.7704 23.3901 52.2104 22.7301 52.6904 22.0901C56.6004 16.8701 63.6104 18.4501 66.2204 22.9501C68.3704 26.6601 68.3604 30.4301 66.5004 34.2101C65.1404 36.9901 63.0004 39.1701 60.7904 41.2801C57.4504 44.4701 53.8604 47.3801 50.3904 50.4101C50.1404 50.6301 49.9704 50.6901 49.6804 50.4401C45.4404 46.7101 40.9804 43.2301 37.1004 39.1201C35.1604 37.0701 33.4704 34.8301 32.6604 32.0601C32.3404 30.9501 32.2004 29.8201 32.1704 28.5901H32.1504Z" fill="#F87171" />
	<path d="M84.13 62.8201C84.1 62.8901 84.04 63.0101 83.96 63.1701C84.02 63.0601 84.08 62.9401 84.13 62.8201Z" fill="#0C4A6E" />
</svg>
