<svg width="100" height="100" viewBox="0 0 100 100" fill="none" xmlns="http://www.w3.org/2000/svg">
	<path d="M76.0903 6.60283C87.9853 14.902 99.0481 26.9941 99.9411 42.8383C100.85 58.955 91.1036 72.5553 80.4058 83.1686C69.7135 93.7765 56.7199 101.718 42.6478 99.6793C27.6702 97.5088 14.2118 87.4898 6.82509 72.5058C-0.72464 57.1912 -2.78073 37.9204 4.60027 22.4996C11.4089 8.27461 26.8104 4.66915 40.7814 1.56252C53.0296 -1.16103 65.4512 -0.820081 76.0903 6.60283Z" fill="#99F6E4" />
	<path d="M52.7695 69.78C52.7695 69.78 52.7988 69.81 52.8184 69.83C52.9649 69.98 53.1115 70.14 53.2678 70.29L52.7793 69.78H52.7695Z" fill="#0C4A6E" />
	<path d="M85.3551 67.8C83.6941 66.11 82.0526 64.4 80.3818 62.72C79.5513 61.89 78.4179 61.8 77.5092 62.52C77.1477 62.81 77.0011 62.72 76.7276 62.44C75.5649 61.19 75.4672 59.68 75.6039 58.08C76.5126 58.16 77.0598 57.8 77.1086 57.1C77.1575 56.44 76.7569 56.08 75.7994 56.01C75.389 55.98 75.516 55.68 75.4867 55.5C75.3206 54.3 74.8907 53.22 74.07 52.35C72.3112 50.49 70.5525 48.63 68.7059 46.86C66.9765 45.2 64.4556 44.94 62.3647 46.04C61.4756 46.51 61.2215 46.34 61.2215 45.26C61.2215 41.47 61.2215 37.68 61.2215 33.89C61.2215 32.25 60.7819 30.77 59.7266 29.52C58.9157 28.56 58.6323 27.44 58.6714 26.19C58.6812 25.85 58.8082 25.76 59.1013 25.69C60.3519 25.39 60.9577 24.59 60.9675 23.29C60.9675 21.01 60.9675 18.73 60.9675 16.46C60.9675 14.94 60.0491 14.01 58.5444 14.01C52.1055 14 45.6666 14 39.218 14C37.7426 14 36.8242 14.96 36.8144 16.48C36.8047 18.73 36.8144 20.99 36.8144 23.24C36.8144 24.6 37.4788 25.44 38.7881 25.7C39.1789 25.77 39.2082 25.95 39.1985 26.27C39.1789 27.43 38.7783 28.42 37.9967 29.25C37.3323 29.96 36.6483 30.65 35.9644 31.34C34.704 32.62 34.0689 34.15 34.0884 35.98C34.1079 38.07 34.1079 40.15 34.0884 42.24C34.0786 43.31 34.1959 44.34 34.6844 45.37C33.2384 45.54 31.9877 46.08 30.9813 47.12C29.3887 48.75 27.8059 50.37 26.2133 52.01C25.0115 53.24 24.4545 54.75 24.435 56.48C24.4252 57.51 24.435 58.54 24.435 59.57C24.4252 60.65 24.0149 61.56 23.3407 62.37C23.0573 62.71 22.8717 62.82 22.4613 62.49C21.6308 61.83 20.5072 61.87 19.7549 62.62C18.0059 64.35 16.2863 66.12 14.5862 67.91C13.7654 68.78 13.8241 70.08 14.635 70.97C14.9868 71.36 15.3483 71.73 15.7098 72.1L21.4452 77.97L21.4843 78.01C23.8292 80.42 26.1839 82.83 28.5387 85.23C29.5157 86.23 30.7957 86.23 31.7825 85.23C33.4045 83.6 35.0069 81.95 36.5995 80.29C37.4886 79.37 37.5961 78.3 36.873 77.24C36.6679 76.94 36.7363 76.83 36.9317 76.61C37.7622 75.69 38.7588 75.11 39.9801 75.02C41.602 74.9 42.9309 74.19 44.0545 73.01C45.354 71.66 46.6633 70.32 47.9725 68.99C48.1679 68.79 48.3536 68.6 48.6369 68.49C49.3404 68.23 49.8973 67.82 50.3077 67.25L52.7406 69.76L53.2291 70.27L53.4441 70.49C54.4114 71.49 55.3885 72.48 56.3851 73.45C57.3524 74.39 58.5248 74.9 59.8536 75C61.1629 75.1 62.2181 75.68 63.0975 76.67C63.2636 76.85 63.2929 76.95 63.1366 77.19C62.3647 78.39 62.4819 79.38 63.4786 80.4C64.9539 81.91 66.4293 83.42 67.8949 84.93C69.2726 86.34 70.3669 86.34 71.7445 84.93C76.0827 80.48 80.4111 76.03 84.7591 71.6C85.2378 71.11 85.6873 70.6 85.9706 69.96V68.95C85.785 68.55 85.658 68.12 85.3258 67.79L85.3551 67.8ZM34.9189 79.01C33.4924 80.44 32.0854 81.87 30.698 83.34C30.2974 83.76 30.0922 83.8 29.6721 83.36C27.4444 81.04 25.1873 78.74 22.9401 76.44L17.3024 70.65L17.2145 70.56C16.9604 70.3 16.7162 70.05 16.4426 69.8C16.1299 69.51 16.1006 69.33 16.4231 69.01C17.8984 67.53 19.3543 66.04 20.7905 64.53C21.0837 64.22 21.2498 64.2 21.5624 64.53C26.0081 69.1 30.4537 73.67 34.9189 78.22C35.2413 78.55 35.1925 78.71 34.8994 79.01H34.9189ZM38.9053 22.91C38.9444 20.87 38.9347 18.83 38.9053 16.8C38.9053 16.3 39.0324 16.15 39.5307 16.16C45.7839 16.18 52.0371 16.18 58.2903 16.16C58.7593 16.16 58.8766 16.29 58.8766 16.76C58.8473 18.82 58.8473 20.88 58.8766 22.95C58.8863 23.51 58.7105 23.62 58.2024 23.62C55.4178 23.6 52.6331 23.61 49.8387 23.61H42.4716C41.5239 23.6 40.5761 23.6 39.6284 23.62C39.1105 23.63 38.8858 23.54 38.8956 22.92L38.9053 22.91ZM51.0796 62.59C51.06 62.38 51.0796 62.16 51.0796 61.94V45.18C51.0796 44.96 51.0894 44.75 51.0796 44.53C51.021 43.85 50.6106 43.41 50.0341 43.41C49.4479 43.41 49.018 43.84 48.9594 44.51C48.9398 44.72 48.9496 44.94 48.9496 45.16C48.9496 50.72 48.9496 56.28 48.9496 61.85C48.9496 62.83 48.9887 63.81 48.9789 64.8C48.9691 65.88 48.4122 66.53 47.5231 66.54C46.6046 66.55 46.0086 65.89 45.9988 64.79C45.9891 61.43 45.9988 58.08 45.9988 54.72C45.9988 51.36 45.9988 48.25 45.9988 45.01C45.9988 44.77 45.9988 44.53 45.9695 44.29C45.8914 43.73 45.5201 43.44 45.012 43.41C44.5332 43.38 44.162 43.63 43.9763 44.11C43.8591 44.41 43.8884 44.72 43.8884 45.03C43.8884 50.64 43.8884 56.25 43.8884 61.86C43.8884 62.12 43.8884 62.39 43.8591 62.65C43.7809 63.37 43.2533 63.88 42.5693 63.95C41.8561 64.02 41.2698 63.64 41.0158 62.98C40.8888 62.63 40.8986 62.27 40.8986 61.92V43.07C40.8986 42.85 40.8986 42.64 40.8986 42.42C40.8692 41.74 40.4686 41.32 39.8629 41.31C39.2669 41.31 38.8272 41.73 38.8076 42.41C38.7783 43.46 38.8076 44.52 38.7979 45.57C38.7979 46.25 38.6904 46.32 38.1335 46C36.9708 45.33 36.2673 44.31 36.2477 42.93C36.2086 40.48 36.2282 38.04 36.2477 35.59C36.2477 34.56 36.6874 33.69 37.3811 32.97C38.0748 32.25 38.7686 31.55 39.4623 30.83C40.6543 29.58 41.3285 28.08 41.3187 26.32C41.3187 25.82 41.4946 25.71 41.9245 25.74C42.0906 25.75 42.2567 25.76 42.4228 25.76H42.9211L49.8583 25.75C51.871 25.75 53.8838 25.76 55.8868 25.74C56.4046 25.74 56.6293 25.83 56.6 26.43C56.5218 28.13 57.069 29.63 58.1438 30.92C58.8473 31.76 59.1306 32.74 59.1306 33.84C59.1306 41.27 59.1306 48.7 59.1306 56.14C59.1306 56.42 59.1111 56.72 59.0329 56.99C58.8277 57.71 58.2122 58.11 57.4794 58.04C56.7954 57.98 56.258 57.46 56.1896 56.75C56.1408 56.23 56.1603 55.7 56.1603 55.17C56.1603 51.81 56.1603 48.46 56.1603 45.1C56.1603 44.84 56.1603 44.57 56.1213 44.31C56.0138 43.74 55.6425 43.43 55.0758 43.45C54.5091 43.46 54.1573 43.78 54.0792 44.36C54.0499 44.62 54.0499 44.88 54.0499 45.15C54.0499 50.71 54.0499 56.27 54.0499 61.84C54.0499 62.15 54.0499 62.47 53.9912 62.77C53.8447 63.53 53.2291 64 52.4768 63.97C51.7342 63.93 51.1675 63.37 51.1089 62.6L51.0796 62.59ZM75.2424 64.8C71.9009 68.2 68.5788 71.61 65.2568 75.03C64.9344 75.36 64.7683 75.38 64.4556 75.03C63.3027 73.73 61.8469 73.03 60.1468 72.88C59.0915 72.79 58.2317 72.33 57.4989 71.56C56.6489 70.67 55.7793 69.79 54.9097 68.92L52.1251 66.07C54.3821 66.32 56.1017 64.73 56.131 62.21C56.1408 61.47 56.131 60.73 56.131 59.98C59.3846 60.95 61.4463 58.59 61.2508 55.7C61.1141 53.72 61.2215 51.72 61.2313 49.73C61.2313 49.54 61.1336 49.31 61.3388 49.13C62.3061 50.12 63.2636 51.1 64.2211 52.07C64.8367 52.7 65.462 52.79 65.9408 52.32C66.4293 51.83 66.3707 51.21 65.7356 50.57C64.9246 49.74 64.1039 48.93 63.2734 48.09C64.612 47.21 66.3023 47.43 67.5138 48.64C69.1358 50.27 70.7284 51.93 72.3308 53.57C73.0929 54.36 73.4544 55.32 73.4642 56.42C73.4739 57.38 73.4739 58.34 73.4642 59.3C73.4446 61.11 74.0309 62.69 75.2717 63.98C75.6137 64.33 75.5453 64.5 75.2424 64.81V64.8Z" fill="#0C4A6E" />
	<path d="M75.2424 64.7899C71.9008 68.1899 68.5788 71.5999 65.2568 75.0199C64.9343 75.3499 64.7682 75.3699 64.4556 75.0199C63.3026 73.7199 61.8468 73.0199 60.1467 72.8699C59.0915 72.7799 58.2317 72.3199 57.4989 71.5499C56.6488 70.6599 55.7792 69.7799 54.9096 68.9099L52.125 66.0599C54.382 66.3099 56.1017 64.7199 56.131 62.1999C56.1407 61.4599 56.131 60.7199 56.131 59.9699C59.3846 60.9399 61.4462 58.5799 61.2508 55.6899C61.114 53.7099 61.2215 51.7099 61.2313 49.7199C61.2313 49.5299 61.1335 49.2999 61.3387 49.1199C62.306 50.1099 63.2636 51.0899 64.2211 52.0599C64.8366 52.6899 65.462 52.7799 65.9407 52.3099C66.4292 51.8199 66.3706 51.1999 65.7355 50.5599C64.9246 49.7299 64.1038 48.9199 63.2733 48.0799C64.6119 47.1999 66.3022 47.4199 67.5138 48.6299C69.1357 50.2599 70.7283 51.9199 72.3307 53.5599C73.0928 54.3499 73.4544 55.3099 73.4641 56.4099C73.4739 57.3699 73.4739 58.3299 73.4641 59.2899C73.4446 61.0999 74.0308 62.6799 75.2717 63.9699C75.6137 64.3199 75.5453 64.4899 75.2424 64.7999V64.7899Z" fill="#FFF7ED" />
	<path d="M34.9189 79.0201C33.4924 80.4501 32.0854 81.8801 30.698 83.3501C30.2974 83.7701 30.0922 83.8101 29.6721 83.3701C27.4444 81.0501 25.1874 78.7501 22.9401 76.4501L17.3024 70.6601L17.2145 70.5701C16.9605 70.3101 16.7162 70.0601 16.4426 69.8101C16.13 69.5201 16.1006 69.3401 16.4231 69.0201C17.8984 67.5401 19.3543 66.0501 20.7906 64.5401C21.0837 64.2301 21.2498 64.2101 21.5624 64.5401C26.0081 69.1101 30.4537 73.6801 34.9189 78.2301C35.2414 78.5601 35.1925 78.7201 34.8994 79.0201H34.9189Z" fill="#FCA5A5" />
	<path d="M58.8768 22.9301C58.8866 23.4901 58.7107 23.6001 58.2026 23.6001C55.418 23.5801 52.6334 23.5901 49.839 23.5901H42.4719C41.5241 23.5801 40.5764 23.5801 39.6286 23.6001C39.1108 23.6101 38.886 23.5201 38.8958 22.9001C38.9349 20.8601 38.9251 18.8201 38.8958 16.7901C38.8958 16.2901 39.0228 16.1401 39.5211 16.1501C45.7744 16.1701 52.0276 16.1701 58.2808 16.1501C58.7498 16.1501 58.867 16.2801 58.867 16.7501C58.8377 18.8101 58.8377 20.8701 58.867 22.9401L58.8768 22.9301Z" fill="#FDBA74" />
	<path d="M59.1213 33.8399C59.1213 41.2699 59.1213 48.6999 59.1213 56.1399C59.1213 56.4199 59.1017 56.7199 59.0236 56.9899C58.8184 57.7099 58.2028 58.1099 57.47 58.0399C56.7861 57.9799 56.2487 57.4599 56.1803 56.7499C56.1314 56.2299 56.151 55.6999 56.151 55.1699C56.151 51.8099 56.151 48.4599 56.151 45.0999C56.151 44.8399 56.151 44.5699 56.1119 44.3099C56.0044 43.7399 55.6331 43.4299 55.0664 43.4499C54.4997 43.4599 54.148 43.7799 54.0698 44.3599C54.0405 44.6199 54.0405 44.8799 54.0405 45.1499C54.0405 50.7099 54.0405 56.2699 54.0405 61.8399C54.0405 62.1499 54.0405 62.4699 53.9819 62.7699C53.8353 63.5299 53.2198 63.9999 52.4674 63.9699C51.7249 63.9299 51.1582 63.3699 51.0995 62.5999C51.08 62.3899 51.0995 62.1699 51.0995 61.9499V45.1799C51.0995 44.9599 51.1093 44.7499 51.0995 44.5299C51.0409 43.8499 50.6306 43.4099 50.0541 43.4099C49.4678 43.4099 49.0379 43.8399 48.9793 44.5099C48.9598 44.7199 48.9695 44.9399 48.9695 45.1599C48.9695 50.7199 48.9695 56.2799 48.9695 61.8499C48.9695 62.8299 49.0086 63.8099 48.9989 64.7999C48.9891 65.8799 48.4322 66.5299 47.543 66.5399C46.6246 66.5499 46.0286 65.8899 46.0188 64.7899C46.009 61.4299 46.0188 58.0799 46.0188 54.7199C46.0188 51.3599 46.0188 48.2499 46.0188 45.0099C46.0188 44.7699 46.0188 44.5299 45.9895 44.2899C45.9113 43.7299 45.54 43.4399 45.032 43.4099C44.5532 43.3799 44.1819 43.6299 43.9963 44.1099C43.879 44.4099 43.9083 44.7199 43.9083 45.0299C43.9083 50.6399 43.9083 56.2499 43.9083 61.8599C43.9083 62.1199 43.9083 62.3899 43.879 62.6499C43.8009 63.3699 43.2732 63.8799 42.5893 63.9499C41.876 64.0199 41.2898 63.6399 41.0358 62.9799C40.9087 62.6299 40.9185 62.2699 40.9185 61.9199V43.0699C40.9185 42.8499 40.9185 42.6399 40.9185 42.4199C40.8892 41.7399 40.4886 41.3199 39.8828 41.3099C39.2868 41.3099 38.8471 41.7299 38.8276 42.4099C38.7983 43.4599 38.8276 44.5199 38.8178 45.5699C38.8178 46.2499 38.7103 46.3199 38.1534 45.9999C36.9907 45.3299 36.2872 44.3099 36.2677 42.9299C36.2286 40.4799 36.2481 38.0399 36.2677 35.5899C36.2677 34.5599 36.7074 33.6899 37.4011 32.9699C38.0948 32.2499 38.7885 31.5499 39.4822 30.8299C40.6742 29.5799 41.3484 28.0799 41.3387 26.3199C41.3387 25.8199 41.5145 25.7099 41.9444 25.7399C42.1105 25.7499 42.2766 25.7599 42.4427 25.7599H42.941L49.8782 25.7499C51.891 25.7499 53.9037 25.7599 55.9067 25.7399C56.4246 25.7399 56.6493 25.8299 56.62 26.4299C56.5418 28.1299 57.089 29.6299 58.1637 30.9199C58.8672 31.7599 59.1506 32.7399 59.1506 33.8399H59.1213Z" fill="#FFF7ED" />
	<path d="M30.4934 77.7599C31.0796 77.7699 31.5974 78.3099 31.5974 78.9199C31.5974 79.5699 31.0601 80.0799 30.425 80.0499C29.8094 80.0199 29.3404 79.4999 29.36 78.8699C29.3795 78.2599 29.9169 77.7399 30.5031 77.7499L30.4934 77.7599Z" fill="#0C4A6E" />
	<path d="M71.7349 36.57C71.1585 36.57 70.6699 36.07 70.6699 35.47C70.6699 34.87 71.1487 34.39 71.7447 34.41C72.3016 34.42 72.7608 34.89 72.7804 35.45C72.7999 36.04 72.3016 36.56 71.7349 36.57Z" fill="#0C4A6E" />
	<path d="M47.5718 78.91C48.1581 78.91 48.6173 79.42 48.6075 80.02C48.5978 80.63 48.119 81.08 47.5132 81.05C46.9563 81.03 46.4971 80.55 46.4971 79.99C46.4971 79.4 46.9954 78.89 47.5621 78.9L47.5718 78.91Z" fill="#0C4A6E" />
	<path d="M25.0021 38.6C24.9923 39.21 24.5233 39.66 23.9175 39.64C23.3606 39.62 22.9014 39.14 22.9014 38.58C22.9014 38.01 23.4192 37.48 23.9761 37.48C24.5526 37.48 25.0216 37.99 25.0021 38.6Z" fill="#0C4A6E" />
	<path d="M33.1508 28.7399C33.1508 29.3299 32.6427 29.8299 32.0663 29.8199C31.4898 29.7999 31.011 29.2699 31.0403 28.6899C31.0697 28.1199 31.5289 27.6699 32.0956 27.6599C32.6916 27.6599 33.1606 28.1399 33.1508 28.7399V28.7399Z" fill="#0C4A6E" />
	<path d="M74.9693 39.4701C74.9302 40.0701 74.4124 40.5201 73.8262 40.4701C73.2497 40.4101 72.8198 39.8801 72.8784 39.2801C72.9273 38.7101 73.4158 38.2801 73.9727 38.3101C74.5492 38.3401 75.0084 38.8801 74.9693 39.4701Z" fill="#0C4A6E" />
	<path d="M22.3248 41.48C22.9012 41.48 23.3898 41.99 23.38 42.57C23.3702 43.17 22.8817 43.65 22.2954 43.63C21.7287 43.61 21.2891 43.16 21.2891 42.58C21.2891 41.97 21.7483 41.48 22.3248 41.47V41.48Z" fill="#0C4A6E" />
	<path d="M27.2292 34.88C27.2292 35.47 26.7309 35.98 26.1544 35.97C25.5877 35.97 25.0992 35.44 25.1187 34.85C25.1383 34.28 25.5975 33.82 26.1544 33.81C26.7504 33.8 27.2292 34.28 27.2292 34.88Z" fill="#0C4A6E" />
	<path d="M51.7541 80.9199C51.1581 80.9199 50.6988 80.4199 50.7184 79.8199C50.7379 79.2599 51.1971 78.7799 51.7541 78.7699C52.3208 78.7599 52.8288 79.2599 52.8288 79.8499C52.8288 80.4499 52.3598 80.9299 51.7638 80.9199H51.7541Z" fill="#0C4A6E" />
	<path d="M75.4869 42.53C76.0536 42.53 76.5519 43.07 76.5323 43.65C76.5226 44.25 76.0243 44.71 75.4282 44.69C74.8518 44.67 74.4414 44.23 74.4316 43.63C74.4316 43.03 74.9006 42.53 75.4771 42.53H75.4869Z" fill="#0C4A6E" />
	<path d="M68.9498 33.04C68.3733 33.04 67.875 32.54 67.875 31.96C67.875 31.38 68.4026 30.87 68.9693 30.89C69.5262 30.91 69.9659 31.38 69.9855 31.95C69.9952 32.57 69.5556 33.04 68.9498 33.04V33.04Z" fill="#0C4A6E" />
	<path d="M77.4114 48.05C77.4114 48.65 76.9131 49.13 76.3268 49.11C75.7699 49.09 75.3205 48.63 75.3107 48.06C75.3009 47.46 75.7699 46.96 76.3562 46.96C76.9326 46.96 77.4212 47.46 77.4114 48.06V48.05Z" fill="#0C4A6E" />
	<path d="M22.2077 55.3899C22.2077 56.0099 21.768 56.4699 21.1623 56.4699C20.5663 56.4699 20.0973 55.9699 20.1168 55.3699C20.1266 54.8199 20.6151 54.3199 21.1525 54.3099C21.729 54.2899 22.2077 54.7899 22.2175 55.3899H22.2077Z" fill="#0C4A6E" />
	<path d="M22.0904 58.57C22.6766 58.59 23.1456 59.1 23.1163 59.69C23.087 60.24 22.5985 60.73 22.0611 60.73C21.4846 60.73 21.0156 60.23 21.0156 59.62C21.0156 59 21.4748 58.55 22.0904 58.57Z" fill="#0C4A6E" />
	<path d="M65.6476 27.86C66.2143 27.85 66.7224 28.36 66.7322 28.94C66.7322 29.51 66.2925 29.98 65.7355 30.01C65.1395 30.04 64.651 29.59 64.6315 28.98C64.6119 28.38 65.0711 27.87 65.6574 27.86H65.6476Z" fill="#0C4A6E" />
	<path d="M59.9119 76.58C60.4883 76.6 60.9671 77.13 60.928 77.71C60.8889 78.29 60.3613 78.77 59.7946 78.73C59.2377 78.69 58.8175 78.21 58.8273 77.63C58.8371 77.03 59.3256 76.56 59.9119 76.58V76.58Z" fill="#0C4A6E" />
	<path d="M55.867 80.1601C55.3003 80.1401 54.8118 79.6001 54.8411 79.0301C54.8704 78.4301 55.3687 77.9801 55.9647 78.0201C56.5314 78.0501 56.9516 78.5101 56.9418 79.1001C56.9418 79.7001 56.4435 80.1901 55.867 80.1701V80.1601Z" fill="#0C4A6E" />
	<path d="M22.3439 46.7899C22.3341 47.4099 21.8651 47.8599 21.2593 47.8299C20.7024 47.8099 20.2529 47.3399 20.2432 46.7699C20.2432 46.1899 20.7512 45.6699 21.3082 45.6699C21.8846 45.6699 22.3536 46.1799 22.3341 46.7899H22.3439Z" fill="#0C4A6E" />
	<path d="M20.9074 49.99C21.4741 49.99 21.9821 50.49 21.9821 51.08C21.9821 51.66 21.5425 52.12 20.9758 52.15C20.37 52.18 19.901 51.74 19.8912 51.11C19.8717 50.5 20.3309 50 20.9074 49.99V49.99Z" fill="#0C4A6E" />
	<path d="M40.3902 78.3299C40.4 78.9099 39.9114 79.4399 39.3447 79.4399C38.7976 79.4399 38.3286 78.9799 38.2993 78.4099C38.27 77.7899 38.6999 77.2999 39.2959 77.2899C39.8919 77.2699 40.3804 77.7399 40.3902 78.3299Z" fill="#0C4A6E" />
	<path d="M43.38 78.4299C43.9956 78.4299 44.445 78.8799 44.4353 79.4999C44.4353 80.0999 43.937 80.5999 43.3605 80.5799C42.8231 80.5599 42.3346 80.0699 42.3248 79.5199C42.3053 78.9299 42.784 78.4299 43.38 78.4299V78.4299Z" fill="#0C4A6E" />
	<path d="M77.587 52.5801C77.5675 53.2001 77.0985 53.6501 76.5025 53.6201C75.9455 53.5901 75.4961 53.1101 75.4961 52.5501C75.4961 51.9601 75.9944 51.4601 76.5709 51.4701C77.1571 51.4701 77.6066 51.9701 77.587 52.5901V52.5801Z" fill="#0C4A6E" />
	<path d="M29.9552 31.5999C29.9356 32.1899 29.4276 32.6799 28.8609 32.6599C28.3235 32.6299 27.8545 32.1299 27.8545 31.5799C27.8545 30.9899 28.3333 30.4999 28.9293 30.5099C29.535 30.5099 29.9747 30.9799 29.9552 31.6099V31.5999Z" fill="#0C4A6E" />
	<path d="M63.0296 26.4601C63.0491 27.0301 62.5997 27.5201 62.033 27.5501C61.4174 27.5801 60.9386 27.1401 60.9289 26.5101C60.9191 25.9401 61.3588 25.4301 61.9059 25.4001C62.4629 25.3601 63.01 25.8801 63.0296 26.4601V26.4601Z" fill="#0C4A6E" />
	<path d="M35.7302 25.34C36.3067 25.37 36.7366 25.83 36.7171 26.42C36.7073 27.02 36.1894 27.51 35.613 27.48C35.0658 27.44 34.6066 26.94 34.6164 26.38C34.6261 25.77 35.1049 25.31 35.7204 25.34H35.7302Z" fill="#0C4A6E" />
	<path d="M36.7849 48.0501C35.8958 48.9401 35.0555 49.7701 34.225 50.6201C33.6485 51.2101 33.6094 51.8501 34.098 52.3201C34.5474 52.7501 35.163 52.7001 35.7101 52.1401C36.697 51.1301 37.674 50.1101 38.7879 48.9701C38.7879 49.4101 38.7879 49.6601 38.7879 49.9101C38.7879 53.9401 38.7879 57.9701 38.7879 61.9901C38.7879 65.0101 40.8104 66.6401 43.6439 65.8901C43.8784 65.8301 43.9663 65.8101 44.0347 66.0601C44.2692 66.9001 44.7578 67.5701 45.4515 68.0501C45.7348 68.2401 45.6371 68.3501 45.4515 68.5301C44.3376 69.6601 43.2433 70.8101 42.1099 71.9201C41.5432 72.4801 40.8202 72.7801 40.0288 72.8401C38.2505 72.9801 36.7263 73.6801 35.5245 75.0401C35.2118 75.3901 35.0555 75.3101 34.7722 75.0201C31.4404 71.5801 28.0988 68.1501 24.7377 64.7401C24.4348 64.4301 24.425 64.2701 24.7377 63.9601C25.9981 62.6501 26.5843 61.0601 26.555 59.2201C26.5453 58.2901 26.5453 57.3501 26.555 56.4101C26.5648 55.2801 26.9361 54.3001 27.7275 53.5001C29.3201 51.8701 30.8932 50.2301 32.4956 48.6201C33.6974 47.4101 35.2705 47.1901 36.7849 48.0401V48.0501Z" fill="#FFF7ED" />
	<path d="M69.8984 83.7801C69.6542 83.7601 69.5565 83.5701 69.4294 83.4401C68.0029 81.9901 66.5959 80.5101 65.1499 79.0801C64.7591 78.6901 64.8079 78.5001 65.1694 78.1301C68.4426 74.8001 71.6962 71.4601 74.9499 68.1201C76.1028 66.9301 77.2753 65.7601 78.4185 64.5501C78.7507 64.2001 78.9265 64.2401 79.2392 64.5601C80.6657 66.0501 82.102 67.5301 83.5578 68.9801C83.89 69.3201 83.8607 69.5001 83.548 69.8201C79.1024 74.3501 74.6763 78.9001 70.2502 83.4401C70.1329 83.5601 70.0157 83.6701 69.9082 83.7601L69.8984 83.7801Z" fill="#BBF7D0" />
	<path d="M43.5173 19.8801C43.5173 20.4801 42.9897 21.0201 42.4035 21.0301C41.7781 21.0301 41.2603 20.4901 41.2798 19.8301C41.2994 19.1901 41.7879 18.7201 42.4132 18.7401C43.019 18.7501 43.5173 19.2701 43.5173 19.8801V19.8801Z" fill="#0C4A6E" />
	<path d="M78.047 69.0399C78.047 68.4099 78.5649 67.9199 79.1804 67.9199C79.8057 67.9199 80.2747 68.4299 80.265 69.0699C80.265 69.7099 79.7569 70.2199 79.1413 70.2099C78.5453 70.1999 78.0275 69.6499 78.0372 69.0399H78.047Z" fill="#0C4A6E" />
</svg>
