<svg width="109" height="34" viewBox="0 0 109 34" fill="none" xmlns="http://www.w3.org/2000/svg">
	<path fill-rule="evenodd" clip-rule="evenodd" d="M8.44909 34H10.9847V20.4H8.44909V34ZM17.7437 33.796H20.0147V25.2153L29.5739 34V20.604H27.3093V29.0381L17.7437 20.4V33.796ZM34.7583 30.5023C35.9943 31.4691 37.478 32.028 39.0686 32.028C40.6178 32.028 41.7047 31.4925 41.7047 30.3099C41.7047 29.2793 41.0115 28.8756 39.7977 28.424L37.8325 27.7387C36.0208 27.0927 34.643 26.1492 34.643 23.9806C34.643 21.6612 36.7288 20.4 39.2231 20.4C40.7512 20.4 42.1438 20.7857 43.2317 21.4689V23.7692C42.1005 22.9298 40.8623 22.3518 39.2717 22.3518C37.9024 22.3518 36.879 22.865 36.879 23.9349C36.879 24.9018 37.5214 25.2886 38.6527 25.6774L40.8422 26.4488C42.964 27.1979 43.9376 28.3592 43.9376 30.2696C43.9376 32.6729 41.8317 34 39.0686 34C37.2526 34 35.7086 33.49 34.7583 32.8461V30.5023ZM49.8532 34H52.3877V20.4H49.8532V34ZM64.2783 31.9419C67.1355 31.9419 68.6626 30.1017 68.6626 27.1968C68.6626 24.2707 67.1345 22.4368 64.2783 22.4368H61.4527V31.9419H64.2783ZM59.1457 20.4H64.3629C68.379 20.4 70.9759 23.0562 70.9759 27.1968C70.9759 31.3406 68.379 34 64.3629 34H59.1457V20.4ZM83.6517 20.4V22.4368H77.517V25.7093H83.0188V27.7227H77.5159V31.9419H83.6517V34H75.2015V20.4H83.6517ZM92.6489 26.5583H95.1644C96.6534 26.5583 97.4926 25.738 97.4926 24.4768C97.4926 23.2156 96.6534 22.3943 95.1644 22.3943H92.6489V26.5593V26.5583ZM92.6489 28.4814V34H90.4107V20.4H95.2067C97.9413 20.4 99.7107 21.8142 99.7107 24.4768C99.7107 26.7537 98.7286 28.0617 96.6364 28.3974L101.395 34H98.8492L94.2416 28.4824H92.65L92.6489 28.4814ZM7.56333 7.00187C8.55491 6.63744 9.32744 5.54413 9.32744 4.04069C9.32744 1.53531 7.56333 0.236938 4.74097 0.236938H0V14.2226H5.1812C8.00356 14.2226 9.76767 12.8329 9.76767 10.2138C9.76767 8.73269 8.8417 7.43431 7.56333 7.00187ZM2.22656 6.11363V2.28756H4.71981C6.28602 2.28756 7.1231 2.85706 7.1231 4.17775C7.1231 5.49844 6.28496 6.11363 4.71981 6.11363H2.22656ZM2.22656 8.07288H5.13676C6.68181 8.07288 7.51888 8.84638 7.51888 10.1224C7.51888 11.3751 6.68075 12.1731 5.13782 12.1731H2.22762V8.07181L2.22656 8.07288ZM20.1121 14.45C23.3535 14.45 25.5367 12.4907 25.5367 8.66469V0.236938H23.2435V8.39056C23.2435 11.0787 22.1408 12.3324 20.1121 12.3324C18.0834 12.3324 16.9818 11.0787 16.9818 8.39056V0.236938H14.6885V8.64131C14.6885 12.4908 16.8929 14.45 20.1121 14.45ZM30.9359 13.2196C31.8841 13.9039 33.4281 14.45 35.2356 14.45C37.9923 14.45 40.0866 13.0369 40.0866 10.4869C40.0866 8.45963 39.1172 7.22925 36.9997 6.43237L34.8176 5.61212C33.6926 5.20306 33.0535 4.79294 33.0535 3.76763C33.0535 2.62862 34.0673 2.0825 35.4345 2.0825C37.0219 2.0825 38.2569 2.69662 39.3818 3.58594V1.1475C38.3013 0.419688 36.9118 0.0095625 35.3901 0.0095625C32.899 0.0095625 30.8258 1.35362 30.8258 3.81331C30.8258 6.11363 32.1931 7.11556 34.0006 7.79875L35.9637 8.52763C37.1764 9.00575 37.86 9.43925 37.86 10.5326C37.86 11.7852 36.7796 12.3548 35.2356 12.3548C33.6482 12.3548 32.1709 11.7619 30.9359 10.7376V13.2196ZM48.2807 0.236938H45.9885V14.2216H48.2807V0.236938ZM54.8228 14.2046H57.0324V5.10638L66.3323 14.4213V0.215687H64.129V9.15875L54.8228 0V14.2046ZM80.6621 0.240125V2.33431H74.7084V5.70031H80.0473V7.77113H74.7084V12.1093H80.6621V14.2258H72.4607V0.240125H80.6621ZM86.001 13.2101C86.9492 13.8943 88.4921 14.4404 90.3007 14.4404C93.0564 14.4404 95.1517 13.0284 95.1517 10.4773C95.1517 8.45006 94.1813 7.22075 92.0648 6.42281L89.8816 5.60363C88.7567 5.1935 88.1175 4.78337 88.1175 3.75806C88.1175 2.61906 89.1313 2.07294 90.4986 2.07294C92.086 2.07294 93.3209 2.68812 94.4459 3.57638V1.139C93.3654 0.410125 91.9759 0 90.4541 0C87.963 0 85.8899 1.34406 85.8899 3.80375C85.8899 6.10406 87.2571 7.106 89.0646 7.78919L91.0277 8.51806C92.2405 8.99619 92.9241 9.42969 92.9241 10.523C92.9241 11.7757 91.8447 12.3452 90.2996 12.3452C88.7122 12.3452 87.2349 11.7534 86.001 10.7281V13.2101ZM99.8493 13.2101C100.797 13.8943 102.341 14.4404 104.149 14.4404C106.906 14.4404 109 13.0284 109 10.4773C109 8.45006 108.03 7.22075 105.913 6.42281L103.73 5.60363C102.606 5.1935 101.966 4.78337 101.966 3.75806C101.966 2.61906 102.981 2.07294 104.347 2.07294C105.934 2.07294 107.17 2.68812 108.294 3.57638V1.139C107.215 0.410125 105.825 0 104.303 0C101.811 0 99.7392 1.34406 99.7392 3.80375C99.7392 6.10406 101.106 7.106 102.914 7.78919L104.877 8.51806C106.09 8.99619 106.773 9.42969 106.773 10.523C106.773 11.7757 105.693 12.3452 104.149 12.3452C102.562 12.3452 101.084 11.7534 99.8493 10.7281V13.2101Z" fill="#CBD5E1" />
</svg>
