<svg width="144" height="24" viewBox="0 0 144 24" fill="none" xmlns="http://www.w3.org/2000/svg">
	<path d="M14.2507 12.344C15.3729 12.4318 16.3486 12.9121 17.1823 13.7803C18.0115 14.6531 18.4283 15.8491 18.4283 17.3731C18.4283 19.2434 17.8145 20.735 16.5823 21.848C15.35 22.9563 13.5819 23.5151 11.2686 23.5151H0V1.63479H11.2411C13.2292 1.63479 14.8187 2.17972 16.0188 3.26958C17.219 4.35944 17.8145 5.80489 17.8145 7.61054C17.8145 8.9821 17.4389 10.072 16.683 10.8755C15.9272 11.679 15.1164 12.127 14.2552 12.2147V12.344H14.2507ZM5.34572 10.6769H10.0089C10.806 10.6769 11.4427 10.4553 11.9191 10.0073C12.3955 9.55936 12.6337 8.96825 12.6337 8.22936C12.6337 7.55513 12.4001 7.0102 11.9374 6.59457C11.4747 6.17895 10.8976 5.97575 10.2059 5.97575H5.34572V10.6769ZM10.3341 19.1695C11.177 19.1695 11.8275 18.9525 12.2947 18.5184C12.7573 18.0843 12.991 17.4839 12.991 16.722C12.991 16.0015 12.7528 15.4335 12.2764 15.0087C11.8 14.5838 11.1862 14.3714 10.4303 14.3714H5.34572V19.1695H10.3341ZM36.9849 23.5105H31.804V21.945C30.5077 23.3165 28.8449 24 26.8156 24C24.9146 24 23.3892 23.3719 22.2303 22.1205C21.076 20.869 20.4988 19.2203 20.4988 17.1745V7.12103H25.6475V16.0662C25.6475 17.0221 25.9086 17.8026 26.4263 18.4029C26.9439 19.0033 27.6127 19.2988 28.4326 19.2988C29.4908 19.2988 30.3153 18.9248 30.9108 18.172C31.5063 17.4193 31.7995 16.274 31.7995 14.727V7.12103H36.9803V23.5105H36.9849ZM52.9441 23.5105H39.2248V22.5268L45.6745 11.268H39.3852V7.12103H52.8663V8.10468L46.4166 19.3635H52.9441V23.5105ZM68.9034 23.5105H55.1841V22.5268L61.6338 11.268H55.3399V7.12103H68.821V8.10468L62.3713 19.3635H68.8988V23.5105H68.9034ZM76.6082 10.9725H85.9804V15.6737H76.6082V23.5105H71.2625V1.63479H86.8416V6.36829H76.6082V10.9725ZM123.95 16.6527H112.031C112.338 18.6846 113.845 19.8207 116.126 19.8207C117.922 19.8207 119.695 19.1095 121.023 18.0797L123.011 21.5524C121.193 23.1272 118.833 24 116.126 24C110.675 24 106.946 20.6519 106.946 15.3134C106.946 12.7874 107.78 10.7093 109.438 9.07447C111.101 7.43968 113.14 6.6269 115.558 6.6269C117.913 6.6269 119.887 7.4212 121.486 9.00981C123.084 10.5984 123.904 12.6996 123.946 15.3134V16.6527H123.95ZM113.456 11.559C112.81 12.0162 112.365 12.6488 112.127 13.4524H118.833C118.595 12.6027 118.188 11.9607 117.601 11.5266C117.019 11.0926 116.337 10.8755 115.563 10.8755C114.807 10.8755 114.106 11.1018 113.456 11.559ZM105 16.6527H93.0805C93.3875 18.6846 94.8945 19.8207 97.1757 19.8207C98.9714 19.8207 100.744 19.1095 102.073 18.0797L104.061 21.5524C102.242 23.1272 99.8829 24 97.1757 24C91.7246 24 87.9959 20.6519 87.9959 15.3134C87.9959 12.7874 88.8296 10.7093 90.4878 9.07447C92.1507 7.43968 94.1891 6.6269 96.6077 6.6269C98.9622 6.6269 100.937 7.4212 102.535 9.00981C104.134 10.5984 104.954 12.6996 104.995 15.3134V16.6527H105ZM94.5052 11.559C93.8593 12.0162 93.4149 12.6488 93.1767 13.4524H99.8829C99.6447 12.6027 99.2371 11.9607 98.6507 11.5266C98.069 11.0926 97.3864 10.8755 96.6123 10.8755C95.8519 10.8755 95.151 11.1018 94.5052 11.559ZM144 23.5105H138.819V22.2036C137.5 23.3997 135.819 24 133.767 24C131.563 24 129.69 23.1872 128.146 21.5663C126.602 19.9454 125.828 17.858 125.828 15.3134C125.828 12.7874 126.602 10.7093 128.146 9.07447C129.69 7.43968 131.563 6.6269 133.767 6.6269C135.819 6.6269 137.505 7.22725 138.819 8.42332V0H144V23.5105ZM137.637 18.3706C138.425 17.5763 138.819 16.5603 138.819 15.3181C138.819 14.0989 138.425 13.0876 137.637 12.2794C136.849 11.4759 135.915 11.0695 134.834 11.0695C133.689 11.0695 132.75 11.4666 132.017 12.2609C131.284 13.0552 130.917 14.0712 130.917 15.3134C130.917 16.5742 131.284 17.5994 132.017 18.3845C132.75 19.1695 133.689 19.5621 134.834 19.5621C135.915 19.5621 136.849 19.1649 137.637 18.3706Z" fill="#CBD5E1" />
</svg>
