<svg width="74" height="34" viewBox="0 0 74 34" fill="none" xmlns="http://www.w3.org/2000/svg">
	<path d="M5.7272 17.0106C5.7272 23.183 10.8047 28.2051 17.047 28.2051H27.7309C28.3257 28.2051 28.8043 27.6256 28.8043 27.1467V6.42082C28.8043 5.04725 29.9338 3.93031 31.3233 3.93031C32.213 3.93031 33.043 4.39739 33.4878 5.14989C33.5418 5.24024 36.7761 10.7551 40.1998 16.5939C43.4705 22.1703 46.8522 27.9367 46.9088 28.0322C47.0593 28.2863 47.3541 28.45 47.6604 28.45C48.1462 28.45 48.5407 28.0594 48.5407 27.5789V6.42082C48.5407 5.04725 49.6712 3.93031 51.0597 3.93031C51.9499 3.93031 52.7794 4.39739 53.2253 5.14989C53.2782 5.24024 56.5099 10.7556 59.9316 16.5939C63.1996 22.1693 66.5782 27.9346 66.6363 28.0322C66.7853 28.2863 67.0812 28.45 67.3879 28.45C67.8733 28.45 68.2678 28.0594 68.2678 27.5789V0.14781H64.1744V16.4763C64.1744 16.4763 56.5447 3.48938 56.2971 3.07207C55.1837 1.18929 53.0711 0 50.8241 0C47.3027 0 44.4473 2.82467 44.4473 6.30687V16.4763C44.4473 16.4763 36.8176 3.48938 36.57 3.07207C35.4566 1.18929 33.344 0 31.0965 0C27.5757 0 24.7203 2.82467 24.7203 6.30687V23.0173C24.7219 23.6255 24.2593 24.1552 23.5872 24.1568H17.0926C13.102 24.1568 9.86622 20.9574 9.86622 17.0101C9.86622 13.0634 13.102 9.86452 17.0926 9.86452H22.5319V5.81563H17.047C10.8047 5.81563 5.7272 10.8378 5.7272 17.0106Z" fill="#CBD5E1" />
	<path d="M69.9067 0.147529V27.5786C69.9067 28.9522 68.7761 30.0697 67.3876 30.0697C66.4974 30.0697 65.668 29.6021 65.2221 28.8496C65.1686 28.7592 61.9369 23.2449 58.5158 17.4056C55.2477 11.8307 51.8692 6.06536 51.811 5.96783C51.662 5.71375 51.3661 5.54949 51.0594 5.54949C50.5735 5.54949 50.1796 5.9406 50.1796 6.42053V27.5786C50.1796 28.9522 49.049 30.0697 47.6606 30.0697C46.7703 30.0697 45.9409 29.6021 45.495 28.8496C45.4415 28.7597 42.2078 23.2449 38.7835 17.4061C35.5134 11.8297 32.1317 6.06279 32.0746 5.96783C31.9241 5.71375 31.6292 5.54949 31.323 5.54949C30.8371 5.54949 30.4416 5.9406 30.4416 6.42053V27.147C30.4416 28.5734 29.1746 29.8243 27.7305 29.8243H17.0472C9.90272 29.8243 4.08973 24.0759 4.08973 17.0104C4.08973 9.94434 9.90272 4.19591 17.0472 4.19591H22.5321V0.147529H17.0518C7.63391 0.147529 0 7.6971 0 17.0104C0 26.3236 7.63391 33.8732 17.0518 33.8732H27.838C31.9235 33.8758 34.5505 31.5079 34.5454 27.1413V17.5237C34.5454 17.5237 42.2301 30.602 42.4222 30.9274C43.5366 32.8102 45.6492 34 47.8962 34C51.4175 34 54.2729 31.1748 54.2729 27.6931V17.5237C54.2729 17.5237 61.9021 30.5101 62.1497 30.9274C63.2636 32.8102 65.3762 34 67.6233 34C71.1446 34 74 31.1748 74 27.6931V0.147529H69.9067Z" fill="#CBD5E1" />
</svg>
