<svg width="132" height="34" viewBox="0 0 132 34" fill="none" xmlns="http://www.w3.org/2000/svg">
	<path d="M12.7429 3.16939H15.6337C17.3942 2.91415 19.192 3.13856 20.832 3.81824C22.8895 5.03648 24.3818 6.99771 24.9907 9.28357C25.4217 10.4814 25.4217 10.4814 26.4614 10.0572H27.2728V0.573984H0.064155V2.24602H1.17989C1.66474 2.24272 2.14418 2.34636 2.58299 2.54933C3.0218 2.75231 3.40883 3.04946 3.71565 3.41895C4.75531 5.06603 4.93281 6.91277 4.93281 16.5208C4.93281 26.7277 4.70459 29.2233 3.71565 30.496C3.4715 30.8232 3.15541 31.0919 2.79097 31.2821C2.42653 31.4722 2.02316 31.5789 1.61097 31.5941C0.064155 31.8686 0.064155 31.8436 0.064155 32.5174C-0.021385 32.7428 -0.021385 32.9909 0.064155 33.2162H17.2312C17.3448 32.9958 17.404 32.7521 17.404 32.505C17.404 32.2578 17.3448 32.0141 17.2312 31.7937C16.8154 31.6799 16.3917 31.5965 15.9634 31.5442C15.5 31.4899 15.042 31.3981 14.594 31.2696C13.9525 30.8087 13.4444 30.191 13.1197 29.4776C12.7951 28.7642 12.6652 27.9798 12.7429 27.2018C12.4894 25.5548 12.3626 22.5351 12.3626 20.0395V18.068H13.3769C14.6406 18.03 15.9036 18.1643 17.1298 18.4673C17.7173 18.8246 18.2173 19.3051 18.5943 19.8745C18.9713 20.444 19.2158 21.0883 19.3106 21.7615L19.5388 22.5351H21.0856V11.4797H19.6656L19.4373 12.5528C19.3413 13.2412 19.0825 13.8979 18.6818 14.47C18.281 15.0422 17.7494 15.5138 17.1298 15.847C16.5297 16.0227 15.8975 16.0653 15.2787 15.9717H12.3626V13.2765C12.3626 10.4814 12.5147 4.59187 12.6162 3.66851L12.7429 3.16939ZM131.416 22.9594C130.218 21.0607 128.348 19.6653 126.167 19.0413C124.495 18.527 122.95 17.6772 121.628 16.5457C121.331 16.2626 121.109 15.9122 120.98 15.5251C120.852 15.1379 120.822 14.7258 120.893 14.3246C120.895 13.5378 121.214 12.7838 121.781 12.2284C122.164 11.8327 122.65 11.5471 123.186 11.402C123.722 11.257 124.288 11.258 124.823 11.4048C125.932 11.7157 126.934 12.316 127.725 13.1419C128.515 13.9679 129.063 14.9888 129.312 16.0965C129.717 17.2195 129.768 17.2195 130.504 16.92L130.96 16.7454V10.5314L130.63 10.3816C128.134 9.51873 125.486 9.16218 122.846 9.33348C120.572 9.39017 118.402 10.2801 116.76 11.8291C116.015 12.5151 115.432 13.353 115.051 14.2841C114.67 15.2152 114.5 16.2171 114.554 17.2195C114.568 18.7521 115.186 20.2194 116.278 21.3123C117.485 22.4802 118.965 23.3374 120.589 23.8079C124.519 25.3302 125.66 26.3034 125.66 28.0753C125.677 28.8225 125.435 29.5531 124.974 30.1472C124.514 30.7413 123.861 31.1635 123.124 31.3445C122.239 31.536 121.322 31.536 120.437 31.3445C119.277 30.9017 118.242 30.1929 117.417 29.277C116.593 28.3611 116.002 27.2647 115.695 26.0788L115.365 25.2803H114.909C114.69 25.2962 114.476 25.3468 114.275 25.43H114.021V32.5174H114.452C116.165 33.0783 117.933 33.463 119.727 33.6654H122.262C123.362 33.7448 124.468 33.6436 125.533 33.3659C126.887 33.1202 128.151 32.5302 129.201 31.6546C130.251 30.779 131.05 29.6483 131.518 28.3748C131.82 27.6635 131.976 26.8999 131.974 26.1287C132.074 25.0424 131.882 23.9493 131.416 22.9594ZM107.53 10.0572C106.01 9.42933 104.373 9.12476 102.725 9.16347C101.078 9.20218 99.4571 9.58329 97.9698 10.2818C96.5717 10.9548 95.3326 11.9089 94.3324 13.0824C93.3322 14.2559 92.5931 15.6227 92.1629 17.0947C91.6144 18.7005 91.382 20.3945 91.4782 22.0859C91.4601 23.0062 91.5365 23.9259 91.7064 24.831C92.1159 27.0566 93.2077 29.1056 94.835 30.7026C96.4623 32.2997 98.5473 33.3684 100.81 33.7652C102.283 33.9479 103.774 33.9479 105.247 33.7652C106.776 33.5 108.24 32.9494 109.558 32.1431C110.649 31.5413 111.572 30.6842 112.246 29.6475C112.203 29.4849 112.127 29.3325 112.022 29.1996C111.917 29.0666 111.787 28.9558 111.638 28.8739C111.348 28.977 111.075 29.1199 110.826 29.2981C109.565 30.1162 108.075 30.5263 106.566 30.4711C105.564 30.5377 104.56 30.3842 103.625 30.0216C102.691 29.6591 101.851 29.0965 101.165 28.3748C100.634 27.8897 100.196 27.3149 99.8716 26.6778C99.0836 25.1263 98.659 23.4208 98.6291 21.6866V20.7133H112.677V20.2142C112.708 19.7156 112.708 19.2155 112.677 18.7169C112.672 16.9547 112.193 15.2253 111.289 13.7044C110.385 12.1834 109.088 10.925 107.53 10.0572ZM100.455 18.6919H98.6798V17.2195C99.263 13.4512 100.708 11.2052 102.483 11.2052C104.258 11.2052 105.019 13.4262 105.349 17.494V18.642H103.827L100.455 18.6919ZM63.9906 9.23366C63.1144 9.20021 62.2434 9.38023 61.4549 9.75773C59.741 10.5768 58.3567 11.9392 57.5244 13.6259L57.1948 14.2248V9.23366H57.068C56.7637 9.23366 47.3814 11.0804 47.0771 11.2052C46.7728 11.3299 46.8742 11.3549 46.8742 11.8041C46.8742 12.2533 46.8743 12.3282 47.0771 12.3531L48.0661 12.5528C48.343 12.5595 48.6148 12.6281 48.8609 12.7535C49.1069 12.8789 49.3207 13.0577 49.4861 13.2765C50.12 14.1 50.2468 15.5475 50.2468 21.7116C50.3721 24.4866 50.2533 27.267 49.8918 30.0219C49.8067 30.4372 49.5927 30.8164 49.2793 31.107C48.9659 31.3975 48.5685 31.5852 48.1421 31.644L47.28 31.8187H46.9503V32.5174C46.8583 32.7502 46.8583 33.0084 46.9503 33.2412H61.1252V32.5174C61.1744 32.2786 61.1744 32.0325 61.1252 31.7937C60.2718 31.761 59.423 31.6524 58.5895 31.4693C58.1355 31.2356 57.7641 30.8721 57.5242 30.4266C57.2843 29.9811 57.1871 29.4746 57.2455 28.9737C57.0426 27.5263 56.9412 23.2838 56.9919 20.0395C57.0426 16.7953 56.9919 16.5956 57.2709 16.371C58.1194 15.7307 59.1694 15.4039 60.2377 15.4477C61.2447 15.4693 62.2334 15.7168 63.1285 16.1714C63.4387 16.341 63.7716 16.467 64.1174 16.5457C64.1174 16.5457 66.6532 10.5064 66.6532 10.2319C66.3287 9.86078 65.9153 9.57516 65.4504 9.40086C64.9855 9.22657 64.4838 9.1691 63.9906 9.23366ZM46.8996 19.7151C46.8111 17.9318 46.2909 16.1951 45.3822 14.6497C44.4736 13.1043 43.2029 11.795 41.6759 10.8308C39.8614 9.8674 37.8425 9.33619 35.7815 9.27984C33.7205 9.2235 31.6747 9.6436 29.8086 10.5064C27.1701 11.8757 25.178 14.2033 24.2553 16.9949C23.3023 20.1204 23.3023 23.4525 24.2553 26.578C24.7549 28.2861 25.6887 29.8407 26.9685 31.095C28.5625 32.6256 30.6178 33.6064 32.8261 33.89C34.2437 34.0067 35.6687 34.0067 37.0862 33.89C37.6079 33.8119 38.1244 33.7036 38.633 33.5656C40.697 32.9974 42.554 31.8624 43.9865 30.2935C45.419 28.7245 46.3679 26.7866 46.7221 24.7063C46.9753 23.0547 47.0348 21.38 46.8996 19.7151ZM36.3509 32.193C33.8151 32.9417 31.9133 30.521 31.2793 25.43C31.0465 22.7646 31.0465 20.0845 31.2793 17.4192C31.7865 13.3264 33.0797 11.2551 35.083 11.2551C35.4871 11.2304 35.8914 11.3014 36.262 11.462C36.6326 11.6227 36.9587 11.8683 37.213 12.1784C38.912 13.8505 39.7488 17.1696 39.7488 22.1608C39.9598 24.9855 39.5086 27.8202 38.4302 30.4461C37.954 31.212 37.2172 31.7868 36.3509 32.0682V32.193ZM81.9945 9.73277C81.279 9.64216 80.5546 9.64216 79.8391 9.73277C78.4656 9.73162 77.1079 10.021 75.858 10.5813L75.0719 10.9057V5.49028C75.2093 3.66268 75.2093 1.8276 75.0719 0C74.7676 0 65.081 1.82178 64.9288 1.89664C64.8541 2.08089 64.8541 2.28638 64.9288 2.47063C64.9288 2.9947 64.9288 2.96974 66.0699 3.2193C66.3903 3.29001 66.6981 3.40779 66.9828 3.56868C67.4778 4.02677 67.8072 4.6314 67.921 5.29063C68.2098 7.18983 68.3032 9.11283 68.2 11.0305V32.9417L68.8846 33.0914C69.8989 33.316 72.7643 33.7902 73.7026 33.89C75.5761 34.0367 77.4585 34.0367 79.332 33.89C81.4115 33.681 83.3936 32.9175 85.0648 31.6817C86.7359 30.446 88.0328 28.7849 88.8157 26.8774C89.2824 25.6532 89.6057 24.3805 89.7793 23.0841C89.9302 21.3281 89.8706 19.5608 89.6018 17.8185C89.3297 15.8655 88.4539 14.0421 87.093 12.5956C85.7322 11.1492 83.9522 10.1497 81.9945 9.73277ZM75.3508 31.7688C75.3508 31.4443 75.0972 20.5137 75.148 16.1464V12.7275L75.8833 12.5528C76.3795 12.4828 76.8833 12.4828 77.3794 12.5528C77.9281 12.4979 78.4801 12.6205 78.9516 12.9022C79.8986 13.5454 80.6849 14.3916 81.2515 15.3772C81.8181 16.3627 82.1502 17.462 82.2227 18.5921C82.4074 20.4093 82.4074 22.2402 82.2227 24.0574C82.0709 26.6986 81.0369 29.2165 79.2812 31.2197C78.7829 31.6855 78.1571 31.9978 77.4809 32.1181C76.9691 32.2057 76.4458 32.2057 75.934 32.1181C75.4522 32.1181 75.4522 31.9684 75.4522 31.7688H75.3508Z" fill="#CBD5E1" />
</svg>
