<svg width="76" height="34" viewBox="0 0 76 34" fill="none" xmlns="http://www.w3.org/2000/svg">
	<path d="M9.23214 9.29094V13.7103H18.2224V22.9513H9.23214V33.8992H0V0H19.6241L20.2526 9.29094H9.23214Z" fill="#CBD5E1" />
	<path d="M46.6092 5.21084C49.672 8.45913 51.2043 12.3803 51.2043 16.9735C51.2043 21.6001 49.6719 25.5373 46.6092 28.786C43.5459 32.0341 39.8514 33.6582 35.5253 33.6582C31.1674 33.6582 27.4563 32.0341 24.3937 28.786C21.3303 25.5374 19.7989 21.6001 19.7989 16.9735C19.7989 12.3802 21.3303 8.45913 24.3937 5.21084C27.4563 1.96255 31.1674 0.33834 35.5253 0.33834C39.8512 0.33834 43.5459 1.96255 46.6092 5.21084ZM32.8726 23.7654C32.8726 24.5208 33.1405 25.1767 33.6778 25.7342C34.2143 26.2925 34.8621 26.5711 35.6199 26.5711C36.3779 26.5711 37.0173 26.2925 37.5384 25.7342C38.0596 25.1767 38.3201 24.5208 38.3201 23.7654V10.034C38.3201 9.24666 38.0596 8.57446 37.5384 8.0162C37.0174 7.45878 36.378 7.17951 35.6199 7.17951C34.8621 7.17951 34.2145 7.45878 33.6778 8.0162C33.1404 8.57446 32.8726 9.24666 32.8726 10.034V23.7654Z" fill="#CBD5E1" />
	<path d="M65.6077 34L60.9678 25.4119L56.4727 34H46.3222L55.9894 16.4224L46.8539 0H57.2944L61.113 7.3323L64.9797 0H75.0816L66.1395 16.3218L76 33.9999H65.6077V34Z" fill="#CBD5E1" />
</svg>
