<svg width="64" height="64" viewBox="0 0 64 64" fill="none" xmlns="http://www.w3.org/2000/svg">
	<path d="M7.50822 10.3578C4.84981 12.7515 3.88228 18.175 8.67445 21.3455L27.7921 34.3917L18.5225 13.2683C16.5801 8.28363 11.2664 7.19665 7.50822 10.3578Z" fill="#CBD5E1" />
	<path d="M23.9648 0.0876161C20.8573 0.150499 16.1911 3.83143 18.2677 9.45216L27.8546 31.942L31.2236 8.28701C32.0032 2.40927 27.5313 -0.304031 23.9648 0.0876161Z" fill="#CBD5E1" />
	<path d="M32.72 7.38495H34.5327C34.5327 7.38495 35.5009 7.38495 35.6326 7.83913C34.9192 8.41861 32.9772 8.49118 33.235 11.5866L36.2827 31.9389L45.8044 9.38997C47.752 4.35526 43.6639 0.150499 40.0374 0.0219332C39.8682 0.00979991 39.6981 4.33829e-09 39.5224 4.33829e-09C36.2673 -0.000116662 32.5374 2.3528 32.72 7.38495Z" fill="#CBD5E1" />
	<path d="M45.4211 13.4597L36.4149 34.3296L55.5272 21.2146C59.9327 18.1064 59.2221 13.1372 56.756 10.681C55.7222 9.52495 53.824 8.63188 51.813 8.63188C49.4374 8.63153 46.8949 9.88487 45.4211 13.4597Z" fill="#CBD5E1" />
	<path d="M53.3873 24.1843L35.4386 36.6543H57.5384C62.0724 36.6543 64.9861 32.0041 63.6909 27.7371C62.8234 25.0551 60.2567 22.9496 57.2776 22.9465C56.0237 22.9471 54.6938 23.3228 53.3873 24.1843Z" fill="#CBD5E1" />
	<path d="M6.9932 36.6543H28.7669L10.8138 24.1843C6.66642 21.5336 2.00257 23.0846 0.318967 27.4831C-1.10812 32.5184 2.45508 36.6543 6.9932 36.6543Z" fill="#CBD5E1" />
	<path d="M31.1065 53.7159H35.1458C36.0743 53.774 37.7202 54.5804 37.7202 56.4901C37.7202 58.4875 36.012 59.2935 35.0865 59.3845H31.1065V53.7159ZM31.045 44.8235H34.3697C35.5061 44.8845 36.8499 45.7199 36.8499 47.2707C36.8499 48.7919 35.834 49.8057 34.5195 49.9864H31.045V44.8235ZM26.4994 41.123V63.0813H37.211C39.7534 63.0813 42.7756 60.5467 42.7756 57.2348C42.7756 53.7745 40.5029 52.075 39.0649 51.3883C39.0649 51.3883 41.6979 49.867 41.5809 46.5842C41.4611 42.1684 37.36 41.123 35.9541 41.123H26.4994Z" fill="#CBD5E1" />
	<path d="M10.0701 63.0813V50.434L23.9539 63.9166V41.123H19.2885V53.4468L5.40143 40.23V63.0813H10.0701Z" fill="#CBD5E1" />
	<path d="M43.5257 51.8643C43.6427 58.8084 48.6588 64 55.1073 64C56.6362 64 58.2469 63.7122 59.8931 63.0813V58.6071C58.5885 59.4001 57.1368 59.7824 55.7144 59.7824C51.8121 59.7824 48.1301 56.9102 48.2824 51.686C48.5454 47.4483 52.0333 44.522 55.7922 44.522C57.1688 44.522 58.5846 44.9165 59.8931 45.7782V41.424C58.3674 40.8088 56.8508 40.5337 55.3899 40.5337C48.9577 40.5336 43.6492 45.9304 43.5257 51.8643Z" fill="#CBD5E1" />
</svg>
