<svg width="100" height="100" viewBox="0 0 100 100" fill="none" xmlns="http://www.w3.org/2000/svg">
	<path d="M76.0903 6.60283C87.9853 14.902 99.0481 26.9941 99.9411 42.8383C100.85 58.955 91.1036 72.5553 80.4058 83.1686C69.7135 93.7765 56.7199 101.718 42.6478 99.6793C27.6702 97.5088 14.2118 87.4898 6.82509 72.5058C-0.72464 57.1912 -2.78073 37.9204 4.60027 22.4996C11.4089 8.27461 26.8104 4.66915 40.7814 1.56252C53.0296 -1.16103 65.4512 -0.820081 76.0903 6.60283Z" fill="#99F6E4" />
	<path d="M75.1258 54.2311C75.0988 54.32 75.0898 54.4 75.0808 54.4889C75.0808 54.6133 74.4512 67.4489 67.6605 74.6222C67.5975 74.6933 67.5435 74.7645 67.4986 74.8356C66.8869 75.5289 66.2304 76.1778 65.5198 76.7733C61.0226 80.5511 55.3022 80.5511 51.1917 76.7911C50.1934 75.8756 49.7886 75.8667 48.7992 76.7822C45.2195 80.0622 40.2366 80.5422 36.1082 77.9645C33.0591 76.0622 30.9994 73.3067 29.3084 70.24C27.3027 66.5867 26.0525 62.6845 25.3329 58.6133C25.3329 58.6133 25.3329 58.5956 25.3329 58.5867C23.525 47.4045 27.2577 39.8222 27.3207 39.7156C27.3566 39.6445 27.3926 39.5645 27.4106 39.4845C27.4556 39.3867 27.5006 39.2889 27.5545 39.1911C28.7058 36.9956 30.3428 35.2356 32.5104 33.9822C37.6732 30.9956 44.365 31.7067 48.9342 35.7156C49.7437 36.4267 50.2473 36.4445 51.0119 35.7511C53.2425 33.7511 55.8508 32.5067 58.855 32.2845C64.4045 31.8667 68.9826 33.6 72.0137 38.4622C73.9835 41.6178 74.712 45.1645 75.0358 48.8C75.1977 50.6133 75.2067 52.4178 75.1258 54.2311Z" fill="#F87171" />
	<path d="M37.934 42.8799C43.8254 42.8799 49.7257 42.8799 55.617 42.8799C58.1534 42.8799 59.5925 44.3199 59.6015 46.8355C59.6015 48.2221 59.6015 49.5999 59.6015 50.9866C59.5925 53.2355 58.0725 54.7377 55.7879 54.7377C43.9513 54.7377 32.1057 54.7377 20.2691 54.7377C18.1374 54.7377 16.5274 56.151 16.4375 58.0888C16.3475 60.0444 17.8046 61.6799 19.7924 61.8399C20.7548 61.9199 21.2585 62.3555 21.2315 63.0844C21.1955 63.8488 20.5929 64.2666 19.6125 64.2044C16.6444 64.0177 14.1259 61.5377 14.063 58.5955C14 55.2355 14 51.8844 14.063 48.5244C14.1259 45.3955 16.7973 42.8977 20.0352 42.8888C26.0075 42.8621 31.9708 42.8888 37.943 42.8888L37.934 42.8799Z" fill="#0C4A6E" />
	<path d="M62.066 71.3245C56.1746 71.3245 50.2833 71.3245 44.383 71.3245C41.8556 71.3245 40.4075 69.8845 40.4075 67.3689C40.4075 65.9911 40.4075 64.6045 40.4075 63.2267C40.4165 60.9778 41.9275 59.4845 44.2211 59.4845C56.0577 59.4845 67.8943 59.4845 79.7309 59.4845C82.0155 59.4845 83.6525 57.8845 83.5715 55.7689C83.5086 54.2667 82.5821 53.0934 80.9542 52.5245C80.3785 52.32 79.9918 51.9823 79.9828 51.36C79.9828 50.8089 80.2706 50.4356 80.7923 50.2311C81.0621 50.1245 81.3229 50.16 81.5928 50.2311C84.0392 50.8711 85.9101 53.1289 85.946 55.6356C86 58.9689 86 62.3023 85.946 65.6267C85.8921 68.8267 83.2117 71.3156 79.8838 71.3245C73.9385 71.3423 67.9933 71.3245 62.057 71.3245H62.066Z" fill="#0C4A6E" />
	<path d="M75.5126 40.1422C72.6074 32.8533 66.1944 29.0577 58.3243 29.9555C56.7053 30.1422 55.1673 30.6044 53.6382 31.2266C53.6202 31.0666 53.6113 30.9777 53.6113 30.8799C53.6472 27.7422 56.2376 25.2177 59.5385 25.1022C61.6972 25.0311 63.2532 23.4577 63.1993 21.4222C63.1453 19.4399 61.4993 17.9111 59.3677 18.0088C53.953 18.2488 50.0225 20.8088 47.621 25.5999C46.7485 27.3422 46.4157 29.2266 46.3888 31.1466C46.3168 31.1644 46.2898 31.1822 46.2718 31.1733C46.1549 31.1377 46.038 31.0933 45.9211 31.0488C41.8016 29.4577 37.6462 29.3244 33.5088 30.9066C29.6592 32.3733 26.889 35.0399 25.1351 38.7288C25.1081 38.7822 25.0901 38.8444 25.0631 38.8977C24.3885 40.3466 21.1775 47.9644 22.9674 58.9955C22.9764 59.0488 22.9854 59.1111 23.0034 59.1644C23.669 62.9511 24.7753 66.6044 26.4932 70.0622C28.2561 73.6177 30.4777 76.8444 33.7337 79.2533C38.6986 82.9333 44.7158 82.9244 49.5818 79.2266C49.9505 78.9511 50.1394 79.0133 50.4632 79.2622C52.7478 81.0577 55.3652 81.9377 58.2703 81.9911C59.3497 81.9911 60.411 81.8577 61.4543 81.5733C64.8722 80.6577 67.4716 78.5688 69.6932 75.9466C69.6932 75.9466 69.7112 75.9288 69.7112 75.9199C75.4586 69.5822 76.9697 59.9466 77.3564 56.1688C77.3834 56.0711 77.4104 55.9644 77.4194 55.8577C77.4554 55.4133 77.4913 54.9688 77.5093 54.5333C77.7342 49.6088 77.3474 44.7733 75.5036 40.1422H75.5126ZM75.1348 54.2311C75.1078 54.3199 75.0988 54.3999 75.0898 54.4888C75.0898 54.6133 74.4602 67.4488 67.6695 74.6222C67.6065 74.6933 67.5525 74.7644 67.5076 74.8355C66.896 75.5288 66.2394 76.1777 65.5288 76.7733C61.0316 80.5511 55.3112 80.5511 51.2008 76.7911C50.2024 75.8755 49.7976 75.8666 48.8083 76.7822C45.2285 80.0622 40.2456 80.5422 36.1172 77.9644C33.0681 76.0622 31.0084 73.3066 29.3174 70.2399C27.3117 66.5866 26.0615 62.6844 25.3419 58.6133C25.3419 58.6133 25.3419 58.5955 25.3419 58.5866C23.5341 47.4044 27.2667 39.8222 27.3297 39.7155C27.3657 39.6444 27.4016 39.5644 27.4196 39.4844C27.4646 39.3866 27.5096 39.2888 27.5635 39.1911C28.7148 36.9955 30.3518 35.2355 32.5194 33.9822C37.6822 30.9955 44.374 31.7066 48.9432 35.7155C49.7527 36.4266 50.2563 36.4444 51.0209 35.7511C53.2515 33.7511 55.8598 32.5066 58.864 32.2844C64.4135 31.8666 68.9916 33.5999 72.0227 38.4622C73.9925 41.6177 74.7211 45.1644 75.0449 48.7999C75.2068 50.6133 75.2158 52.4177 75.1348 54.2311Z" fill="#0C4A6E" />
	<path d="M16.4285 53.5377C16.4285 51.831 16.4015 50.2488 16.4285 48.6666C16.4735 46.7466 18.0565 45.2622 20.0442 45.2533C23.9928 45.2355 27.9413 45.2533 31.8898 45.2533C39.7599 45.2533 47.63 45.2533 55.5001 45.2533C56.8312 45.2533 57.191 45.5999 57.191 46.9066C57.191 48.2666 57.191 49.6266 57.191 50.9777C57.191 51.9021 56.7413 52.3466 55.8239 52.3555C54.8525 52.3644 53.8721 52.3288 52.9007 52.3733C52.442 52.391 52.379 52.2044 52.388 51.8222C52.415 50.9599 52.397 50.0977 52.388 49.2266C52.388 48.1688 51.9563 47.6088 51.1738 47.6266C50.3913 47.6355 49.9955 48.1866 49.9955 49.2621C49.9955 50.1244 49.9865 50.9866 49.9955 51.8577C49.9955 52.2044 49.9595 52.3821 49.5278 52.3733C48.2326 52.3377 46.9284 52.3466 45.6332 52.3733C45.2465 52.3733 45.1835 52.2399 45.1925 51.9022C45.2195 51.2888 45.2105 50.6666 45.1925 50.0533C45.1655 49.3066 44.6708 48.8088 43.9873 48.8177C43.3037 48.8177 42.827 49.3244 42.809 50.0799C42.791 50.6933 42.782 51.3155 42.809 51.9288C42.827 52.3021 42.6921 52.3821 42.3413 52.3733C41.0461 52.3555 39.7419 52.3555 38.4467 52.3733C38.069 52.3733 37.988 52.2488 37.997 51.911C38.015 50.951 38.015 49.9822 37.997 49.0222C37.997 48.151 37.5293 47.6266 36.7918 47.6266C36.0632 47.6266 35.6045 48.151 35.6045 49.031C35.6045 49.991 35.5865 50.9599 35.6045 51.9199C35.6135 52.2755 35.5056 52.3733 35.1458 52.3733C33.8506 52.3555 32.5464 52.3555 31.2512 52.3733C30.8825 52.3733 30.7835 52.2666 30.7925 51.9199C30.8195 51.3066 30.8105 50.6844 30.7925 50.071C30.7655 49.3155 30.2798 48.8177 29.5963 48.8177C28.9127 48.8177 28.427 49.3155 28.4 50.071C28.382 50.711 28.382 51.351 28.4 51.9999C28.4 52.2844 28.3191 52.3822 28.0222 52.3822C26.6731 52.3644 25.3239 52.3644 23.9748 52.3822C23.597 52.3822 23.588 52.2044 23.588 51.9288C23.597 50.9688 23.597 49.9999 23.588 49.0399C23.588 48.1599 23.1293 47.6355 22.4008 47.6355C21.6722 47.6355 21.2045 48.1599 21.1955 49.031C21.1955 49.9733 21.1775 50.9066 21.1955 51.8488C21.2045 52.2488 21.1146 52.4177 20.6738 52.391C19.1628 52.2933 17.7597 52.6133 16.3925 53.5555L16.4285 53.5377Z" fill="#FEF08A" />
	<path d="M83.5715 60.6667C83.5715 62.4 83.6165 64 83.5625 65.6C83.4816 67.7778 81.2959 69.36 79.0563 68.96C78.6786 68.8889 78.7865 68.6667 78.7865 68.48C78.7775 67.5378 78.7865 66.6045 78.7865 65.6623C78.7865 64.7378 78.3188 64.1956 77.5633 64.2134C76.8347 64.2312 76.394 64.7556 76.385 65.6356C76.385 66.4978 76.331 67.3689 76.403 68.2311C76.457 68.88 76.2141 68.9956 75.6205 68.9689C74.5771 68.9156 73.5158 68.8889 72.4724 68.9689C71.663 69.04 71.501 68.7378 71.582 68.0356C71.636 67.5734 71.609 67.1023 71.582 66.6311C71.555 65.8845 71.0513 65.3867 70.3678 65.3956C69.6842 65.4045 69.2075 65.9023 69.1895 66.6578C69.1715 67.2534 69.1715 67.84 69.1895 68.4356C69.1985 68.7734 69.1715 68.9689 68.7218 68.96C67.4266 68.9245 66.1224 68.9334 64.8272 68.96C64.4495 68.96 64.3775 68.8267 64.3865 68.4889C64.4045 67.5289 64.4045 66.56 64.3865 65.6C64.3865 64.7289 63.9098 64.2045 63.1813 64.2134C62.4527 64.2134 62.003 64.7467 61.994 65.6178C61.994 66.56 61.985 67.4934 61.994 68.4356C61.994 68.7645 61.994 68.9778 61.5353 68.96C60.2401 68.9245 58.9359 68.9334 57.6407 68.96C57.2719 68.96 57.173 68.8445 57.191 68.4978C57.218 67.8845 57.209 67.2623 57.191 66.6489C57.164 65.8934 56.6783 65.3956 55.9947 65.4045C55.3112 65.4045 54.8255 65.9023 54.8075 66.6578C54.7895 67.2712 54.7805 67.8934 54.8075 68.5067C54.8255 68.8623 54.7175 68.9689 54.3488 68.96C53.0536 68.9423 51.7494 68.9423 50.4542 68.96C50.0944 68.96 49.9865 68.8623 49.9955 68.5067C50.0225 67.5467 50.0135 66.5778 49.9955 65.6178C49.9955 64.7467 49.5368 64.2223 48.7992 64.2134C48.0707 64.2134 47.603 64.7378 47.603 65.6089C47.603 66.5689 47.585 67.5378 47.603 68.4978C47.603 68.8445 47.522 68.9689 47.1533 68.96C46.1279 68.9334 45.1025 68.96 44.0772 68.9423C43.2767 68.9245 42.809 68.48 42.8 67.6978C42.782 66.1689 42.782 64.64 42.8 63.1023C42.809 62.2312 43.2947 61.8311 44.2751 61.8311C49.4738 61.8311 54.6726 61.8311 59.8623 61.8311C66.3113 61.8311 72.7513 61.8134 79.2002 61.84C80.7383 61.84 82.1684 61.6178 83.5625 60.6489L83.5715 60.6667Z" fill="#FEF08A" />
	<path d="M48.7993 31.2266C48.8172 25.2532 53.5303 20.391 59.3227 20.3555C59.9163 20.3555 60.411 20.4888 60.6718 21.0666C61.0586 21.9021 60.474 22.6844 59.4216 22.7288C56.8672 22.8355 54.7445 23.831 53.1076 25.7688C51.6145 27.5466 51.0928 29.6266 51.1828 31.9021C51.1918 32.2221 51.3447 32.631 50.9039 32.8088C50.5172 32.9599 50.3103 33.6355 49.7976 33.3244C49.231 32.9866 48.5384 32.6399 48.7813 31.7421C48.8262 31.5821 48.7813 31.3955 48.7813 31.2266H48.7993Z" fill="#4ADE80" />
</svg>
