<svg width="100" height="100" viewBox="0 0 100 100" fill="none" xmlns="http://www.w3.org/2000/svg">
	<path d="M75.3882 6.27353C87.5236 13.7748 92.8602 27.9765 96.0659 42.3412C99.5912 58.1381 103.744 76.1391 93.7457 88.534C83.6069 101.103 65.7802 100.754 50.1264 99.2909C35.4483 97.9189 21.1338 92.961 11.9604 80.8895C2.2189 68.0706 -2.79926 51.1701 1.61666 35.4563C5.97863 19.9344 19.1779 9.47232 33.6376 3.75232C47.3567 -1.67472 62.7598 -1.5325 75.3882 6.27353Z" fill="#99F6E4" />
	<path d="M14 52.3698C14.5207 50.8736 15.5722 50.2811 17.1344 50.3514C18.6064 50.4217 20.0885 50.3514 21.5605 50.3715C21.8809 50.3715 22.0712 50.3213 22.1413 49.9498C22.9725 45.0796 25.8565 41.6052 29.7619 38.8438C30.8534 38.0706 32.005 37.3978 33.2167 36.8355C34.0378 36.4539 34.7688 36.6045 35.2095 37.2271C35.6901 37.9099 35.59 38.653 34.869 39.2856C32.3455 41.4948 30.4629 44.1257 29.5616 47.3992C29.3513 48.1624 29.2412 48.9556 29.0709 49.7389C28.9608 50.2209 29.111 50.3815 29.6217 50.3715C34.4284 50.3514 39.225 50.3715 44.0317 50.3514C44.6726 50.3514 45.2434 50.4518 45.654 51.0041C46.1346 51.6468 46.0245 52.2995 45.7241 52.9924C44.6526 55.4726 45.7541 58.2441 48.1975 59.2583C49.9399 59.9813 51.9828 59.5696 53.3246 58.224C54.6565 56.8784 55.057 54.84 54.316 53.0827C54.1157 52.6007 53.9054 52.1489 54.0556 51.5966C54.2759 50.7932 54.8768 50.3615 55.8581 50.3615C59.3229 50.3615 62.7978 50.3313 66.2626 50.3815C66.9836 50.3815 67.2239 50.2309 67.3741 49.4878C68.1953 45.3909 70.5285 42.2378 73.743 39.6873C75.1449 38.5727 76.667 37.6589 78.2693 36.8757C79.1705 36.4439 79.9316 36.5845 80.3822 37.2673C80.8529 37.9702 80.7227 38.6831 79.9316 39.366C77.0776 41.8663 75.165 44.929 74.4039 48.6745C74.0634 50.3615 74.0534 50.3615 75.7458 50.3615C78.2292 50.3615 80.7127 50.3615 83.1961 50.3615C85.0286 50.3615 86.01 51.3556 86.01 53.1932C86.01 60.875 86.01 68.5467 86.01 76.2285C86.01 77.6343 85.3391 78.518 84.0573 78.8594C83.7869 78.9698 83.4965 78.9096 83.2261 78.9096C60.8951 78.9096 38.5641 78.9096 16.2331 78.9096C14.9213 78.8996 14.3505 78.4075 14.01 77.0117V52.3698H14Z" fill="#0C4A6E" />
	<path d="M15.9527 78.8694C16.3232 78.8694 16.7037 78.8694 17.0742 78.8694C39.0247 78.8694 60.9752 78.8694 82.9257 78.8694C83.2962 78.8694 83.6767 78.8694 84.0473 78.8794C84.0072 78.9195 84.0072 78.9595 84.0272 79.0096H15.9727C15.9727 79.0096 15.9226 78.9595 15.9327 78.9295C15.9327 78.8994 15.9427 78.8794 15.9527 78.8794V78.8694Z" fill="#0C4A6E" />
	<path d="M69.3469 22.0443C69.1065 21.2812 68.4356 20.8996 67.5844 21.0301C65.5917 21.3414 63.649 21.8636 61.7864 22.6468C59.7636 23.5003 57.911 24.625 56.3088 26.1413C56.2186 26.2216 53.9054 28.6215 53.1444 30.429C53.1243 30.4591 53.1043 30.4893 53.0943 30.5194C52.874 30.9512 52.6837 31.4131 52.5235 31.875C52.3833 32.2767 52.173 32.5177 51.7725 32.7084C49.1789 33.9335 47.7268 36.7451 48.2075 39.4965C48.6782 42.1475 50.711 44.2161 53.3446 44.7282C55.8581 45.2202 58.4918 44.0454 59.8737 41.8262C61.2857 39.5568 61.1655 36.7351 59.5232 34.5762C59.2629 34.2247 59.2228 33.9536 59.353 33.562C60.2342 30.8909 61.7363 28.6416 63.8292 26.7839C65.2211 25.5488 66.8033 24.5949 68.4957 23.8217C69.2668 23.4702 69.5772 22.7573 69.3469 22.0343V22.0443ZM62.9981 24.6953C62.7377 24.9262 62.4673 25.1572 62.207 25.3982C59.8937 27.517 58.2715 30.0675 57.2901 33.0599C56.9396 34.1143 57.0298 34.9477 57.7908 35.8314C59.0325 37.2573 59.0325 39.4062 57.951 40.9224C56.8695 42.4387 54.9068 43.0814 53.1444 42.499C51.5121 41.9567 50.3204 40.4003 50.2504 38.7133C50.1702 36.8355 51.1516 35.2289 52.854 34.526C53.4147 34.295 53.9255 34.0239 54.1658 33.4415C54.4262 32.8189 55.017 31.403 55.047 31.3227C55.7079 29.6859 57.951 27.4868 58.0111 27.4266C59.3129 26.2517 60.795 25.3681 62.3972 24.6852C62.5675 24.615 62.7377 24.4242 62.988 24.5848C62.988 24.6652 62.988 24.6953 62.988 24.7053L62.9981 24.6953Z" fill="#0C4A6E" />
	<path d="M63.0081 24.5748C63.0081 24.6552 63.0081 24.6853 63.0081 24.6953C62.7477 24.9263 62.4773 25.1572 62.217 25.3982C59.9037 27.517 58.2815 30.0676 57.3001 33.0599C56.9496 34.1143 57.0398 34.9478 57.8008 35.8314C59.0426 37.2573 59.0426 39.4062 57.961 40.9225C56.8795 42.4388 54.9168 43.0814 53.1544 42.499C51.5221 41.9568 50.3304 40.4003 50.2604 38.7133C50.1802 36.8356 51.1616 35.2289 52.864 34.526C53.4247 34.2951 53.9355 34.0239 54.1758 33.4415C54.4362 32.8189 55.027 31.4031 55.057 31.3228C55.7179 29.686 57.961 27.4869 58.0211 27.4266C59.3229 26.2518 60.805 25.3681 62.4072 24.6853C62.5775 24.615 62.7477 24.4242 62.998 24.5849L63.0081 24.5748Z" fill="#E2E8F0" />
	<path d="M73.4726 33.4516C72.7616 33.4516 72.2709 32.839 72.4111 32.0859C73.062 28.4107 74.9346 25.4786 77.8887 23.2293C78.4094 22.8376 78.9602 22.4761 79.521 22.1448C80.1819 21.7431 80.7827 21.8636 81.1132 22.4058C81.4436 22.9481 81.2634 23.5405 80.6125 23.9422C79.511 24.615 78.4795 25.3781 77.5783 26.312C75.936 28.0392 74.8946 30.0676 74.484 32.4173C74.3738 33.0398 74.0434 33.3712 73.4626 33.4516H73.4726Z" fill="#0C4A6E" />
	<path d="M40.8573 32.1763C41.1878 29.9872 42.069 27.9388 43.4409 26.1112C44.6626 24.4744 46.1947 23.1791 47.9572 22.1548C48.6681 21.7431 49.269 21.8536 49.5994 22.436C49.9199 22.9983 49.7396 23.5406 49.0487 23.9523C46.1747 25.6593 44.1218 28.0191 43.2106 31.2826C43.0904 31.7144 43.0403 32.1562 42.9302 32.588C42.78 33.1805 42.2693 33.5219 41.7285 33.4215C41.1577 33.321 40.8373 32.8792 40.8673 32.1663L40.8573 32.1763Z" fill="#0C4A6E" />
	<path d="M29.9822 52.5104H43.6011C43.1405 53.9564 43.0404 55.3923 43.4509 56.8282C44.4623 60.3729 48.2376 62.4816 51.8125 61.5076C55.3675 60.5436 57.5405 56.7278 56.5491 53.1229C56.4089 52.6008 56.4189 52.4702 57.0098 52.4702C65.6818 52.4903 74.3539 52.4903 83.0259 52.4702C83.7068 52.4702 83.9071 52.6911 83.8971 53.3639C83.8671 57.3303 83.8871 61.2967 83.8871 65.3234C82.7655 64.8816 81.7141 64.3695 80.5825 64.0782C75.906 62.8733 71.2896 62.9837 66.8534 65.0121C63.8593 66.3878 60.785 67.161 57.4804 67.0104C55.2073 66.91 53.0242 66.4681 50.9614 65.4941C47.9572 64.0782 44.8329 63.2046 41.4782 63.3352C40.597 63.3653 40.1263 63.7168 40.1363 64.4096C40.1463 65.0724 40.607 65.4841 41.4481 65.4439C44.4723 65.3234 47.2562 66.1568 49.99 67.3618C55.5577 69.812 61.1856 69.8521 66.7132 67.3116C70.9591 65.3636 75.2851 64.9318 79.7814 66.0363C81.1032 66.3577 82.3249 66.9702 83.5667 67.4924C83.837 67.6028 83.8771 67.7735 83.8771 68.0246C83.8771 70.7458 83.8771 73.4771 83.8771 76.1984C83.8771 76.6402 83.7068 76.8611 83.2562 76.8511C83.096 76.8511 82.9258 76.8511 82.7655 76.8511C60.8952 76.8511 39.0348 76.8511 17.1644 76.8511C16.4434 76.8511 16.0829 76.4863 16.0829 75.7566C16.0829 72.9148 16.0829 70.0731 16.0829 67.171C17.0843 67.5526 18.0356 67.9844 19.027 68.2656C23.8737 69.6413 28.6404 69.4605 33.2968 67.402C34.3483 66.9401 35.3897 66.4681 36.4813 66.1267C37.2023 65.9058 37.5027 65.3435 37.3024 64.7309C37.1121 64.1485 36.5213 63.9176 35.8003 64.1285C34.6287 64.4799 33.5271 64.992 32.4156 65.474C27.4387 67.6028 22.4818 67.5426 17.4849 65.474C16.4034 65.0222 16.0128 64.51 16.0529 63.3151C16.153 60.0114 16.0929 56.6977 16.0929 53.384C16.0929 52.5003 16.0929 52.4903 17.0042 52.4903C18.4562 52.4903 19.8982 52.4903 21.4804 52.4903C19.8181 54.1773 19.0771 56.0751 19.4576 58.3445C19.728 59.9411 20.489 61.2465 21.7508 62.2507C24.3544 64.3293 28.1096 64.0682 30.3527 61.6582C32.5858 59.2583 32.8061 55.3019 29.9722 52.5204L29.9822 52.5104Z" fill="#FCA5A5" />
	<path d="M29.8721 41.4849C29.9021 41.8664 29.6918 42.0171 29.5816 42.2079C27.7691 45.15 26.8278 48.3332 26.8879 51.8076C26.8979 52.641 27.2384 53.2134 27.9394 53.6552C29.7018 54.7799 30.4028 56.7681 29.7519 58.666C29.111 60.5337 27.3085 61.6985 25.3257 61.5278C23.373 61.3571 21.7908 59.8408 21.5205 57.7923C21.3202 56.2861 21.8309 54.9908 23.0125 54.0468C23.7235 53.4745 23.9939 52.8318 24.044 51.9482C24.2542 47.6403 26.3271 44.3065 29.5816 41.6254C29.6417 41.5752 29.7319 41.5552 29.8721 41.4849V41.4849Z" fill="#E2E8F0" />
	<path d="M75.2651 41.3843C73.753 43.6135 72.7616 45.9231 72.311 48.4435C72.2509 48.7648 72.1508 49.0962 72.1608 49.4075C72.2009 50.2409 71.8404 50.5221 71.0493 50.3715C70.8189 50.3313 70.5786 50.3715 70.3483 50.3715C69.3068 50.3715 69.2968 50.3715 69.5472 49.3774C70.3783 46.0837 72.321 43.5432 74.9246 41.4546C74.9647 41.4244 75.0448 41.4244 75.2651 41.3843V41.3843Z" fill="#E2E8F0" />
</svg>
