<svg width="100" height="100" viewBox="0 0 100 100" fill="none" xmlns="http://www.w3.org/2000/svg">
	<path d="M64.1742 1.60336C76.8857 5.47936 86.2311 16.1477 92.1229 28.962C98.5222 42.8801 103.397 59.0738 96.9973 72.9918C90.454 87.2224 75.4415 92.7816 61.1469 96.3292C45.8306 100.13 28.8593 103.433 16.4504 92.9813C3.47512 82.0528 -1.67712 62.8888 0.473267 45.2264C2.42191 29.221 14.0864 17.6258 26.6744 9.00544C37.9765 1.26564 51.306 -2.32039 64.1742 1.60336Z" fill="#99F6E4" />
	<path d="M85.82 53.2601C85.62 52.6601 85.41 52.0601 85.19 51.4601C83.3 46.2501 81.39 41.0501 78.62 36.2201C77.74 34.6901 76.71 33.3101 75.18 32.3301C70.1 29.0601 64.67 26.6201 58.76 25.3301C58.17 25.2001 58.13 24.9801 58.2 24.5101C58.46 22.8401 58.72 21.1601 58.94 19.4901C59.25 17.1201 59.64 14.7501 59.02 12.3701C58.5 10.3501 57.59 8.55007 55.52 7.82007C53.15 6.99007 50.74 6.19007 48.18 6.08007C47.78 5.97007 47.37 6.05007 46.96 6.03007C46.92 6.03007 46.88 6.03007 46.84 6.03007C44.04 5.94007 41.78 7.17007 39.76 8.99007C39.14 9.55007 38.51 10.0901 37.88 10.6301C37.32 11.1001 36.7 11.4301 35.9 11.3301C34.45 11.1401 33.77 11.7001 33.8 13.1501C33.87 16.0701 35.23 18.4701 37.02 20.6601C37.41 21.1401 37.63 21.6001 37.64 22.2301C37.67 23.7101 37.93 25.1601 38.49 26.5401C38.82 27.3501 38.82 27.3701 38 27.6601C35.98 28.3701 34.01 29.2001 32.11 30.1801C29.53 31.5001 27.27 33.2001 25.43 35.4601C23.62 37.6801 21.9 39.9701 20.23 42.2901C18.64 44.5001 17.09 46.7401 15.57 49.0001C15.11 49.6901 14.89 50.4301 15.5 51.0601C16.24 51.8301 16.25 52.5301 15.68 53.3401C15.59 53.4801 15.55 53.6401 15.48 53.8001C14.61 55.8301 14.13 57.9501 14 60.1601V63.1601C14.56 64.7301 15.34 66.1701 16.45 67.4301C18.06 69.2601 19.91 70.8001 21.81 72.3001C25.95 75.5501 30.41 78.4501 33.62 82.7601C33.87 83.0901 34.02 83.3701 34.01 83.7901C33.99 84.9301 34 86.0701 34.01 87.2101C34.01 87.3301 34.01 87.4401 34.03 87.5401C33.98 88.0101 34.19 88.5001 34.61 88.7801C34.79 88.9001 39.01 91.7101 45.74 93.1401C47.88 93.5901 50.42 93.9301 53.27 93.9301C58.66 93.9301 65.14 92.7301 71.99 88.8401C72.38 88.6201 72.62 88.2301 72.66 87.8101C72.68 87.7601 72.69 87.7001 72.69 87.6501C72.72 87.4301 72.7 87.2101 72.7 86.9801C72.7 83.9001 72.71 80.8101 72.69 77.7201C72.69 77.2001 72.82 76.8601 73.24 76.5301C75.37 74.8401 77.5 73.1401 79.47 71.2501C81.39 69.3901 82.84 67.2701 83.16 64.5401C83.27 63.6401 83.33 62.7401 83.36 61.8401C83.36 61.6401 83.37 61.4501 83.38 61.2501C83.38 61.2401 83.38 61.2301 83.38 61.2201C83.38 60.4901 83.36 59.8301 83.34 59.2501C83.3 58.1101 83.23 57.2601 83.17 56.7001C83.89 56.3701 84.57 55.9901 85.2 55.4801C86.05 54.7901 86.18 54.3001 85.84 53.3001L85.82 53.2601ZM34.2 67.1001C31.95 65.1901 29.56 63.4401 27.02 61.8501C26.8 61.7101 26.36 61.7101 26.56 61.2301C26.7 60.8801 26.86 60.6901 27.29 60.7801C27.73 60.8701 28.09 60.5901 28.41 60.3201C29.01 59.8201 29.59 59.3101 30.19 58.8101C30.92 58.2001 31.65 57.5801 32.55 57.0901C33.24 59.6701 33.91 62.1601 34.02 64.7601C34.02 64.8701 34.04 64.9801 34.06 65.0801C34.1 65.5701 34.16 66.3101 34.21 67.1101L34.2 67.1001ZM80.67 62.4701C80.64 65.1401 79.71 67.4001 77.72 69.2101C76.8 70.0501 75.87 70.8901 74.92 71.7101C74.22 72.3101 73.5 72.8801 72.72 73.5101C72.49 68.8201 73.17 64.3301 73.5 59.8201C73.54 59.3101 73.88 59.3601 74.19 59.3001C76.34 58.8501 78.46 58.3301 80.54 57.6401C80.6 58.3901 80.65 59.4401 80.67 60.8001C80.67 61.3601 80.67 61.9101 80.66 62.4701H80.67ZM82.36 54.0501C79.76 55.2801 76.99 55.9501 74.21 56.5901C73.67 56.7101 73.77 56.4001 73.79 56.0801C74.03 52.4701 74.1 48.8601 74.04 45.2501C74.04 45.0301 74.06 44.8001 74.01 44.5801C73.85 43.8801 73.41 43.4401 72.66 43.4701C71.92 43.5001 71.47 43.9301 71.38 44.6601C71.32 45.1001 71.36 45.5501 71.38 45.9901C71.47 50.9701 71.18 55.9301 70.75 60.8901C70.44 64.4601 69.99 68.0201 70.02 71.6101C70.06 76.6901 70.03 81.7601 70.03 86.8401C62.45 90.9701 54.5 92.2101 46.4 90.5201C41.51 89.5001 38 87.6501 36.68 86.8901C36.68 86.3301 36.7 85.7801 36.67 85.2301C36.64 84.7301 36.77 84.6701 37.27 84.7501C39.58 85.1501 41.74 84.0801 42.62 82.0101C43.6 79.6901 43.8 77.3901 42.04 75.2801C41.79 74.9801 41.59 74.6501 41.34 74.3501C39.97 72.6901 38.52 71.1301 36.99 69.6501C36.95 67.5501 36.68 64.3701 36.66 64.2301C36.66 64.1901 36.65 64.1401 36.64 64.1001C36.63 63.8901 36.61 63.6701 36.59 63.4601C36.35 61.1101 35.8 58.8101 35.16 56.5401C34.11 52.8601 32.92 49.2301 31.3 45.7501C30.89 44.8601 30.14 44.5701 29.41 44.9401C28.66 45.3201 28.48 46.0301 28.91 46.9301C29.95 49.1101 30.72 51.3901 31.52 53.6701C31.7 54.1801 31.55 54.4101 31.18 54.6901C30.02 55.5901 28.87 56.5101 27.74 57.4501C27.39 57.7501 27.16 57.7701 26.76 57.4901C23.86 55.4501 21.25 53.0901 18.81 50.5301C18.43 50.1301 18.41 49.8901 18.72 49.4401C21.13 45.9401 23.56 42.4601 26.17 39.1101C27.93 36.8501 29.76 34.6801 32.36 33.2701C37.33 30.5601 42.64 28.8701 48.2 27.9601C51.14 27.4801 54.1 27.2001 57.07 27.7201C62.5 28.6601 67.42 30.8801 72.18 33.5701C74.27 34.7501 75.78 36.3601 76.87 38.4801C79.25 43.1301 81.1 47.9901 82.88 52.8801C83.12 53.5401 82.96 53.7801 82.37 54.0601L82.36 54.0501Z" fill="#0C4A6E" />
	<path d="M82.88 52.8701C81.1 47.9701 79.25 43.1101 76.87 38.4701C75.78 36.3501 74.27 34.7401 72.18 33.5601C67.42 30.8701 62.5 28.6501 57.07 27.7101C54.1 27.1901 51.14 27.4701 48.2 27.9501C42.64 28.8601 37.33 30.5601 32.36 33.2601C29.76 34.6701 27.93 36.8401 26.17 39.1001C23.56 42.4501 21.13 45.9401 18.72 49.4301C18.41 49.8801 18.43 50.1201 18.81 50.5201C21.25 53.0801 23.86 55.4501 26.76 57.4801C27.16 57.7601 27.39 57.7401 27.74 57.4401C28.87 56.5001 30.02 55.5801 31.18 54.6801C31.55 54.4001 31.7 54.1701 31.52 53.6601C30.72 51.3901 29.96 49.1001 28.91 46.9201C28.48 46.0201 28.67 45.3001 29.41 44.9301C30.14 44.5601 30.88 44.8501 31.3 45.7401C32.92 49.2201 34.11 52.8501 35.16 56.5301C35.81 58.8001 36.35 61.0901 36.59 63.4501C36.61 63.6601 36.63 63.8701 36.64 64.0901C36.64 64.0901 36.65 64.1801 36.66 64.2201C36.67 64.3601 36.95 67.5401 36.99 69.6401C38.52 71.1201 39.97 72.6801 41.34 74.3401C41.59 74.6401 41.79 74.9801 42.04 75.2701C43.8 77.3801 43.6 79.6901 42.62 82.0001C41.74 84.0701 39.58 85.1501 37.27 84.7401C36.77 84.6501 36.64 84.7201 36.67 85.2201C36.7 85.7701 36.69 86.3301 36.68 86.8801C38 87.6501 41.51 89.5001 46.4 90.5101C54.5 92.2001 62.45 90.9601 70.03 86.8301C70.03 81.7501 70.05 76.6801 70.02 71.6001C69.99 68.0101 70.44 64.4501 70.75 60.8801C71.17 55.9201 71.47 50.9601 71.38 45.9801C71.38 45.5401 71.33 45.0901 71.38 44.6501C71.47 43.9301 71.92 43.4901 72.66 43.4601C73.4 43.4401 73.84 43.8701 74.01 44.5701C74.06 44.7801 74.04 45.0101 74.04 45.2401C74.11 48.8501 74.03 52.4701 73.79 56.0701C73.77 56.3901 73.67 56.7001 74.21 56.5801C76.99 55.9401 79.76 55.2701 82.36 54.0401C82.95 53.7601 83.11 53.5201 82.87 52.8601L82.88 52.8701ZM44.45 66.9201C43.75 67.6001 42.97 67.6401 42.4 67.0601C41.83 66.4801 41.89 65.7101 42.58 65.0101C43.83 63.7501 45.08 62.5001 46.34 61.2501C46.76 60.8301 47.26 60.6501 47.85 60.9001C48.39 61.1301 48.65 61.5501 48.68 62.0701C48.68 62.5701 48.45 62.9101 48.15 63.2201C46.91 64.4501 45.69 65.6901 44.45 66.9201V66.9201ZM55.33 82.3801C55.2 83.0901 54.7 83.4601 53.9 83.4901C52.49 83.1401 51.01 82.7701 49.54 82.4001C49.11 82.2901 48.67 82.2101 48.26 82.0601C47.57 81.8101 47.22 81.1201 47.41 80.4601C47.6 79.7901 48.25 79.3401 48.95 79.5101C50.78 79.9401 52.61 80.3901 54.42 80.8901C55.12 81.0801 55.46 81.6501 55.33 82.3701V82.3801ZM54.89 71.1201C52.99 72.2501 50.98 73.1901 48.97 74.1101C48.9 74.1401 48.81 74.1301 48.7 74.1501C48.12 74.1101 47.66 73.8401 47.46 73.2501C47.24 72.6201 47.41 72.0301 47.97 71.7301C49.83 70.7501 51.71 69.8101 53.61 68.9101C54.24 68.6101 54.82 68.9001 55.18 69.4901C55.54 70.1001 55.47 70.7901 54.9 71.1301L54.89 71.1201Z" fill="#ECFCCB" />
	<path d="M80.68 60.8001C80.68 61.3601 80.68 61.9101 80.67 62.4701C80.64 65.1401 79.71 67.4001 77.72 69.2101C76.8 70.0501 75.87 70.8901 74.92 71.7101C74.22 72.3101 73.5 72.8801 72.72 73.5101C72.49 68.8201 73.17 64.3301 73.5 59.8201C73.54 59.3101 73.88 59.3601 74.19 59.3001C76.34 58.8501 78.46 58.3301 80.54 57.6401C80.6 58.3901 80.65 59.4401 80.67 60.8001H80.68Z" fill="#FFF7ED" />
	<path d="M24.67 19.4299C25.17 19.4499 25.54 19.6699 25.81 20.0599C26.68 21.3499 27.55 22.6399 28.39 23.9399C28.87 24.6799 28.74 25.4099 28.11 25.8499C27.45 26.3099 26.69 26.1499 26.18 25.3999C25.32 24.1399 24.48 22.8699 23.63 21.5999C23.31 21.1199 23.23 20.6299 23.53 20.1099C23.79 19.6699 24.19 19.4499 24.68 19.4299H24.67Z" fill="#0C4A6E" />
	<path d="M83.3599 61.18C83.3599 60.45 83.3399 59.79 83.3199 59.21C83.3499 59.33 83.3599 59.46 83.3599 59.59C83.3599 60.12 83.3699 60.65 83.3599 61.18V61.18Z" fill="#0C4A6E" />
	<path d="M54.88 71.12C52.98 72.25 50.97 73.19 48.96 74.11C48.89 74.14 48.8 74.13 48.69 74.15C48.11 74.11 47.65 73.84 47.45 73.25C47.23 72.62 47.4 72.03 47.96 71.73C49.82 70.75 51.7 69.81 53.6 68.91C54.23 68.61 54.81 68.9 55.17 69.49C55.53 70.1 55.46 70.79 54.89 71.13L54.88 71.12Z" fill="#0C4A6E" />
	<path d="M48.68 62.0801C48.68 62.5801 48.45 62.9201 48.15 63.2301C46.91 64.4601 45.69 65.7001 44.45 66.9301C43.75 67.6101 42.97 67.6501 42.4 67.0701C41.83 66.4901 41.89 65.7201 42.58 65.0201C43.83 63.7601 45.08 62.5101 46.34 61.2601C46.76 60.8401 47.26 60.6601 47.85 60.9101C48.39 61.1401 48.65 61.5601 48.68 62.0801V62.0801Z" fill="#0C4A6E" />
	<path d="M79.17 30.0999C78.81 30.0799 78.4 29.7899 78.15 29.2799C77.9 28.7699 77.9699 28.2599 78.3799 27.9099C79.7299 26.7099 80.85 25.2899 82.17 24.0599C82.39 23.8599 82.66 23.6999 82.92 23.5599C83.43 23.2899 83.89 23.4399 84.28 23.8199C84.69 24.2199 84.85 24.6899 84.57 25.2499C84.37 25.6599 84.0799 25.9899 83.7699 26.2999C82.6399 27.4399 81.38 28.4499 80.33 29.6799C80.09 29.9599 79.77 30.1299 79.16 30.1099L79.17 30.0999Z" fill="#0C4A6E" />
	<path d="M55.32 82.3799C55.19 83.0899 54.69 83.4599 53.89 83.4899C52.48 83.1399 51 82.7699 49.53 82.3999C49.1 82.2899 48.66 82.2099 48.25 82.0599C47.56 81.8099 47.21 81.1199 47.4 80.4599C47.59 79.7899 48.24 79.3399 48.94 79.5099C50.77 79.9399 52.6 80.3899 54.41 80.8899C55.11 81.0799 55.45 81.6499 55.32 82.3699V82.3799Z" fill="#0C4A6E" />
	<path d="M72.87 26.1001C71.74 26.1201 71 25.0601 71.51 24.2201C72.37 22.8101 73.29 21.4201 74.25 20.0801C74.79 19.3301 75.42 19.2301 76.05 19.6301C76.6 19.9801 76.83 20.4601 76.6 21.1201C76.35 21.8401 75.88 22.4201 75.46 23.0401C74.93 23.8201 74.39 24.5801 73.88 25.3701C73.61 25.8001 73.27 26.0701 72.87 26.1001V26.1001Z" fill="#0C4A6E" />
	<path d="M40.14 80.9901C39.63 82.1601 38.16 82.5001 36.82 81.8701C36.12 81.5501 35.52 81.0601 35.11 80.4401C32.85 77.0601 29.6 74.7801 26.38 72.4501C23.77 70.5601 21.23 68.5801 19.01 66.2301C18.88 66.0901 18.74 65.9501 18.61 65.8001C17.09 64.2001 16.37 62.3901 16.78 60.1201C17.14 58.0701 17.54 56.0501 18.53 54.0601C20.38 55.8401 22.23 57.4901 24.23 58.9401C24.56 59.1801 24.54 59.3901 24.36 59.7001C24.03 60.3101 23.67 60.9001 23.48 61.5701C23.21 62.5201 23.4 62.9501 24.25 63.4101C30.44 66.6901 35.4 71.3901 39.87 76.7001C41.05 78.1001 40.77 79.5401 40.14 80.9801V80.9901Z" fill="#FFF7ED" />
	<path d="M49.05 21.08C48.61 21.08 48.16 21.1 47.72 21.08C46.61 21.03 45.66 20.97 44.95 19.71C43.92 17.9 41.97 17.64 40.01 18.74C39.45 19.05 39.21 18.92 38.89 18.48C38.07 17.32 37.41 16.09 36.96 14.73C36.84 14.37 36.89 14.25 37.26 14.18C38.4 13.98 39.28 13.31 40.11 12.56C40.34 12.36 40.57 12.16 40.78 11.93C43.8 8.56001 47.5 8.05001 51.63 9.36001C52.5 9.64001 53.37 9.90001 54.24 10.17C55.32 10.51 55.94 11.3 56.26 12.33C56.94 14.54 56.8 16.77 56.33 18.99C56.22 19.5 55.83 19.75 55.39 19.96C53.38 20.9 51.23 21.08 49.06 21.08H49.05Z" fill="#E2E8F0" />
	<path d="M55.67 22.75C55.73 22.84 55.77 22.86 55.76 22.88C55.57 24.76 55.57 24.75 53.68 24.77C49.89 24.81 46.18 25.46 42.53 26.45C41.87 26.63 41.6 26.45 41.36 25.88C40.85 24.69 40.53 23.47 40.53 22.18C40.53 21.47 41.05 20.95 41.89 20.79C42.56 20.66 42.91 21.06 43.04 21.61C43.4 23.19 44.54 23.51 45.95 23.63C49.24 23.91 52.48 23.8 55.67 22.75V22.75Z" fill="#FFF7ED" />
	<path d="M22.02 29.92C22 30.62 21.74 31.01 21.27 31.28C20.78 31.55 20.27 31.54 19.88 31.17C18.45 29.78 17.03 28.38 15.65 26.94C15.14 26.4 15.23 25.62 15.76 25.15C16.31 24.67 16.96 24.59 17.49 25.1C18.93 26.48 20.32 27.91 21.73 29.32C21.92 29.52 22.03 29.78 22.02 29.93V29.92Z" fill="#0C4A6E" />
	<path d="M83.37 61.59C83.37 61.66 83.37 61.74 83.35 61.81C83.35 61.61 83.36 61.42 83.37 61.22C83.37 61.34 83.37 61.47 83.37 61.6V61.59Z" fill="#0C4A6E" />
</svg>
