<svg
  width="28"
  height="36"
  viewBox="0 0 28 36"
  fill="none"
  xmlns="http://www.w3.org/2000/svg"
>
  <path
    fill-rule="evenodd"
    clip-rule="evenodd"
    d="M21.2812 24.1497C21.2812 23.4336 21.5845 22.7469 22.1242 22.2405C22.6639 21.7342 23.3959 21.4497 24.1592 21.4497C24.9224 21.4497 25.6544 21.7342 26.1941 22.2405C26.7339 22.7469 27.0371 23.4336 27.0371 24.1497V35.1C27.0371 35.3387 26.936 35.5676 26.7561 35.7364C26.5762 35.9052 26.3322 36 26.0778 36C25.8233 36 25.5793 35.9052 25.3994 35.7364C25.2195 35.5676 25.1185 35.3387 25.1185 35.1V24.1497C25.1185 23.911 25.0174 23.6821 24.8375 23.5133C24.6576 23.3445 24.4136 23.2497 24.1592 23.2497C23.9047 23.2497 23.6607 23.3445 23.4808 23.5133C23.3009 23.6821 23.1999 23.911 23.1999 24.1497V24.3504C23.1999 24.5891 23.0988 24.818 22.9189 24.9868C22.739 25.1556 22.495 25.2504 22.2406 25.2504C21.9861 25.2504 21.7421 25.1556 21.5622 24.9868C21.3823 24.818 21.2813 24.5891 21.2812 24.3504V24.1497Z"
    fill="#141716"
  />
  <path
    fill-rule="evenodd"
    clip-rule="evenodd"
    d="M18.8621 9C15.9746 9 13.9045 10.6038 12.5912 12.7944C11.3 14.9472 10.734 17.6652 10.734 20.0538C10.734 20.7387 10.9757 21.4488 11.2491 22.0545C11.5331 22.6827 11.9014 23.3073 12.2564 23.8509C12.3379 23.9769 12.4195 24.0984 12.501 24.2163C12.6001 24.3614 12.6527 24.53 12.6526 24.7023V33.4197C12.6526 33.7932 13.019 34.2 13.6119 34.2C14.2047 34.2 14.5712 33.7932 14.5712 33.4197V25.1478C14.5712 22.4748 15.5055 19.7955 16.2893 17.5455L16.3114 17.4834C16.4505 17.0856 16.5838 16.7004 16.7095 16.3278C16.9109 15.732 17.12 15.1677 17.333 14.6403C17.4057 14.4595 17.5384 14.3055 17.7116 14.201C17.8848 14.0965 18.0893 14.0471 18.2947 14.06C18.5002 14.0729 18.6957 14.1475 18.8525 14.2728C19.0093 14.398 19.119 14.5673 19.1653 14.7555L19.8521 17.5257C19.9241 17.8155 20.1083 18.0297 20.3222 18.1395L24.758 19.0692C24.8172 19.0817 24.8751 19.0995 24.9307 19.1223C25.3048 19.2744 25.8084 19.1223 26.0118 18.6048C26.2114 18.0945 25.9734 17.5779 25.5993 17.3718L22.0499 16.7922C21.8645 16.7618 21.6926 16.681 21.5558 16.5597C21.419 16.4384 21.3233 16.282 21.2805 16.11L19.69 9.702C19.5749 9.2403 19.1989 9 18.8621 9ZM10.9191 11.9124C12.455 9.3492 15.0729 7.2 18.8621 7.2C20.1908 7.2 21.2652 8.1117 21.5587 9.2943L23.0054 15.1218L26.0636 15.6213C26.1386 15.6332 26.2118 15.6537 26.2814 15.6825C27.7251 16.2702 28.3429 17.8731 27.8115 19.2267C27.281 20.5803 25.724 21.348 24.2601 20.8089L19.7955 19.8729C19.7364 19.8606 19.6785 19.8432 19.6229 19.8207C19.2607 19.6694 18.9359 19.4492 18.669 19.1741C18.4022 18.8989 18.1991 18.5749 18.0726 18.2223C17.2841 20.4849 16.4898 22.8483 16.4898 25.1478V33.4197C16.4898 34.902 15.1372 36 13.6119 36C12.0866 36 10.734 34.902 10.734 33.4197V24.9633C10.2554 24.2599 9.83715 23.522 9.48303 22.7565C9.17318 22.0725 8.81536 21.0978 8.81536 20.0538C8.81536 17.4402 9.42836 14.3991 10.9191 11.9124ZM0.293874 5.4675C0.413398 5.25692 0.617151 5.09948 0.860353 5.02978C1.10356 4.96008 1.3663 4.98383 1.59085 5.0958L6.94184 7.7643C7.10209 7.84429 7.23485 7.9653 7.32471 8.11325C7.41458 8.26121 7.45785 8.43005 7.44952 8.60017C7.44118 8.77028 7.38157 8.93469 7.27761 9.07428C7.17365 9.21388 7.02961 9.32294 6.86222 9.3888L5.22181 10.0332L8.22059 11.5857C8.43946 11.7029 8.60038 11.8962 8.66857 12.1238C8.73676 12.3514 8.70675 12.5951 8.58501 12.8021C8.46328 13.0091 8.2596 13.1629 8.01801 13.2301C7.77642 13.2974 7.51631 13.2728 7.29391 13.1616L2.55783 10.71C2.39994 10.6283 2.26981 10.5064 2.18236 10.3585C2.0949 10.2105 2.05367 10.0425 2.06338 9.87352C2.07309 9.70459 2.13336 9.54164 2.23728 9.40338C2.34119 9.26511 2.48454 9.15712 2.65088 9.0918L4.25292 8.4618L0.691026 6.6852C0.57968 6.62975 0.481073 6.55426 0.400843 6.46304C0.320613 6.37182 0.260332 6.26666 0.223448 6.15357C0.186564 6.04048 0.1738 5.92168 0.185884 5.80396C0.197968 5.68624 0.234664 5.57191 0.293874 5.4675ZM0.0204731 14.3802C0.125996 13.8762 0.618119 13.5459 1.11888 13.6431L4.63568 14.3271C4.805 14.3625 4.96036 14.4418 5.08413 14.5558C5.20791 14.6699 5.29515 14.8142 5.33597 14.9724C5.42806 15.3036 5.32925 15.6627 5.07792 15.9048L4.31335 16.6428L6.17248 17.0964C6.66652 17.217 6.96295 17.7192 6.83344 18.2187C6.70394 18.7182 6.19742 19.0251 5.70242 18.9045L2.22495 18.0549C2.06146 18.0121 1.91348 17.9283 1.79687 17.8125C1.68026 17.6968 1.59943 17.5535 1.56303 17.3979C1.47957 17.0712 1.5803 16.7229 1.82492 16.4862L2.51946 15.8166L0.733235 15.4701C0.233438 15.3729 -0.0860095 14.8851 0.0204731 14.3811V14.3802ZM22.2456 5.4C22.7544 5.4 23.2425 5.21036 23.6023 4.87279C23.9621 4.53523 24.1642 4.07739 24.1642 3.6C24.1642 3.12261 23.9621 2.66477 23.6023 2.32721C23.2425 1.98964 22.7544 1.8 22.2456 1.8C21.7368 1.8 21.2487 1.98964 20.8889 2.32721C20.5291 2.66477 20.327 3.12261 20.327 3.6C20.327 4.07739 20.5291 4.53523 20.8889 4.87279C21.2487 5.21036 21.7368 5.4 22.2456 5.4ZM22.2456 7.2C23.2633 7.2 24.2393 6.82072 24.9589 6.14558C25.6785 5.47045 26.0828 4.55478 26.0828 3.6C26.0828 2.64522 25.6785 1.72955 24.9589 1.05442C24.2393 0.379284 23.2633 0 22.2456 0C21.2279 0 20.2519 0.379284 19.5323 1.05442C18.8127 1.72955 18.4084 2.64522 18.4084 3.6C18.4084 4.55478 18.8127 5.47045 19.5323 6.14558C20.2519 6.82072 21.2279 7.2 22.2456 7.2Z"
    fill="#141716"
  />
</svg>
