<svg
  width="30"
  height="30"
  viewBox="0 0 30 30"
  fill="none"
  xmlns="http://www.w3.org/2000/svg"
>
  <path
    d="M10.3529 20.3453C12.7836 22.5944 18.6954 20.7715 23.5567 16.2725C28.4189 11.7742 30.389 6.30393 27.9583 4.05478M17.5049 2.52703L18.6051 3.54577M13.6543 6.09083L14.7545 7.10885M10.3521 10.1636L11.4523 11.1816M9.25195 15.2545L10.3521 16.2725M23.5567 1L24.6569 2.01802M22.4566 7.10957L24.6569 9.14561M18.6059 10.6734L20.8063 12.7094M14.2036 13.7274L16.4047 15.7635"
    stroke="#141716"
    stroke-width="2"
    stroke-linecap="round"
    stroke-linejoin="round"
  />
  <path
    d="M10.3537 23.4001C11.2652 22.5567 11.2652 21.1891 10.3537 20.3456C9.44209 19.5021 7.96416 19.5021 7.05259 20.3456L2.65117 24.4183C1.73961 25.2618 1.73961 26.6294 2.65117 27.4728C3.56273 28.3163 5.04067 28.3163 5.95224 27.4728L10.3537 23.4001Z"
    stroke="#141716"
    stroke-width="2"
    stroke-linecap="round"
    stroke-linejoin="round"
  />
</svg>
