<svg
  width="28"
  height="40"
  viewBox="0 0 28 40"
  fill="none"
  xmlns="http://www.w3.org/2000/svg"
>
  <path
    fill-rule="evenodd"
    clip-rule="evenodd"
    d="M13.9818 1.9998C13.2401 1.9998 12.5289 2.31584 12.0045 2.87839C11.48 3.44095 11.1854 4.20393 11.1854 4.9995C11.1854 5.79507 11.48 6.55806 12.0045 7.12061C12.5289 7.68317 13.2401 7.99921 13.9818 7.99921C14.7234 7.99921 15.4346 7.68317 15.959 7.12061C16.4835 6.55806 16.7781 5.79507 16.7781 4.9995C16.7781 4.20393 16.4835 3.44095 15.959 2.87839C15.4346 2.31584 14.7234 1.9998 13.9818 1.9998ZM9.32123 4.9995C9.32123 3.67355 9.81225 2.40191 10.6863 1.46432C11.5603 0.526732 12.7457 0 13.9818 0C15.2178 0 16.4032 0.526732 17.2772 1.46432C18.1513 2.40191 18.6423 3.67355 18.6423 4.9995C18.6423 6.32545 18.1513 7.5971 17.2772 8.53469C16.4032 9.47227 15.2178 9.99901 13.9818 9.99901C12.7457 9.99901 11.5603 9.47227 10.6863 8.53469C9.81225 7.5971 9.32123 6.32545 9.32123 4.9995ZM13.9687 10.9989C17.7419 10.9809 21.4349 11.7068 25.9491 13.1187C26.3061 13.2246 26.6399 13.4056 26.9312 13.6511C27.2225 13.8966 27.4654 14.2017 27.6459 14.5487C27.8263 14.8958 27.9406 15.2778 27.9823 15.6727C28.0239 16.0676 27.992 16.4674 27.8884 16.8489C27.7848 17.2304 27.6116 17.586 27.3787 17.8951C27.1459 18.2042 26.8582 18.4606 26.5323 18.6494C26.2063 18.8382 25.8486 18.9556 25.48 18.9949C25.1114 19.0342 24.7392 18.9945 24.385 18.8781C23.7297 18.6729 23.0715 18.4782 22.4108 18.2942C22.8582 19.879 23.2431 21.5299 23.2963 23.1467C23.3671 25.3175 22.8442 27.4543 21.1646 29.3621L20.4953 37.2683C20.431 38.0379 20.0922 38.7512 19.5497 39.2595C19.0073 39.7678 18.3028 40.032 17.5833 39.9969C16.8637 39.9618 16.1845 39.6303 15.6872 39.0713C15.1899 38.5123 14.9129 37.769 14.9139 36.9963V31.9918C14.6091 31.9968 14.3033 31.9968 13.9985 31.9968H13.965C13.6602 31.9968 13.3544 31.9968 13.0496 31.9918V36.9963C13.0506 37.769 12.7736 38.5123 12.2763 39.0713C11.779 39.6303 11.0998 39.9618 10.3802 39.9969C9.66067 40.032 8.95625 39.7678 8.41376 39.2595C7.87127 38.7512 7.53256 38.0379 7.4682 37.2683L6.79802 29.3621C5.12489 27.4603 4.59825 25.3315 4.66629 23.1667C4.71663 21.5519 5.09879 19.904 5.54527 18.3202C4.90491 18.4922 4.23939 18.6821 3.54404 18.8891C2.82936 19.1018 2.06518 19.0012 1.41963 18.6095C0.774085 18.2178 0.300037 17.567 0.101774 16.8003C-0.0964877 16.0337 -0.00272294 15.2139 0.362442 14.5214C0.727607 13.8289 1.33426 13.3204 2.04894 13.1077C6.52491 11.7748 10.2049 11.0189 13.9687 10.9989ZM25.428 15.0385C21.0098 13.6576 17.507 12.9817 13.9771 12.9987C10.45 13.0157 6.95182 13.7236 2.54669 15.0345C2.30838 15.1054 2.1061 15.275 1.98435 15.506C1.86259 15.7369 1.83135 16.0102 1.89747 16.2659C1.9636 16.5215 2.12169 16.7385 2.33696 16.8691C2.55223 16.9997 2.80705 17.0333 3.04536 16.9623C4.26433 16.5957 5.49202 16.2632 6.72718 15.9654L8.31549 15.5875L7.81588 17.2483C7.17272 19.3831 6.58736 21.3679 6.52957 23.2337C6.47364 25.0315 6.91174 26.6873 8.34997 28.2032L8.59418 28.4602L9.32495 37.0863C9.3464 37.3428 9.45926 37.5805 9.64003 37.7499C9.82079 37.9194 10.0555 38.0075 10.2953 37.9959C10.5351 37.9843 10.7615 37.8739 10.9273 37.6877C11.0931 37.5015 11.1856 37.2538 11.1854 36.9963V29.884L12.18 29.956C12.7393 29.996 13.3256 29.997 13.9818 29.997C14.638 29.997 15.2242 29.997 15.7835 29.957L16.7781 29.883V36.9963C16.7779 37.2538 16.8704 37.5015 17.0362 37.6877C17.202 37.8739 17.4284 37.9843 17.6682 37.9959C17.908 38.0075 18.1427 37.9194 18.3235 37.7499C18.5042 37.5805 18.6171 37.3428 18.6385 37.0863L19.3693 28.4602L19.6135 28.2032C21.0564 26.6833 21.4927 25.0225 21.433 23.2167C21.3724 21.3439 20.7805 19.3521 20.1364 17.2103L19.634 15.5425L21.2279 15.9284C22.38 16.2064 23.5964 16.5484 24.906 16.9583C25.1433 17.0326 25.3984 17.0026 25.6152 16.8751C25.832 16.7476 25.9926 16.533 26.0618 16.2784C26.1311 16.0238 26.1032 15.7501 25.9843 15.5176C25.8654 15.2851 25.6653 15.1128 25.428 15.0385Z"
    fill="#141716"
  />
</svg>
